<?xml version="1.0" encoding="UTF-8"?>
<svg version="1.1" xmlns="http://www.w3.org/2000/svg" width="248" height="248">
<path d="M0 0 C2.94727562 3.85013823 2.70949828 6.78989146 2.28125 11.3984375 C2.2198584 12.25066895 2.1584668 13.10290039 2.09521484 13.98095703 C-1.70084004 60.88166993 -1.70084004 60.88166993 -7.71875 69.3984375 C-22.68357896 81.61462441 -43.06807534 83.11149821 -61.6340332 81.45092773 C-73.29724581 80.1473532 -86.25327073 77.4076384 -94.31616211 68.1328125 C-95.99701434 65.56937981 -96.49902333 63.59253256 -97.0625 60.5859375 C-97.26335205 59.5235083 -97.4642041 58.4610791 -97.67114258 57.36645508 C-97.87247803 56.22200928 -98.07381348 55.07756348 -98.28125 53.8984375 C-98.49483154 52.71467529 -98.70841309 51.53091309 -98.9284668 50.3112793 C-106.46492684 6.97022305 -106.46492684 6.97022305 -101.96875 0.1484375 C-80.53535249 -14.98101957 -21.23235672 -16.04355044 0 0 Z M-84.84375 5.0859375 C-85.3078125 5.983125 -85.3078125 5.983125 -85.78125 6.8984375 C-77.98494645 14.97318046 -63.68571659 14.84681333 -53.1418457 15.06445312 C-41.94466374 15.18191075 -28.91405102 15.1183653 -18.78125 9.8984375 C-16.71564605 7.90855548 -16.71564605 7.90855548 -15.78125 5.8984375 C-27.97657739 -5.01435546 -72.57871249 -7.92243562 -84.84375 5.0859375 Z M-61.58203125 36.34765625 C-65.18301331 40.0345806 -66.77397259 43.46502787 -67.01171875 48.625 C-66.45975567 54.06978836 -64.08488576 57.71607018 -60.09375 61.3359375 C-55.25088611 63.62030726 -50.83327546 64.76506201 -45.56640625 63.26953125 C-40.81363868 61.15423991 -38.042867 58.69306554 -35.78125 53.8984375 C-34.63222207 49.45393362 -34.40846228 46.03872936 -35.84375 41.6484375 C-39.52006038 36.43044857 -43.42262088 33.23062032 -49.703125 31.99609375 C-54.39934799 31.77540658 -57.97097135 33.4415755 -61.58203125 36.34765625 Z " fill="#1F5081" transform="translate(174.78125,51.1015625)"/>
<path d="M0 0 C1.83111328 0.72316406 1.83111328 0.72316406 3.69921875 1.4609375 C28.37805916 11.0170393 51.72275686 11.80726913 76.0859375 1.20703125 C79 0 79 0 81 0 C79.66741477 8.24098758 78.12121611 16.49814778 72.4375 22.875 C62.87729683 29.73499311 51.15896814 30.19652148 39.875 30.25 C38.81023437 30.270625 37.74546875 30.29125 36.6484375 30.3125 C26.49454624 30.36179073 14.79308247 29.24586845 7 22 C2.6112024 15.9502113 0 7.39639388 0 0 Z " fill="#1F5081" transform="translate(84,128)"/>
<path d="M0 0 C1.134375 0.020625 2.26875 0.04125 3.4375 0.0625 C3.4375 2.0425 3.4375 4.0225 3.4375 6.0625 C5.0875 6.0625 6.7375 6.0625 8.4375 6.0625 C8.4375 8.3725 8.4375 10.6825 8.4375 13.0625 C6.7875 13.0625 5.1375 13.0625 3.4375 13.0625 C3.4375 17.0225 3.4375 20.9825 3.4375 25.0625 C4.7575 24.7325 6.0775 24.4025 7.4375 24.0625 C8.4375 25.0625 8.4375 25.0625 8.5 28.125 C8.479375 29.094375 8.45875 30.06375 8.4375 31.0625 C6.8348218 31.17074843 5.23004252 31.24820645 3.625 31.3125 C2.73167969 31.35890625 1.83835938 31.4053125 0.91796875 31.453125 C-1.5625 31.0625 -1.5625 31.0625 -3.375 29.5 C-5.00186557 26.16064436 -4.85262923 23.50715231 -4.75 19.8125 C-4.72292969 18.54921875 -4.69585937 17.2859375 -4.66796875 15.984375 C-4.63316406 15.02015625 -4.59835938 14.0559375 -4.5625 13.0625 C-5.5525 13.0625 -6.5425 13.0625 -7.5625 13.0625 C-7.5625 16.0325 -7.5625 19.0025 -7.5625 22.0625 C-11.5225 22.0625 -15.4825 22.0625 -19.5625 22.0625 C-19.5625 23.0525 -19.5625 24.0425 -19.5625 25.0625 C-15.9325 24.7325 -12.3025 24.4025 -8.5625 24.0625 C-8.2325 26.0425 -7.9025 28.0225 -7.5625 30.0625 C-10.49973778 31.53111889 -13.16842357 31.31043404 -16.4375 31.375 C-17.67242187 31.41238281 -18.90734375 31.44976562 -20.1796875 31.48828125 C-23.5625 31.0625 -23.5625 31.0625 -25.98046875 29.54296875 C-28.17164405 26.10742229 -28.11067215 23.00385661 -28 19.0625 C-28.00708984 18.3509375 -28.01417969 17.639375 -28.02148438 16.90625 C-27.9830408 13.73613342 -27.76088562 11.42341144 -26.22265625 8.625 C-22.90490128 5.50240709 -19.02151015 5.80014489 -14.7265625 5.828125 C-11.96245799 6.1274865 -10.4742296 7.06765172 -8.5625 9.0625 C-8.2325 8.0725 -7.9025 7.0825 -7.5625 6.0625 C-6.5725 6.0625 -5.5825 6.0625 -4.5625 6.0625 C-4.583125 5.258125 -4.60375 4.45375 -4.625 3.625 C-4.52750049 -0.37247981 -4.13731851 0.07258454 0 0 Z M-17.5625 12.0625 C-18.5525 12.5575 -18.5525 12.5575 -19.5625 13.0625 C-19.5625 13.7225 -19.5625 14.3825 -19.5625 15.0625 C-17.9125 15.0625 -16.2625 15.0625 -14.5625 15.0625 C-14.5625 14.4025 -14.5625 13.7425 -14.5625 13.0625 C-15.5525 12.7325 -16.5425 12.4025 -17.5625 12.0625 Z " fill="#1F5081" transform="translate(201.5625,171.9375)"/>
<path d="M0 0 C2.701875 -0.0825 5.40375 -0.165 8.1875 -0.25 C9.02949951 -0.28641602 9.87149902 -0.32283203 10.73901367 -0.36035156 C14.5596815 -0.41666475 16.62514869 -0.21012928 20.03125 1.69921875 C22.37075416 4.43328215 22.55248376 5.52673921 22.3125 9.0625 C22.24482422 10.34833984 22.24482422 10.34833984 22.17578125 11.66015625 C22.11777344 12.43230469 22.05976562 13.20445312 22 14 C21.7763932 16.9254644 21.7763932 16.9254644 23 19 C23.2734375 20.98828125 23.2734375 20.98828125 23.375 23.3125 C23.42398438 24.07175781 23.47296875 24.83101562 23.5234375 25.61328125 C22.69409675 29.39482751 21.1028959 30.74118689 18 33 C14.86108984 33.58973242 11.8666604 33.47433671 8.6875 33.3125 C4.3871875 33.1578125 4.3871875 33.1578125 0 33 C0 22.11 0 11.22 0 0 Z M7 7 C7 13.27 7 19.54 7 26 C9.64 26 12.28 26 15 26 C15 24.02 15 22.04 15 20 C13.35 19.67 11.7 19.34 10 19 C9.67 17.02 9.34 15.04 9 13 C10.65 12.67 12.3 12.34 14 12 C14 10.35 14 8.7 14 7 C11.69 7 9.38 7 7 7 Z " fill="#1F5081" transform="translate(38,170)"/>
<path d="M0 0 C3.5 0.125 3.5 0.125 4.5 1.125 C4.64115161 3.79558851 4.54247107 6.44932238 4.5 9.125 C5.10328125 9.07859375 5.7065625 9.0321875 6.328125 8.984375 C7.12734375 8.94828125 7.9265625 8.9121875 8.75 8.875 C9.53890625 8.82859375 10.3278125 8.7821875 11.140625 8.734375 C13.5 9.125 13.5 9.125 15.76171875 10.64453125 C18.13895602 14.03676871 18.12442756 17.06635074 18.0625 21.0625 C18.08634766 21.76568359 18.11019531 22.46886719 18.13476562 23.19335938 C18.1242426 26.93604758 17.58585577 28.99788021 15.484375 32.109375 C11.53896702 34.77407463 8.82111187 34.70665529 4.1875 34.4375 C3.44693359 34.41494141 2.70636719 34.39238281 1.94335938 34.36914062 C0.12802643 34.3105815 -1.68625681 34.22090886 -3.5 34.125 C-4.42169321 30.20940562 -4.62883848 26.56517604 -4.6328125 22.546875 C-4.63410156 21.30421875 -4.63539062 20.0615625 -4.63671875 18.78125 C-4.63285156 17.4921875 -4.62898438 16.203125 -4.625 14.875 C-4.62886719 13.57046875 -4.63273437 12.2659375 -4.63671875 10.921875 C-4.63542969 9.684375 -4.63414063 8.446875 -4.6328125 7.171875 C-4.63168457 6.03588867 -4.63055664 4.89990234 -4.62939453 3.72949219 C-4.43123898 -0.25904252 -4.13009458 0.14750338 0 0 Z M4.5 16.125 C4.17 20.085 3.84 24.045 3.5 28.125 C5.15 28.125 6.8 28.125 8.5 28.125 C9.78612676 27.06521067 9.78612676 27.06521067 9.59765625 24.62109375 C9.58605469 23.61175781 9.57445313 22.60242188 9.5625 21.5625 C9.55347656 20.55058594 9.54445313 19.53867188 9.53515625 18.49609375 C9.52355469 17.71363281 9.51195313 16.93117187 9.5 16.125 C7.85 16.125 6.2 16.125 4.5 16.125 Z " fill="#1F5081" transform="translate(92.5,168.875)"/>
<path d="M0 0 C2.31 0 4.62 0 7 0 C7.33 5.28 7.66 10.56 8 16 C9.32 13.69 10.64 11.38 12 9 C14.64 9 17.28 9 20 9 C19.55516744 12.55866047 18.49559801 14.83013148 16.625 17.8125 C15.44565664 19.8213099 15.44565664 19.8213099 15 22 C15.95019841 24.40164827 17.15345373 26.12956599 18.765625 28.140625 C20 30 20 30 20 34 C17.36 34 14.72 34 12 34 C10.68 31.36 9.36 28.72 8 26 C8.020625 27.134375 8.04125 28.26875 8.0625 29.4375 C8 33 8 33 7 34 C4.69 34 2.38 34 0 34 C0 22.78 0 11.56 0 0 Z " fill="#1F5081" transform="translate(154,169)"/>
<path d="M0 0 C2.33294775 -0.04241723 4.66702567 -0.04092937 7 0 C8 1 8 1 8.09765625 4.81640625 C8.09098089 6.39846682 8.07901875 7.98051159 8.0625 9.5625 C8.05798828 10.36880859 8.05347656 11.17511719 8.04882812 12.00585938 C8.03700518 14.00393756 8.01906914 16.00197783 8 18 C9.65 17.67 11.3 17.34 13 17 C12.98839844 15.85660156 12.97679688 14.71320313 12.96484375 13.53515625 C12.95546712 12.04427246 12.94636679 10.55338691 12.9375 9.0625 C12.92912109 8.30775391 12.92074219 7.55300781 12.91210938 6.77539062 C12.90347559 4.85005687 12.94775667 2.92464419 13 1 C13.33 0.67 13.66 0.34 14 0 C16.31 0 18.62 0 21 0 C21 8.25 21 16.5 21 25 C17.90625 25.061875 14.8125 25.12375 11.625 25.1875 C10.65127441 25.21481201 9.67754883 25.24212402 8.67431641 25.27026367 C7.90780762 25.27775635 7.14129883 25.28524902 6.3515625 25.29296875 C5.17327881 25.31653442 5.17327881 25.31653442 3.97119141 25.34057617 C3.32069824 25.22818604 2.67020508 25.1157959 2 25 C-0.20192224 21.69711664 -0.23959968 20.72537273 -0.1953125 16.89453125 C-0.18886719 15.91162109 -0.18242188 14.92871094 -0.17578125 13.91601562 C-0.15902344 12.89185547 -0.14226562 11.86769531 -0.125 10.8125 C-0.11597656 9.77673828 -0.10695313 8.74097656 -0.09765625 7.67382812 C-0.0740786 5.11565315 -0.0411703 2.55794252 0 0 Z " fill="#1F5081" transform="translate(112,178)"/>
<path d="M0 0 C1.134375 0.020625 2.26875 0.04125 3.4375 0.0625 C3.4375 2.0425 3.4375 4.0225 3.4375 6.0625 C4.241875 6.041875 5.04625 6.02125 5.875 6 C8.4375 6.0625 8.4375 6.0625 9.4375 7.0625 C9.5625 9.5625 9.5625 9.5625 9.4375 12.0625 C9.1075 12.3925 8.7775 12.7225 8.4375 13.0625 C6.7875 13.0625 5.1375 13.0625 3.4375 13.0625 C3.4375 17.0225 3.4375 20.9825 3.4375 25.0625 C4.7575 24.7325 6.0775 24.4025 7.4375 24.0625 C9.4375 27.0625 9.4375 27.0625 9.4375 31.0625 C7.64616022 31.11641993 5.85436101 31.15525571 4.0625 31.1875 C3.06476563 31.21070313 2.06703125 31.23390625 1.0390625 31.2578125 C-1.5625 31.0625 -1.5625 31.0625 -3.5625 29.0625 C-4.97806768 24.39112665 -5.79709873 17.53169747 -3.5625 13.0625 C-4.8825 13.0625 -6.2025 13.0625 -7.5625 13.0625 C-7.5625 11.0825 -7.5625 9.1025 -7.5625 7.0625 C-6.2425 6.7325 -4.9225 6.4025 -3.5625 6.0625 C-3.8409375 4.8559375 -3.8409375 4.8559375 -4.125 3.625 C-4.269375 2.779375 -4.41375 1.93375 -4.5625 1.0625 C-3.5625 0.0625 -3.5625 0.0625 0 0 Z " fill="#1F5081" transform="translate(78.5625,171.9375)"/>
<path d="M0 0 C0.96421875 0.03351563 1.9284375 0.06703125 2.921875 0.1015625 C5.25 0.375 5.25 0.375 6.25 1.375 C6.29080783 3.37458364 6.29254356 5.37545254 6.25 7.375 C3.28 7.375 0.31 7.375 -2.75 7.375 C-2.42 11.005 -2.09 14.635 -1.75 18.375 C0.89 18.375 3.53 18.375 6.25 18.375 C6.25 20.685 6.25 22.995 6.25 25.375 C4.14646505 25.4560206 2.04204048 25.51419907 -0.0625 25.5625 C-1.23425781 25.59730469 -2.40601563 25.63210937 -3.61328125 25.66796875 C-6.75 25.375 -6.75 25.375 -8.60546875 23.98828125 C-11.09566688 20.47820675 -11.03752368 17.23353012 -11.125 13.0625 C-11.17398438 11.74636719 -11.22296875 10.43023437 -11.2734375 9.07421875 C-10.75 5.375 -10.75 5.375 -8.5859375 2.41796875 C-5.35569427 0.0909478 -3.91992581 -0.20129349 0 0 Z " fill="#1F5081" transform="translate(145.75,177.625)"/>
<path d="M0 0 C3.55247432 0.87379409 4.94828114 2.4927342 6.9375 5.4765625 C7.88402726 9.63123083 7.32597293 12.6289852 5.5625 16.4765625 C2.08496895 19.12610996 -0.41680936 19.19379885 -4.7109375 18.953125 C-7.0625 18.4765625 -7.0625 18.4765625 -9.6875 16.4765625 C-11.45097293 12.6289852 -12.00902726 9.63123083 -11.0625 5.4765625 C-8.05531939 0.96579158 -5.26030565 -0.3785826 0 0 Z " fill="#1F5081" transform="translate(126.0625,89.5234375)"/>
<path d="M0 0 C3 0.125 3 0.125 4 1.125 C4.08726223 2.90571246 4.10699041 4.6898314 4.09765625 6.47265625 C4.09443359 7.55224609 4.09121094 8.63183594 4.08789062 9.74414062 C4.07951172 10.88044922 4.07113281 12.01675781 4.0625 13.1875 C4.05798828 14.32767578 4.05347656 15.46785156 4.04882812 16.64257812 C4.03699747 19.47010351 4.0205141 22.2975264 4 25.125 C1.36 25.125 -1.28 25.125 -4 25.125 C-4.02886984 21.14584841 -4.04675406 17.16672347 -4.0625 13.1875 C-4.07087891 12.05119141 -4.07925781 10.91488281 -4.08789062 9.74414062 C-4.09111328 8.66455078 -4.09433594 7.58496094 -4.09765625 6.47265625 C-4.10289307 5.47242432 -4.10812988 4.47219238 -4.11352539 3.44165039 C-3.94117699 -0.07536883 -3.58476184 0.14936508 0 0 Z " fill="#1F5081" transform="translate(66,177.875)"/>
<path d="M0 0 C2.33294775 -0.04241723 4.66702567 -0.04092937 7 0 C8 1 8 1 8.0625 4.0625 C8.041875 5.031875 8.02125 6.00125 8 7 C5.36 7 2.72 7 0 7 C0 4.69 0 2.38 0 0 Z " fill="#1F5081" transform="translate(62,169)"/>
</svg>
