<?xml version="1.0" encoding="UTF-8"?>
<svg version="1.1" xmlns="http://www.w3.org/2000/svg" width="1400" height="496">
<path d="M0 0 C125.73 0 251.46 0 381 0 C378.10180671 4.34728993 375.20489549 8.26803741 371.8125 12.1875 C370.82868068 13.33660096 369.84561829 14.48635037 368.86328125 15.63671875 C368.37811035 16.20438965 367.89293945 16.77206055 367.39306641 17.35693359 C365.396426 19.71189152 363.44701662 22.1039417 361.5 24.5 C358.25986843 28.48386284 354.95892864 32.40750882 351.625 36.3125 C347.84207508 40.74851603 344.19467263 45.26600643 340.625 49.875 C336.16948329 55.62027155 331.48856595 61.13095441 326.70019531 66.60058594 C322.7848819 71.07623043 318.9887076 75.63229318 315.24609375 80.25390625 C312.68109606 83.38989473 310.0634254 86.47755315 307.4375 89.5625 C304.23251482 93.33080561 301.07311916 97.12246519 298 101 C294.47116597 105.45253701 290.81770671 109.78685979 287.13671875 114.11328125 C284.21995487 117.54571609 281.34306574 121.00592815 278.5 124.5 C275.19375926 128.5633048 271.83183571 132.57299309 268.4375 136.5625 C265.23260809 140.33088939 262.07312306 144.12246028 259 148 C255.47116597 152.45253701 251.81770671 156.78685979 248.13671875 161.11328125 C245.21995487 164.54571609 242.34306574 168.00592815 239.5 171.5 C236.19375926 175.5633048 232.83183571 179.57299309 229.4375 183.5625 C226.23260809 187.33088939 223.07312306 191.12246028 220 195 C216.92686721 198.877552 213.76715844 202.66890098 210.5625 206.4375 C203.47421648 214.77831197 196.46052456 223.15794874 190 232 C190.88268555 232.26772217 191.76537109 232.53544434 192.67480469 232.8112793 C195.83918772 233.94251138 198.35917896 235.24859635 201.203125 237.01953125 C202.66045044 237.92493652 202.66045044 237.92493652 204.1472168 238.84863281 C205.68309448 239.82074707 205.68309448 239.82074707 207.25 240.8125 C208.84485229 241.81748535 208.84485229 241.81748535 210.47192383 242.84277344 C223.65435462 251.22646281 236.25164899 260.18157221 248.0390625 270.44140625 C250.91371454 272.92543934 253.84804052 275.31187151 256.8125 277.6875 C260.83817058 280.96054521 264.52112077 284.40497475 268.12890625 288.12890625 C269.89007542 289.89007542 271.71046481 291.47177626 273.625 293.0625 C288.55006648 305.93500331 301.31129316 322.2148041 313 338 C313.45455566 338.61262695 313.90911133 339.22525391 314.37744141 339.85644531 C333.37641458 365.65333582 349.48143914 394.0816601 361 424 C361.44931885 425.15822266 361.44931885 425.15822266 361.90771484 426.33984375 C368.00376262 442.16293632 373.14021189 458.18898064 377.3125 474.625 C377.56717041 475.62039795 377.82184082 476.6157959 378.08422852 477.64135742 C379.51540239 483.42895632 380.5833714 489.0464377 381 495 C380 496 380 496 377.43923038 496.1241985 C376.2852603 496.12381878 375.13129022 496.12343906 373.94235134 496.12304783 C373.29938015 496.12420157 372.65640896 496.12535532 371.9939538 496.12654402 C369.81376927 496.12921569 367.63365681 496.12468505 365.45347595 496.12025452 C363.88899213 496.1206915 362.32450838 496.12156761 360.76002502 496.12284851 C356.43147325 496.12510375 352.10294596 496.12106144 347.7743973 496.11607273 C343.04601989 496.11172559 338.31764373 496.11316605 333.58926487 496.11389065 C324.39846285 496.11442369 315.20767055 496.10979294 306.01687104 496.10338932 C295.39247197 496.09620751 284.76807879 496.09539557 274.14367676 496.09460449 C246.07494962 496.08934772 218.00622467 496.0753867 189.9375 496.0625 C127.258125 496.041875 64.57875 496.02125 0 496 C0 332.32 0 168.64 0 0 Z " fill="#40BEB0" transform="translate(1019,0)"/>
<path d="M0 0 C11.31051648 -0.06994561 22.62098032 -0.12303526 33.93167019 -0.15543652 C39.18540095 -0.17099853 44.4389822 -0.19206083 49.69262695 -0.22631836 C54.77606204 -0.25925322 59.8593546 -0.27692388 64.94288826 -0.28463173 C66.86866558 -0.29011469 68.79443636 -0.3008186 70.7201519 -0.31719017 C85.92017863 -0.4411081 100.25875052 1.03748706 114.9375 5.1875 C116.03843994 5.4983252 116.03843994 5.4983252 117.16162109 5.81542969 C136.27334984 11.48268131 154.57509677 21.45092619 170 34 C170.83893799 34.67869141 170.83893799 34.67869141 171.69482422 35.37109375 C199.00665521 57.61234205 217.72178567 86.80643774 226.875 120.875 C227.06618408 121.58648193 227.25736816 122.29796387 227.4543457 123.03100586 C228.03341145 125.34437745 228.52264188 127.66341183 229 130 C229.2618811 131.2645401 229.2618811 131.2645401 229.52905273 132.55462646 C231.78238886 145.54136067 231.24958399 158.70255177 231.1953125 171.8359375 C231.19236671 174.22436428 231.19032958 176.61279237 231.18920898 179.0012207 C231.17878376 187.79250034 231.15086132 196.58375222 231.125 205.375 C231.08375 225.05125 231.0425 244.7275 231 265 C300.63 265 370.26 265 442 265 C441.67 341.23 441.34 417.46 441 496 C402.988125 496.061875 364.97625 496.12375 325.8125 496.1875 C307.8529187 496.22846802 307.8529187 496.22846802 289.53051758 496.27026367 C274.83532715 496.28381348 274.83532715 496.28381348 267.94145203 496.28633118 C263.15816517 496.28911005 258.37497964 496.30028796 253.59172058 496.31672668 C247.46690404 496.33749309 241.34223222 496.34343887 235.21738374 496.33921683 C232.98424414 496.34009807 230.75109882 496.34593394 228.51798975 496.35764539 C210.35957723 496.44835699 192.68612181 494.90849879 175.0625 490.3125 C174.07290283 490.05831299 173.08330566 489.80412598 172.0637207 489.54223633 C142.43479999 481.67400454 113.93648746 468.28314969 90 449 C89.09378906 448.28457031 88.18757812 447.56914062 87.25390625 446.83203125 C80.21563138 441.19142798 73.56490383 435.17762174 67 429 C66.34128906 428.38382812 65.68257812 427.76765625 65.00390625 427.1328125 C59.85479523 422.16207715 55.43930262 416.60180412 51 411 C50.18144531 409.97519531 49.36289062 408.95039063 48.51953125 407.89453125 C33.92713928 389.42935758 22.39571417 368.97947763 14 347 C13.59056152 345.93458984 13.59056152 345.93458984 13.17285156 344.84765625 C9.55502757 335.24186399 7.02138558 325.44105488 4.75 315.4375 C4.38044189 313.82488281 4.38044189 313.82488281 4.00341797 312.1796875 C0.13210983 294.39360834 -0.28936558 277.06370457 -0.23213124 258.93213236 C-0.22338407 255.44705496 -0.22642475 251.96198351 -0.22793579 248.47689819 C-0.22897762 242.45849752 -0.22277517 236.44014067 -0.21146011 230.42175102 C-0.19511182 221.72048996 -0.18998763 213.0192498 -0.18748413 204.31797505 C-0.18312155 190.19610226 -0.16985174 176.07425275 -0.15087891 161.95239258 C-0.13248271 148.2453625 -0.11834457 134.53833878 -0.10986328 120.83129883 C-0.10933783 119.98447139 -0.10881239 119.13764395 -0.10827102 118.26515507 C-0.10566069 114.01629559 -0.10313333 109.76743606 -0.10064721 105.5185765 C-0.07995954 70.34570108 -0.0447735 35.1728527 0 0 Z " fill="#3FBDAF" transform="translate(504,0)"/>
<path d="M0 0 C125.73 0 251.46 0 381 0 C378.10180671 4.34728993 375.20489549 8.26803741 371.8125 12.1875 C370.82868068 13.33660096 369.84561829 14.48635037 368.86328125 15.63671875 C368.37811035 16.20438965 367.89293945 16.77206055 367.39306641 17.35693359 C365.396426 19.71189152 363.44701662 22.1039417 361.5 24.5 C358.25986843 28.48386284 354.95892864 32.40750882 351.625 36.3125 C347.84207508 40.74851603 344.19467263 45.26600643 340.625 49.875 C336.16948329 55.62027155 331.48856595 61.13095441 326.70019531 66.60058594 C322.7848819 71.07623043 318.9887076 75.63229318 315.24609375 80.25390625 C312.68109606 83.38989473 310.0634254 86.47755315 307.4375 89.5625 C304.23251482 93.33080561 301.07311916 97.12246519 298 101 C294.47116597 105.45253701 290.81770671 109.78685979 287.13671875 114.11328125 C284.21995487 117.54571609 281.34306574 121.00592815 278.5 124.5 C275.19375926 128.5633048 271.83183571 132.57299309 268.4375 136.5625 C265.23260809 140.33088939 262.07312306 144.12246028 259 148 C255.47116597 152.45253701 251.81770671 156.78685979 248.13671875 161.11328125 C245.21995487 164.54571609 242.34306574 168.00592815 239.5 171.5 C236.19375926 175.5633048 232.83183571 179.57299309 229.4375 183.5625 C226.23260809 187.33088939 223.07312306 191.12246028 220 195 C216.47472462 199.44804685 212.82533192 203.77833082 209.14770508 208.10009766 C205.37903609 212.53451901 201.68963936 217.02974608 198.015625 221.54296875 C195.39321207 224.73966978 192.70787294 227.87553122 190 231 C185.02348387 230.41567325 181.24019628 228.1400137 176.9375 225.75 C170.09855698 222.04741995 163.26058908 218.80602476 156 216 C154.52575875 215.41738204 153.05182369 214.83398898 151.578125 214.25 C149.98989434 213.62421011 148.40135246 212.99920948 146.8125 212.375 C146.07588135 212.08544434 145.3392627 211.79588867 144.58032227 211.49755859 C140.18830368 209.79137736 135.77073795 208.22584444 131.29321289 206.75927734 C128.95204326 205.98412164 126.62645948 205.17194042 124.30078125 204.3515625 C112.45289981 200.22463928 100.60636419 197.09012849 88.33203125 194.51318359 C86.27473861 194.0604586 84.23485172 193.53014039 82.19921875 192.98828125 C76.42590719 191.52235334 70.51926873 190.80546929 64.625 190 C63.34931152 189.82557373 62.07362305 189.65114746 60.75927734 189.47143555 C40.53181213 186.79504386 20.40056235 185.88698097 0 185 C0 123.95 0 62.9 0 0 Z " fill="#E8468A" transform="translate(1019,0)"/>
<path d="M0 0 C96.58912037 0 96.58912037 0 114.9375 5.1875 C116.03843994 5.4983252 116.03843994 5.4983252 117.16162109 5.81542969 C136.27334984 11.48268131 154.57509677 21.45092619 170 34 C170.83893799 34.67869141 170.83893799 34.67869141 171.69482422 35.37109375 C199.00665521 57.61234205 217.72178567 86.80643774 226.875 120.875 C227.06618408 121.58648193 227.25736816 122.29796387 227.4543457 123.03100586 C228.03340671 125.34435854 228.52249698 127.66346386 229 130 C229.2618811 131.26073334 229.2618811 131.26073334 229.52905273 132.54693604 C231.79918381 145.60443891 231.24942042 158.84954017 231.1953125 172.0546875 C231.19236677 174.46297106 231.1903296 176.87125591 231.18920898 179.27954102 C231.17878302 188.14471372 231.15086057 197.00985889 231.125 205.875 C231.08375 225.71625 231.0425 245.5575 231 266 C154.77 266 78.54 266 0 266 C0 178.22 0 90.44 0 0 Z " fill="#F1BC19" transform="translate(504,0)"/>
<path d="M0 0 C1.47269972 0.00187379 1.47269972 0.00187379 2.97515094 0.00378543 C4.10347847 0.00281098 5.23180599 0.00183653 6.39432526 0.00083256 C7.64962976 0.00490787 8.90493427 0.00898318 10.19827831 0.01318198 C11.5331357 0.01401139 12.86799341 0.01441097 14.20285106 0.01441491 C17.88856132 0.01575341 21.57423544 0.02346884 25.25993454 0.03223032 C29.22888065 0.04061791 33.19783133 0.04330234 37.16678417 0.04682761 C46.76535978 0.05669158 56.3639063 0.07632815 65.96246356 0.09708837 C70.48326569 0.10666678 75.00406972 0.11524209 79.52487361 0.12393981 C94.55761067 0.15325985 109.59033926 0.18508161 124.62305439 0.22416049 C128.52751334 0.23428102 132.43197232 0.24439237 136.33643138 0.25446922 C137.79209177 0.25822953 137.79209177 0.25822953 139.27715944 0.26206581 C154.97414919 0.30215573 170.67111567 0.32537525 186.36814655 0.34144785 C202.48792467 0.35822247 218.60761886 0.38996753 234.72733951 0.43633187 C243.77607087 0.46199306 252.82471344 0.48119966 261.87348354 0.48370773 C269.58609923 0.48589667 277.29853777 0.50174443 285.01108445 0.53504022 C288.94204184 0.55160244 292.87274001 0.56193312 296.8037318 0.55473357 C300.41301202 0.54827775 304.0217557 0.56058792 307.63094102 0.58693848 C309.53352443 0.59621068 311.43617283 0.58623046 313.33874702 0.57522869 C333.3947504 0.78295013 349.98946226 8.71324276 364.42773998 22.37238914 C377.13531477 35.45632068 383.55141516 52.82206166 383.99023998 70.87238914 C383.65818267 92.35649713 374.86712534 109.26173688 359.79883373 124.09504539 C347.6484177 135.26360961 332.07426368 141.20442444 315.61206615 141.3277114 C314.78039393 141.33760817 313.94872171 141.34750493 313.0918473 141.3577016 C310.25983039 141.38977408 307.42780239 141.41449103 304.59570873 141.43879539 C302.5038592 141.45965304 300.41201151 141.48069624 298.32016551 141.50190574 C292.4574652 141.55913454 286.5947207 141.60814224 280.73192775 141.65481788 C276.98988415 141.684892 273.24786009 141.71684144 269.50583446 141.7490676 C178.60874077 142.51613941 87.70206142 142.20946369 -3.19726002 142.12238914 C-3.84142449 140.06544067 -4.48260756 138.0075584 -5.12255299 135.94929343 C-5.4799355 134.80341254 -5.83731801 133.65753165 -6.20553029 132.4769271 C-7.52816828 128.00308792 -8.48457116 123.5203251 -9.32226002 118.93488914 C-9.55622487 117.74669578 -9.55622487 117.74669578 -9.79491627 116.53449851 C-12.59896194 101.59889992 -13.5802245 86.66983997 -13.50976002 71.49738914 C-13.50793721 70.67400047 -13.50611439 69.85061179 -13.50423634 69.00227195 C-13.4654742 58.54179684 -13.03078365 0.72582505 0 0 Z " fill="#232022" transform="translate(15.197260022163391,176.8776108622551)"/>
<path d="M0 0 C43.53418418 -0.06874107 87.06836258 -0.1215668 130.60259038 -0.15319599 C135.74799979 -0.15694789 140.8934091 -0.16083087 146.03881836 -0.16479492 C147.06313056 -0.16558185 148.08744277 -0.16636878 149.14279474 -0.16717956 C165.70503409 -0.18021581 182.26724206 -0.20385981 198.82946282 -0.23145839 C215.83735959 -0.25956221 232.84523997 -0.27618676 249.85315901 -0.28226548 C260.33889528 -0.28637162 270.82454279 -0.29931718 281.31025172 -0.3237494 C288.51113916 -0.33966808 295.71198103 -0.34438655 302.91288476 -0.34050413 C307.06077238 -0.33859209 311.20850542 -0.34141964 315.3563652 -0.35761642 C347.422832 -0.47667089 347.422832 -0.47667089 361 3 C361.85048888 3.21730176 362.70097776 3.43460352 363.57723904 3.65849018 C383.19445855 9.27101925 409.84652413 22.46037817 420.51171875 40.56640625 C421 43 421 43 419.98046875 45.10546875 C419.38878906 45.79253906 418.79710937 46.47960937 418.1875 47.1875 C417.5171875 47.97640625 416.846875 48.7653125 416.15625 49.578125 C415.08890625 50.77695312 415.08890625 50.77695312 414 52 C413.3915625 52.71671875 412.783125 53.4334375 412.15625 54.171875 C400.86741403 67.16299576 388.58692236 79.6295886 374.66357422 89.78515625 C372.99218631 91.00570603 371.34162497 92.25102809 369.69140625 93.5 C338.67420465 116.65788446 301.17651914 131.99505445 263 138 C261.86836426 138.18256348 260.73672852 138.36512695 259.57080078 138.55322266 C247.6061103 140.27737862 235.697734 140.39719166 223.625 140.375 C222.56373901 140.37478851 221.50247803 140.37457703 220.40905762 140.37435913 C204.25367936 140.34223352 188.81023915 139.57973229 173 136 C171.70666748 135.72712158 171.70666748 135.72712158 170.38720703 135.44873047 C133.0464977 127.51249994 98.93802834 110.40312447 69 87 C67.97777344 86.20464844 66.95554687 85.40929687 65.90234375 84.58984375 C59.48613087 79.47311702 53.71005609 73.8854503 48 68 C45.74049913 65.72327732 43.48209254 63.45463157 41.1484375 61.25390625 C34.69178638 55.0959108 29.3402532 48.11500269 24 41 C23.5148291 40.3591748 23.0296582 39.71834961 22.52978516 39.05810547 C0 9.0754168 0 9.0754168 0 0 Z " fill="#3FBEB0" transform="translate(27,356)"/>
<path d="M0 0 C3.10217004 0.00314401 6.20336802 -0.02032641 9.30541992 -0.0456543 C27.15920353 -0.1031303 44.6572261 1.64910939 62.0065918 6.00317383 C63.56168457 6.38989258 63.56168457 6.38989258 65.14819336 6.78442383 C98.22631279 15.26753923 130.23558058 30.22903578 156.79418945 51.87329102 C158.18052686 52.99990469 159.57843891 54.11227943 160.98071289 55.21899414 C167.61819263 60.52187269 173.7577795 66.19164178 179.73120117 72.21704102 C181.1932234 73.68979906 182.66566668 75.15152428 184.1394043 76.61254883 C190.38929802 82.85461551 196.1103133 89.36520298 201.5690918 96.31567383 C193.47044589 113.69305404 169.00526685 126.75270671 152.00952148 133.30200195 C149.46048505 134.19779237 146.9031297 135.0268149 144.3190918 135.81567383 C143.5648291 136.04673828 142.81056641 136.27780273 142.03344727 136.51586914 C129.87895968 139.92792764 117.44956637 140.61352909 104.89552307 140.55618286 C103.48426913 140.55705773 102.07301552 140.55881385 100.66176361 140.56136119 C96.83047751 140.56578357 92.99930555 140.5579025 89.16803396 140.54780507 C85.01897491 140.53909815 80.86992134 140.54209581 76.72085571 140.54360962 C69.54779623 140.54465393 62.37477337 140.53842506 55.2017231 140.52713394 C44.83093956 140.51081996 34.46017357 140.50566492 24.08937859 140.50315796 C7.25993378 140.49879007 -9.56949154 140.48550566 -26.39892578 140.46655273 C-42.73876855 140.44817041 -59.078606 140.43402544 -75.41845703 140.42553711 C-76.42710768 140.42501166 -77.43575833 140.42448622 -78.47497415 140.42394485 C-83.53551475 140.42133461 -88.5960554 140.41880723 -93.65659606 140.41632104 C-135.58138032 140.39561679 -177.50614314 140.36041606 -219.4309082 140.31567383 C-212.31841598 118.62324054 -196.60142437 99.03216634 -181.4309082 82.31567383 C-180.91753906 81.74204102 -180.40416992 81.1684082 -179.87524414 80.57739258 C-174.73089451 74.8310107 -169.59457577 69.11873014 -163.6574707 64.17114258 C-161.87001372 62.68159509 -160.12757513 61.16481065 -158.3918457 59.61645508 C-124.19755567 29.32190362 -80.40550728 9.59591113 -35.4309082 2.31567383 C-34.37637451 2.13238525 -33.32184082 1.94909668 -32.23535156 1.76025391 C-21.49583975 0.0835773 -10.84988275 -0.02289184 0 0 Z " fill="#EFBF1A" transform="translate(246.430908203125,-0.315673828125)"/>
<path d="M0 0 C76.23 0 152.46 0 231 0 C231 75.9 231 151.8 231 230 C179.97451746 230 130.20032808 215.38524221 90 183 C89.09378906 182.28457031 88.18757812 181.56914062 87.25390625 180.83203125 C80.21563138 175.19142798 73.56490383 169.17762174 67 163 C66.34128906 162.38382813 65.68257812 161.76765625 65.00390625 161.1328125 C59.85479523 156.16207715 55.43930262 150.60180412 51 145 C49.77216797 143.46279297 49.77216797 143.46279297 48.51953125 141.89453125 C33.92713928 123.42935758 22.39571417 102.97947763 14 81 C13.72704102 80.28972656 13.45408203 79.57945312 13.17285156 78.84765625 C3.54244479 53.27767634 0 27.19729903 0 0 Z " fill="#221E20" transform="translate(504,266)"/>
<path d="M0 0 C27.00815806 0 27.00815806 0 40.375 1.25 C41.11226318 1.31624573 41.84952637 1.38249146 42.60913086 1.45074463 C62.05824164 3.20828851 81.02177541 6.06246687 99.82861328 11.40185547 C102.68668149 12.18915782 105.56390966 12.88073952 108.44677734 13.57055664 C114.53104296 15.02832064 120.43806011 16.70128214 126.27734375 18.97265625 C128.59709975 19.84797308 130.91834499 20.64157182 133.2734375 21.4140625 C140.96782276 23.95869369 148.4759106 26.99570521 156 30 C157.78664063 30.7115625 157.78664063 30.7115625 159.609375 31.4375 C169.75019998 35.62713661 179.35570576 40.78644986 189 46 C189 46.66 189 47.32 189 48 C188.34 48 187.68 48 187 48 C186.78214844 48.52851563 186.56429688 49.05703125 186.33984375 49.6015625 C184.50186744 52.89170084 182.04651093 55.56649588 179.5625 58.375 C175.41847874 63.12731796 171.41381546 67.94521191 167.5625 72.9375 C163.13066928 78.66507442 158.46960259 84.15267993 153.69995117 89.60083008 C149.78355403 94.07779696 145.98665677 98.63551893 142.2421875 103.2578125 C139.69746317 106.37000148 137.10381775 109.43726497 134.5 112.5 C131.12711398 116.46899152 127.78823226 120.4601718 124.5 124.5 C121.2117626 128.53983452 117.87268539 132.53083277 114.5 136.5 C108.86214514 143.13770996 103.34635423 149.87058664 97.86328125 156.63671875 C93.14649328 162.43743645 88.32703717 168.13678309 83.44873047 173.80126953 C78.87197218 179.12549201 74.42033759 184.54528725 70 190 C64.76188678 196.44618257 59.46458777 202.83424852 54.08642578 209.16357422 C50.44163292 213.45972273 46.87227136 217.8135055 43.31640625 222.18359375 C40.72212734 225.33785192 38.08393735 228.4520298 35.4375 231.5625 C32.23260809 235.33088939 29.07312306 239.12246028 26 243 C22.49839796 247.41630625 18.88248364 251.72389776 15.22900391 256.0144043 C12.83595302 258.82575948 10.45745946 261.64701026 8.109375 264.49609375 C7.64966309 265.05312988 7.18995117 265.61016602 6.71630859 266.18408203 C5.44158068 267.73166762 4.16992347 269.281781 2.8984375 270.83203125 C2.27195312 271.54746094 1.64546875 272.26289063 1 273 C0.67 273 0.34 273 0 273 C0 182.91 0 92.82 0 0 Z " fill="#221E1F" transform="translate(1019,185)"/>
<path d="M0 0 C18.04103161 7.87707014 34.60998809 19.82896768 50 32 C51.04027344 32.79148437 52.08054687 33.58296875 53.15234375 34.3984375 C54.17457031 35.19507813 55.19679688 35.99171875 56.25 36.8125 C57.61898438 37.87404297 57.61898438 37.87404297 59.015625 38.95703125 C61 41 61 41 61 45 C59.41801116 47.1556446 57.84322403 49.08495911 56.0625 51.0625 C55.04214251 52.229747 54.02262256 53.39772663 53.00390625 54.56640625 C52.49359863 55.14664551 51.98329102 55.72688477 51.45751953 56.32470703 C49.41564301 58.67166795 47.45661197 61.08175545 45.5 63.5 C42.2117626 67.53983452 38.87268539 71.53083277 35.5 75.5 C30.59454156 81.27542544 25.77971335 87.11992099 21 93 C15.76210656 99.44373941 10.4661975 105.83016662 5.09082031 112.15917969 C0.6594004 117.38447188 -3.67844842 122.68355885 -8 128 C-12.73316225 133.82281111 -17.50416573 139.60470548 -22.375 145.3125 C-26.1578153 149.74861488 -29.80532258 154.26600025 -33.375 158.875 C-37.82926201 164.61865365 -42.50929095 170.1273402 -47.29541016 175.59619141 C-51.9900572 180.96410722 -56.51878809 186.45262615 -61 192 C-66.23703825 198.44703987 -71.53542909 204.83426836 -76.91357422 211.16357422 C-79.81219839 214.58020732 -82.67140579 218.02486997 -85.5 221.5 C-88.78824453 225.53984328 -92.12759863 229.53058457 -95.5 233.5 C-103.00756746 242.3507121 -110.31565156 251.28320443 -117.15234375 260.6640625 C-119 263 -119 263 -121 264 C-123.15411574 264.12077053 -125.31191961 264.17746022 -127.46923828 264.20532227 C-128.13277313 264.21522186 -128.79630798 264.22512146 -129.47994995 264.23532104 C-131.67670097 264.26694916 -133.87347363 264.29169854 -136.0703125 264.31640625 C-137.59203661 264.33697466 -139.113755 264.3579711 -140.63546753 264.37937927 C-144.6434465 264.43461171 -148.65147713 264.48401578 -152.6595459 264.53222656 C-156.74833787 264.58243305 -160.83705468 264.63812356 -164.92578125 264.69335938 C-172.95045732 264.80095528 -180.9751962 264.90239704 -189 265 C-191.36982336 227.66336282 -191.36982336 227.66336282 -184.90771484 219.62207031 C-182.63546424 217.39690296 -180.29100316 215.35961328 -177.76171875 213.43164062 C-174.82033011 211.04135473 -172.55754354 208.12672556 -170.1875 205.1875 C-169.28687732 204.11703921 -168.38458647 203.04797925 -167.48046875 201.98046875 C-164.63126703 198.55693975 -161.85620882 195.08032892 -159.08984375 191.58984375 C-156.16779685 187.96869031 -153.15178514 184.43045431 -150.13671875 180.88671875 C-147.21995487 177.45428391 -144.34306574 173.99407185 -141.5 170.5 C-138.19375926 166.4366952 -134.83183571 162.42700691 -131.4375 158.4375 C-128.23260809 154.66911061 -125.07312306 150.87753972 -122 147 C-118.92687192 143.12245393 -115.76726614 139.33100139 -112.5625 135.5625 C-108.49031514 130.77332742 -104.47518393 125.94383037 -100.50390625 121.0703125 C-90.55358926 108.86914377 -80.50037368 96.76101207 -70.26171875 84.80078125 C-64.99334592 78.63074914 -59.89681076 72.3625246 -54.91845703 65.95605469 C-51.74318351 61.89033641 -48.41772502 58.011688 -44.94921875 54.19140625 C-41.9940804 50.86909641 -39.21922234 47.40527229 -36.41796875 43.953125 C-33.81310958 40.77174611 -31.16339784 37.63232217 -28.5 34.5 C-24.3889564 29.66247556 -20.34852703 24.7738222 -16.34375 19.84765625 C-13.12472801 15.93654453 -9.84081057 12.08141592 -6.54101562 8.23828125 C-4.0053914 5.30187796 -4.0053914 5.30187796 -2 2 C-1.34 2 -0.68 2 0 2 C0 1.34 0 0.68 0 0 Z " fill="#36A595" transform="translate(1208,231)"/>
<path d="M0 0 C15.25654206 -0.09383914 30.51307074 -0.1641717 45.76983738 -0.20724869 C52.85536464 -0.22779028 59.9407116 -0.25574785 67.02612305 -0.30175781 C73.20866703 -0.34188543 79.3910803 -0.36749371 85.57375091 -0.37635398 C88.84126393 -0.38152545 92.10832057 -0.39566647 95.37573433 -0.42292023 C121.07421829 -0.62860817 140.35256057 3.0175573 159.625 21.25 C172.33257479 34.33393154 178.74867518 51.69967252 179.1875 69.75 C178.85544269 91.23410799 170.06438537 108.13934774 154.99609375 122.97265625 C144.07375261 133.01238396 128.92117053 140.1361364 113.88102722 140.12025452 C112.87286957 140.12162918 111.86471191 140.12300385 110.82600403 140.12442017 C109.73124252 140.12082489 108.63648102 140.11722961 107.50854492 140.11352539 C105.76643738 140.11374443 105.76643738 140.11374443 103.98913574 140.1139679 C100.15289437 140.11327161 96.31670164 140.10549243 92.48046875 140.09765625 C89.81960467 140.09579106 87.15874328 140.09431844 84.49787903 140.09336853 C78.21170298 140.09026339 71.92554437 140.08206102 65.63937598 140.07201904 C58.48099479 140.06083253 51.32261275 140.05534106 44.16422498 140.05032361 C29.44280775 140.03987772 14.72140418 140.0222941 0 140 C0.14099121 139.11965088 0.28198242 138.23930176 0.42724609 137.33227539 C3.99256252 114.9986778 7.40391739 93.1802425 7.3125 70.5 C7.31100952 69.58168396 7.30951904 68.66336792 7.3079834 67.71722412 C7.24862442 47.31235341 5.11692676 27.83982347 0.76953125 7.88671875 C0 4 0 4 0 0 Z " fill="#09A4DE" transform="translate(220,178)"/>
<path d="M0 0 C61.38 0 122.76 0 186 0 C179.2502172 33.74891398 150.07742346 65.67183414 127 90 C126.21753906 90.825 125.43507813 91.65 124.62890625 92.5 C118.33019761 98.96712331 111.52133897 104.98577402 104 110 C83.00080707 98.68506245 63.46771292 84.28957659 47 67 C44.74220871 64.72139957 42.48218763 62.45472125 40.1484375 60.25390625 C33.69299177 54.09706043 28.33450338 47.11798442 23 40 C22.50951172 39.34854004 22.01902344 38.69708008 21.51367188 38.02587891 C15.31278157 29.72097073 9.77012651 21.19694532 4.75 12.125 C4.27175781 11.26245605 3.79351563 10.39991211 3.30078125 9.51123047 C0 3.39082785 0 3.39082785 0 0 Z " fill="#009B8F" transform="translate(28,357)"/>
<path d="M0 0 C1.69064371 1.64233961 3.35388476 3.31303226 5 5 C6.58675701 6.31299492 8.19188606 7.60403032 9.8125 8.875 C14.80569004 12.91968719 19.55274411 17.17824934 24.25 21.5625 C24.91104736 22.17528809 25.57209473 22.78807617 26.25317383 23.41943359 C30.81018062 27.70656881 34.93377238 32.24997878 39 37 C39.93622269 38.04918239 40.87487024 39.09620814 41.81640625 40.140625 C83 86.4489581 83 86.4489581 83 106 C22.94 106 -37.12 106 -99 106 C-97.96534705 100.82673523 -96.34952777 97.45938471 -93.8125 92.9375 C-93.15580322 91.76525879 -93.15580322 91.76525879 -92.48583984 90.56933594 C-83.89054767 75.56696848 -73.60579284 61.7885002 -62 49 C-61.48663086 48.42636719 -60.97326172 47.85273437 -60.44433594 47.26171875 C-55.29998631 41.51533688 -50.16366757 35.80305631 -44.2265625 30.85546875 C-42.43910551 29.36592126 -40.69666692 27.84913682 -38.9609375 26.30078125 C-9.2638821 0 -9.2638821 0 0 0 Z " fill="#D7A228" transform="translate(127,33)"/>
<path d="M0 0 C15.84 0 31.68 0 48 0 C48 75.9 48 151.8 48 230 C32.16 230 16.32 230 0 230 C0 154.1 0 78.2 0 0 Z " fill="#36A595" transform="translate(735,266)"/>
<path d="M0 0 C69.63 0 139.26 0 211 0 C210.505 114.345 210.505 114.345 210 231 C209.67 231 209.34 231 209 231 C209 155.43 209 79.86 209 2 C158.17675226 2.03935056 158.17675226 2.03935056 107.35351562 2.09008789 C100.87108963 2.09430163 94.38867572 2.09780612 87.90625 2.09765625 C86.64181848 2.09769649 86.64181848 2.09769649 85.35184288 2.09773755 C56.89046691 2.09604341 28.45098977 1.83847629 0 1 C0 0.67 0 0.34 0 0 Z " fill="#45D0C2" transform="translate(735,265)"/>
<path d="M0 0 C0.66 0 1.32 0 2 0 C2.19604511 34.10749413 2.37633496 68.21503126 2.53537826 102.32271778 C2.55415155 106.34584234 2.57305581 110.36896628 2.59204102 114.39208984 C2.59770733 115.59353005 2.59770733 115.59353005 2.60348812 116.81924178 C2.66503442 129.80272823 2.73720027 142.78613516 2.8132638 155.76954375 C2.89102739 169.08331558 2.95744132 182.3971088 3.01323253 195.71099102 C3.04804262 203.93199452 3.09179481 212.15285193 3.14684484 220.37374522 C3.18370481 226.0046383 3.20957956 231.63551376 3.22667392 237.26650129 C3.23687796 240.51944425 3.25368386 243.77212227 3.28024101 247.02497864 C3.30822233 250.54515311 3.31791711 254.06490377 3.32279968 257.58517456 C3.33542916 258.62212302 3.34805863 259.65907148 3.36107081 260.72744262 C3.35858106 261.66497473 3.35609131 262.60250684 3.35352612 263.56844902 C3.3597915 264.78849044 3.3597915 264.78849044 3.36618346 266.03317916 C3.18492265 267.00675548 3.18492265 267.00675548 3 268 C2.01 268.66 1.02 269.32 0 270 C0 180.9 0 91.8 0 0 Z " fill="#1C1718" transform="translate(1019,188)"/>
<path d="M0 0 C0.33 0 0.66 0 1 0 C1 163.35 1 326.7 1 495 C0.67 495 0.34 495 0 495 C0 331.65 0 168.3 0 0 Z " fill="#D89BC1" transform="translate(1016,0)"/>
<path d="M0 0 C104.94 0 209.88 0 318 0 C318 0.33 318 0.66 318 1 C213.06 1 108.12 1 0 1 C0 0.67 0 0.34 0 0 Z " fill="#25B0E2" transform="translate(12,320)"/>
<path d="M0 0 C68.64 0 137.28 0 208 0 C208 0.33 208 0.66 208 1 C139.36 1 70.72 1 0 1 C0 0.67 0 0.34 0 0 Z " fill="#2CBCF8" transform="translate(12,175)"/>
<path d="M0 0 C35.97 0 71.94 0 109 0 C109 0.33 109 0.66 109 1 C73.03 1 37.06 1 0 1 C0 0.67 0 0.34 0 0 Z " fill="#110000" transform="translate(221,175)"/>
<path d="M0 0 C-1.28519565 2.86697492 -2.57129254 4.97607712 -5 7 C-5.66 7 -6.32 7 -7 7 C-7.268125 7.598125 -7.53625 8.19625 -7.8125 8.8125 C-8.98493467 10.97224808 -10.19369282 12.35790256 -12 14 C-12.66 13.67 -13.32 13.34 -14 13 C-12.56354149 11.39490066 -11.12579294 9.79095576 -9.6875 8.1875 C-8.88699219 7.29417969 -8.08648437 6.40085937 -7.26171875 5.48046875 C-2.26456693 0 -2.26456693 0 0 0 Z " fill="#E0A927" transform="translate(82,66)"/>
<path d="M0 0 C0.33 0 0.66 0 1 0 C1 4.29 1 8.58 1 13 C0.67 13 0.34 13 0 13 C0 8.71 0 4.42 0 0 Z " fill="#2E535F" transform="translate(0,258)"/>
<path d="M0 0 C0.33 0 0.66 0 1 0 C1 4.29 1 8.58 1 13 C0.67 13 0.34 13 0 13 C0 8.71 0 4.42 0 0 Z " fill="#2C515E" transform="translate(0,225)"/>
<path d="M0 0 C3.3 0 6.6 0 10 0 C10 0.33 10 0.66 10 1 C6.7 1 3.4 1 0 1 C0 0.67 0 0.34 0 0 Z " fill="#0EDCFF" transform="translate(330,319)"/>
<path d="M0 0 C3.3 0 6.6 0 10 0 C10 0.33 10 0.66 10 1 C6.7 1 3.4 1 0 1 C0 0.67 0 0.34 0 0 Z " fill="#0FDCFF" transform="translate(330,176)"/>
<path d="M0 0 C0.33 0 0.66 0 1 0 C1 2.31 1 4.62 1 7 C0.67 7 0.34 7 0 7 C0 4.69 0 2.38 0 0 Z " fill="#283B46" transform="translate(2,278)"/>
<path d="M0 0 C0.33 0 0.66 0 1 0 C1 2.31 1 4.62 1 7 C0.67 7 0.34 7 0 7 C0 4.69 0 2.38 0 0 Z " fill="#3A3843" transform="translate(1,271)"/>
<path d="M0 0 C0.33 0 0.66 0 1 0 C1 2.31 1 4.62 1 7 C0.67 7 0.34 7 0 7 C0 4.69 0 2.38 0 0 Z " fill="#373843" transform="translate(1,218)"/>
<path d="M0 0 C0.33 0 0.66 0 1 0 C1 2.31 1 4.62 1 7 C0.67 7 0.34 7 0 7 C0 4.69 0 2.38 0 0 Z " fill="#283B46" transform="translate(2,211)"/>
<path d="M0 0 C1.98 0 3.96 0 6 0 C6 0.33 6 0.66 6 1 C4.02 1 2.04 1 0 1 C0 0.67 0 0.34 0 0 Z " fill="#463C3E" transform="translate(695,495)"/>
<path d="M0 0 C1.98 0 3.96 0 6 0 C6 0.33 6 0.66 6 1 C4.02 1 2.04 1 0 1 C0 0.67 0 0.34 0 0 Z " fill="#48E7D8" transform="translate(209,495)"/>
<path d="M0 0 C0.33 0 0.66 0 1 0 C1 1.98 1 3.96 1 6 C0.67 6 0.34 6 0 6 C0 4.02 0 2.04 0 0 Z " fill="#272424" transform="translate(505,303)"/>
<path d="M0 0 C1.98 0 3.96 0 6 0 C6 0.33 6 0.66 6 1 C4.02 1 2.04 1 0 1 C0 0.67 0 0.34 0 0 Z " fill="#F9C81A" transform="translate(209,0)"/>
<path d="M0 0 C1.65 0 3.3 0 5 0 C5 0.33 5 0.66 5 1 C3.35 1 1.7 1 0 1 C0 0.67 0 0.34 0 0 Z " fill="#46DED1" transform="translate(286,495)"/>
<path d="M0 0 C1.65 0 3.3 0 5 0 C5 0.33 5 0.66 5 1 C3.35 1 1.7 1 0 1 C0 0.67 0 0.34 0 0 Z " fill="#211C1C" transform="translate(686,493)"/>
<path d="M0 0 C1.65 0 3.3 0 5 0 C5 0.33 5 0.66 5 1 C3.35 1 1.7 1 0 1 C0 0.67 0 0.34 0 0 Z " fill="#49D2C7" transform="translate(296,493)"/>
<path d="M0 0 C1.65 0 3.3 0 5 0 C5 0.33 5 0.66 5 1 C3.35 1 1.7 1 0 1 C0 0.67 0 0.34 0 0 Z " fill="#49D2C9" transform="translate(200,493)"/>
<path d="M0 0 C0.33 0 0.66 0 1 0 C1 1.65 1 3.3 1 5 C0.67 5 0.34 5 0 5 C0 3.35 0 1.7 0 0 Z " fill="#2E2728" transform="translate(504,298)"/>
<path d="M0 0 C0.33 0 0.66 0 1 0 C1 1.65 1 3.3 1 5 C0.67 5 0.34 5 0 5 C0 3.35 0 1.7 0 0 Z " fill="#2E2829" transform="translate(503,291)"/>
<path d="M0 0 C0.33 0 0.66 0 1 0 C1 1.65 1 3.3 1 5 C0.67 5 0.34 5 0 5 C0 3.35 0 1.7 0 0 Z " fill="#3D6975" transform="translate(3,286)"/>
<path d="M0 0 C0.33 0 0.66 0 1 0 C1 1.65 1 3.3 1 5 C0.67 5 0.34 5 0 5 C0 3.35 0 1.7 0 0 Z " fill="#3D6975" transform="translate(3,205)"/>
<path d="M0 0 C1.65 0 3.3 0 5 0 C5 0.33 5 0.66 5 1 C3.35 1 1.7 1 0 1 C0 0.67 0 0.34 0 0 Z " fill="#F8D41C" transform="translate(296,2)"/>
<path d="M0 0 C1.65 0 3.3 0 5 0 C5 0.33 5 0.66 5 1 C3.35 1 1.7 1 0 1 C0 0.67 0 0.34 0 0 Z " fill="#EFCE1B" transform="translate(200,2)"/>
<path d="M0 0 C1.65 0 3.3 0 5 0 C5 0.33 5 0.66 5 1 C3.35 1 1.7 1 0 1 C0 0.67 0 0.34 0 0 Z " fill="#FAD01D" transform="translate(602,0)"/>
<path d="M0 0 C1.65 0 3.3 0 5 0 C5 0.33 5 0.66 5 1 C3.35 1 1.7 1 0 1 C0 0.67 0 0.34 0 0 Z " fill="#F9CA19" transform="translate(286,0)"/>
<path d="M0 0 C4 1 4 1 4 1 Z " fill="#302A2D" transform="translate(691,494)"/>
<path d="M0 0 C4 1 4 1 4 1 Z " fill="#5EFFFC" transform="translate(292,494)"/>
<path d="M0 0 C4 1 4 1 4 1 Z " fill="#63FFFA" transform="translate(205,494)"/>
<path d="M0 0 C4 1 4 1 4 1 Z " fill="#63EEEA" transform="translate(196,492)"/>
<path d="M0 0 C4 1 4 1 4 1 Z " fill="#59ECE3" transform="translate(179,488)"/>
<path d="M0 0 C1 4 1 4 1 4 Z " fill="#48DCD2" transform="translate(1399,480)"/>
<path d="M0 0 C1 4 1 4 1 4 Z " fill="#49CEC2" transform="translate(1397,473)"/>
<path d="M0 0 C4 1 4 1 4 1 Z " fill="#3FC7B9" transform="translate(388,358)"/>
<path d="M0 0 C4 1 4 1 4 1 Z " fill="#0AE4FF" transform="translate(340,318)"/>
<path d="M0 0 C1 4 1 4 1 4 Z " fill="#262122" transform="translate(507,313)"/>
<path d="M0 0 C1 4 1 4 1 4 Z " fill="#493F42" transform="translate(506,309)"/>
<path d="M0 0 C1 4 1 4 1 4 Z " fill="#324F5B" transform="translate(7,307)"/>
<path d="M0 0 C1 4 1 4 1 4 Z " fill="#0ABDFA" transform="translate(398,263)"/>
<path d="M0 0 C1 4 1 4 1 4 Z " fill="#09BDFA" transform="translate(398,229)"/>
<path d="M0 0 C1 4 1 4 1 4 Z " fill="#324F5B" transform="translate(7,185)"/>
<path d="M0 0 C4 1 4 1 4 1 Z " fill="#0BBDDA" transform="translate(344,178)"/>
<path d="M0 0 C4 1 4 1 4 1 Z " fill="#05E5FF" transform="translate(340,177)"/>
<path d="M0 0 C4 1 4 1 4 1 Z " fill="#FFE720" transform="translate(378,139)"/>
<path d="M0 0 C1 4 1 4 1 4 Z " fill="#FDD71B" transform="translate(735,135)"/>
<path d="M0 0 C1 4 1 4 1 4 Z " fill="#FFE61F" transform="translate(734,129)"/>
<path d="M0 0 C1 4 1 4 1 4 Z " fill="#EFCD1C" transform="translate(733,125)"/>
<path d="M0 0 C1 4 1 4 1 4 Z " fill="#FFE422" transform="translate(732,121)"/>
<path d="M0 0 C4 1 4 1 4 1 Z " fill="#F5D11D" transform="translate(179,7)"/>
<path d="M0 0 C4 1 4 1 4 1 Z " fill="#FFEB21" transform="translate(301,3)"/>
<path d="M0 0 C4 1 4 1 4 1 Z " fill="#FDE722" transform="translate(196,3)"/>
<path d="M0 0 C4 1 4 1 4 1 Z " fill="#FFEA1E" transform="translate(292,1)"/>
<path d="M0 0 C4 1 4 1 4 1 Z " fill="#FFE824" transform="translate(205,1)"/>
<path d="M0 0 C3 1 3 1 3 1 Z " fill="#2E282B" transform="translate(683,492)"/>
<path d="M0 0 C3 1 3 1 3 1 Z " fill="#58F5EF" transform="translate(301,492)"/>
<path d="M0 0 C3 1 3 1 3 1 Z " fill="#3CA89E" transform="translate(183,489)"/>
<path d="M0 0 C3 1 3 1 3 1 Z " fill="#393234" transform="translate(666,488)"/>
<path d="M0 0 C3 1 3 1 3 1 Z " fill="#49E6DA" transform="translate(319,488)"/>
<path d="M0 0 C3 1 3 1 3 1 Z " fill="#2B2626" transform="translate(661,486)"/>
<path d="M0 0 C3 1 3 1 3 1 Z " fill="#43BFB8" transform="translate(174,486)"/>
<path d="M0 0 C3 1 3 1 3 1 Z " fill="#52F6EA" transform="translate(159,481)"/>
<path d="" fill="#4EFBF4" transform="translate(0,0)"/>
<path d="" fill="#59F8F2" transform="translate(0,0)"/>
<path d="" fill="#59F2EC" transform="translate(0,0)"/>
<path d="M0 0 C3 1 3 1 3 1 Z " fill="#44FFF9" transform="translate(385,357)"/>
<path d="M0 0 C3 1 3 1 3 1 Z " fill="#56E9E4" transform="translate(381,356)"/>
<path d="M0 0 C3 1 3 1 3 1 Z " fill="#4AD7CD" transform="translate(376,355)"/>
<path d="" fill="#443B3E" transform="translate(0,0)"/>
<path d="" fill="#272223" transform="translate(0,0)"/>
<path d="" fill="#2A2628" transform="translate(0,0)"/>
<path d="" fill="#383133" transform="translate(0,0)"/>
<path d="M0 0 C3 1 3 1 3 1 Z " fill="#0BDDF8" transform="translate(344,317)"/>
<path d="" fill="#234655" transform="translate(0,0)"/>
<path d="" fill="#344E57" transform="translate(0,0)"/>
<path d="" fill="#0ADDFF" transform="translate(0,0)"/>
<path d="" fill="#0CDEFF" transform="translate(0,0)"/>
<path d="" fill="#0CDEFF" transform="translate(0,0)"/>
<path d="" fill="#0ADDFF" transform="translate(0,0)"/>
<path d="" fill="#354D56" transform="translate(0,0)"/>
<path d="" fill="#234655" transform="translate(0,0)"/>
<path d="M0 0 C3 1 3 1 3 1 Z " fill="#FFE61F" transform="translate(373,140)"/>
<path d="M0 0 C3 1 3 1 3 1 Z " fill="#FFE61D" transform="translate(383,138)"/>
<path d="M0 0 C3 1 3 1 3 1 Z " fill="#F5CC1C" transform="translate(386,137)"/>
<path d="M0 0 C3 1 3 1 3 1 Z " fill="#FFD21B" transform="translate(389,136)"/>
<path d="" fill="#FFED20" transform="translate(0,0)"/>
<path d="M0 0 C3 1 3 1 3 1 Z " fill="#E2C219" transform="translate(174,9)"/>
<path d="M0 0 C3 1 3 1 3 1 Z " fill="#FFDA1B" transform="translate(628,7)"/>
<path d="M0 0 C3 1 3 1 3 1 Z " fill="#FED018" transform="translate(319,7)"/>
<path d="M0 0 C3 1 3 1 3 1 Z " fill="#E8C21D" transform="translate(183,6)"/>
<path d="M0 0 C3 1 3 1 3 1 Z " fill="#FBD41B" transform="translate(611,2)"/>
<path d="M0 0 C3 1 3 1 3 1 Z " fill="#FFED21" transform="translate(607,1)"/>
<path d="M0 0 C2 1 2 1 2 1 Z " fill="#201C1C" transform="translate(670,489)"/>
<path d="M0 0 C2 1 2 1 2 1 Z " fill="#65FFFF" transform="translate(316,489)"/>
<path d="M0 0 C2 1 2 1 2 1 Z " fill="#1B1819" transform="translate(664,487)"/>
<path d="M0 0 C2 1 2 1 2 1 Z " fill="#58FFFF" transform="translate(322,487)"/>
<path d="M0 0 C2 1 2 1 2 1 Z " fill="#63FEF4" transform="translate(177,487)"/>
<path d="M0 0 C2 1 2 1 2 1 Z " fill="#52EFE5" transform="translate(325,486)"/>
<path d="M0 0 C2 1 2 1 2 1 Z " fill="#4EF7E7" transform="translate(328,485)"/>
<path d="M0 0 C2 1 2 1 2 1 Z " fill="#52E7DE" transform="translate(171,485)"/>
<path d="M0 0 C2 1 2 1 2 1 Z " fill="#362F2F" transform="translate(649,482)"/>
<path d="M0 0 C2 1 2 1 2 1 Z " fill="#49C6C0" transform="translate(337,482)"/>
<path d="M0 0 C2 1 2 1 2 1 Z " fill="#282224" transform="translate(647,481)"/>
<path d="M0 0 C2 1 2 1 2 1 Z " fill="#1C1818" transform="translate(645,480)"/>
<path d="M0 0 C2 1 2 1 2 1 Z " fill="#4BE8DD" transform="translate(342,480)"/>
<path d="M0 0 C2 1 2 1 2 1 Z " fill="#5BFFFA" transform="translate(157,480)"/>
<path d="M0 0 C2 1 2 1 2 1 Z " fill="#241B20" transform="translate(643,479)"/>
<path d="M0 0 C2 1 2 1 2 1 Z " fill="#41CABA" transform="translate(344,479)"/>
<path d="M0 0 C2 1 2 1 2 1 Z " fill="#49DED0" transform="translate(155,479)"/>
<path d="M0 0 C2 1 2 1 2 1 Z " fill="#312C2D" transform="translate(641,478)"/>
<path d="M0 0 C2 1 2 1 2 1 Z " fill="#58EAE1" transform="translate(354,475)"/>
<path d="M0 0 C2 1 2 1 2 1 Z " fill="#61FFFF" transform="translate(145,475)"/>
<path d="M0 0 C2 1 2 1 2 1 Z " fill="#49DFD6" transform="translate(356,474)"/>
<path d="M0 0 C2 1 2 1 2 1 Z " fill="#221C1F" transform="translate(630,473)"/>
<path d="M0 0 C2 1 2 1 2 1 Z " fill="#51E9E1" transform="translate(141,473)"/>
<path d="M0 0 C2 1 2 1 2 1 Z " fill="#232224" transform="translate(628,472)"/>
<path d="" fill="#4DE2D9" transform="translate(0,0)"/>
<path d="M0 0 C2 1 2 1 2 1 Z " fill="#44D4CC" transform="translate(368,468)"/>
<path d="M0 0 C2 1 2 1 2 1 Z " fill="#29FFFF" transform="translate(131,468)"/>
<path d="M0 0 C2 1 2 1 2 1 Z " fill="#272323" transform="translate(617,466)"/>
<path d="M0 0 C2 1 2 1 2 1 Z " fill="#1A958A" transform="translate(128,466)"/>
<path d="M0 0 C2 1 2 1 2 1 Z " fill="#302D2E" transform="translate(607,460)"/>
<path d="" fill="#50D8D0" transform="translate(0,0)"/>
<path d="M0 0 C2 1 2 1 2 1 Z " fill="#52EAE0" transform="translate(383,459)"/>
<path d="M0 0 C2 1 2 1 2 1 Z " fill="#29FFF6" transform="translate(116,459)"/>
<path d="" fill="#7BFFFC" transform="translate(0,0)"/>
<path d="" fill="#50EAE2" transform="translate(0,0)"/>
<path d="" fill="#4DFBF1" transform="translate(0,0)"/>
<path d="" fill="#47D6C4" transform="translate(0,0)"/>
<path d="" fill="#51FFF7" transform="translate(0,0)"/>
<path d="" fill="#4EE0D8" transform="translate(0,0)"/>
<path d="" fill="#43CBB8" transform="translate(0,0)"/>
<path d="" fill="#5DFFFF" transform="translate(0,0)"/>
<path d="" fill="#56FFF6" transform="translate(0,0)"/>
<path d="" fill="#40C4B4" transform="translate(0,0)"/>
<path d="" fill="#3EB4AF" transform="translate(0,0)"/>
<path d="" fill="#5DFFFD" transform="translate(0,0)"/>
<path d="" fill="#35E6DD" transform="translate(0,0)"/>
<path d="" fill="#55FFF8" transform="translate(0,0)"/>
<path d="" fill="#342C2F" transform="translate(0,0)"/>
<path d="" fill="#463F41" transform="translate(0,0)"/>
<path d="" fill="#45C9C2" transform="translate(0,0)"/>
<path d="" fill="#58FFFC" transform="translate(0,0)"/>
<path d="" fill="#151314" transform="translate(0,0)"/>
<path d="" fill="#51ECE2" transform="translate(0,0)"/>
<path d="" fill="#333031" transform="translate(0,0)"/>
<path d="M0 0 C2 1 2 1 2 1 Z " fill="#5DFFFF" transform="translate(419,371)"/>
<path d="" fill="#242323" transform="translate(0,0)"/>
<path d="" fill="#0FCBC2" transform="translate(0,0)"/>
<path d="M0 0 C2 1 2 1 2 1 Z " fill="#4EF4EA" transform="translate(404,363)"/>
<path d="M0 0 C2 1 2 1 2 1 Z " fill="#56BDB7" transform="translate(395,360)"/>
<path d="" fill="#3EC2B2" transform="translate(0,0)"/>
<path d="M0 0 C2 1 2 1 2 1 Z " fill="#4FEBE2" transform="translate(392,359)"/>
<path d="" fill="#17161D" transform="translate(0,0)"/>
<path d="" fill="#22FFFA" transform="translate(0,0)"/>
<path d="" fill="#31292A" transform="translate(0,0)"/>
<path d="" fill="#2F2A2B" transform="translate(0,0)"/>
<path d="" fill="#352B2D" transform="translate(0,0)"/>
<path d="" fill="#3FC2BD" transform="translate(0,0)"/>
<path d="" fill="#50DFD7" transform="translate(0,0)"/>
<path d="" fill="#221C1E" transform="translate(0,0)"/>
<path d="" fill="#3A3535" transform="translate(0,0)"/>
<path d="M0 0 C2 1 2 1 2 1 Z " fill="#0BE2FF" transform="translate(355,314)"/>
<path d="M0 0 C2 1 2 1 2 1 Z " fill="#09AEEB" transform="translate(357,313)"/>
<path d="M0 0 C2 1 2 1 2 1 Z " fill="#0DDCFE" transform="translate(359,312)"/>
<path d="" fill="#2A232E" transform="translate(0,0)"/>
<path d="" fill="#23738F" transform="translate(0,0)"/>
<path d="" fill="#08A6D9" transform="translate(0,0)"/>
<path d="" fill="#09B0EA" transform="translate(0,0)"/>
<path d="" fill="#09C5FF" transform="translate(0,0)"/>
<path d="" fill="#0CD2FF" transform="translate(0,0)"/>
<path d="M0 0 C2 1 2 1 2 1 Z " fill="#55E1D5" transform="translate(1236,246)"/>
<path d="M0 0 C2 1 2 1 2 1 Z " fill="#379F96" transform="translate(1225,239)"/>
<path d="M0 0 C2 1 2 1 2 1 Z " fill="#278F82" transform="translate(1222,237)"/>
<path d="M0 0 C2 1 2 1 2 1 Z " fill="#43EBDC" transform="translate(1215,233)"/>
<path d="M0 0 C2 1 2 1 2 1 Z " fill="#2DA8A1" transform="translate(1213,232)"/>
<path d="" fill="#0BD1FF" transform="translate(0,0)"/>
<path d="" fill="#08C3FF" transform="translate(0,0)"/>
<path d="" fill="#08AFE9" transform="translate(0,0)"/>
<path d="" fill="#08A5DA" transform="translate(0,0)"/>
<path d="" fill="#23738F" transform="translate(0,0)"/>
<path d="" fill="#2A232E" transform="translate(0,0)"/>
<path d="M0 0 C2 1 2 1 2 1 Z " fill="#0CDCFF" transform="translate(359,183)"/>
<path d="M0 0 C2 1 2 1 2 1 Z " fill="#0AACE8" transform="translate(357,182)"/>
<path d="M0 0 C2 1 2 1 2 1 Z " fill="#FFCA1A" transform="translate(402,132)"/>
<path d="" fill="#CE9622" transform="translate(0,0)"/>
<path d="" fill="#DEC329" transform="translate(0,0)"/>
<path d="" fill="#DE4890" transform="translate(0,0)"/>
<path d="M0 0 C2 1 2 1 2 1 Z " fill="#FFDD1D" transform="translate(420,122)"/>
<path d="" fill="#FFE61B" transform="translate(0,0)"/>
<path d="" fill="#FFD51B" transform="translate(0,0)"/>
<path d="" fill="#FFEB1E" transform="translate(0,0)"/>
<path d="" fill="#FFCF2E" transform="translate(0,0)"/>
<path d="" fill="#FFE61D" transform="translate(0,0)"/>
<path d="" fill="#FEC918" transform="translate(0,0)"/>
<path d="" fill="#F3C118" transform="translate(0,0)"/>
<path d="" fill="#FFCF1A" transform="translate(0,0)"/>
<path d="" fill="#FDC719" transform="translate(0,0)"/>
<path d="" fill="#E3458D" transform="translate(0,0)"/>
<path d="M0 0 C2 1 2 1 2 1 Z " fill="#FFC818" transform="translate(383,36)"/>
<path d="M0 0 C2 1 2 1 2 1 Z " fill="#F4C71B" transform="translate(128,29)"/>
<path d="M0 0 C2 1 2 1 2 1 Z " fill="#F8CB1C" transform="translate(368,27)"/>
<path d="M0 0 C2 1 2 1 2 1 Z " fill="#FFE723" transform="translate(131,27)"/>
<path d="M0 0 C2 1 2 1 2 1 Z " fill="#EFD21D" transform="translate(659,22)"/>
<path d="M0 0 C2 1 2 1 2 1 Z " fill="#FFD31B" transform="translate(356,21)"/>
<path d="M0 0 C2 1 2 1 2 1 Z " fill="#FFF020" transform="translate(354,20)"/>
<path d="M0 0 C2 1 2 1 2 1 Z " fill="#FFE823" transform="translate(145,20)"/>
<path d="M0 0 C2 1 2 1 2 1 Z " fill="#F2BF1A" transform="translate(344,16)"/>
<path d="M0 0 C2 1 2 1 2 1 Z " fill="#EFBF1A" transform="translate(155,16)"/>
<path d="M0 0 C2 1 2 1 2 1 Z " fill="#FFD91D" transform="translate(342,15)"/>
<path d="M0 0 C2 1 2 1 2 1 Z " fill="#FDE01F" transform="translate(157,15)"/>
<path d="M0 0 C2 1 2 1 2 1 Z " fill="#FFD11A" transform="translate(159,14)"/>
<path d="M0 0 C2 1 2 1 2 1 Z " fill="#FFEB20" transform="translate(643,13)"/>
<path d="M0 0 C2 1 2 1 2 1 Z " fill="#FFCC19" transform="translate(328,10)"/>
<path d="M0 0 C2 1 2 1 2 1 Z " fill="#FFE11B" transform="translate(171,10)"/>
<path d="M0 0 C2 1 2 1 2 1 Z " fill="#EFBD1A" transform="translate(633,9)"/>
<path d="M0 0 C2 1 2 1 2 1 Z " fill="#F8CE17" transform="translate(325,9)"/>
<path d="M0 0 C2 1 2 1 2 1 Z " fill="#FFE620" transform="translate(631,8)"/>
<path d="M0 0 C2 1 2 1 2 1 Z " fill="#FFEC20" transform="translate(322,8)"/>
<path d="M0 0 C2 1 2 1 2 1 Z " fill="#FCE01C" transform="translate(177,8)"/>
<path d="M0 0 C2 1 2 1 2 1 Z " fill="#FFD81C" transform="translate(626,6)"/>
<path d="M0 0 C2 1 2 1 2 1 Z " fill="#FFE922" transform="translate(316,6)"/>
<path d="M0 0 C2 1 2 1 2 1 Z " fill="#FFE016" transform="translate(615,3)"/>
<path d="" fill="#453D3E" transform="translate(0,0)"/>
<path d="" fill="#58FFF6" transform="translate(0,0)"/>
<path d="" fill="#4BEED8" transform="translate(0,0)"/>
<path d="" fill="#2A2427" transform="translate(0,0)"/>
<path d="" fill="#3B3335" transform="translate(0,0)"/>
<path d="" fill="#49E5D3" transform="translate(0,0)"/>
<path d="" fill="#57FFFE" transform="translate(0,0)"/>
<path d="" fill="#6AFFFF" transform="translate(0,0)"/>
<path d="" fill="#43DECB" transform="translate(0,0)"/>
<path d="" fill="#30B4A4" transform="translate(0,0)"/>
<path d="" fill="#5AFFFB" transform="translate(0,0)"/>
<path d="" fill="#211D1F" transform="translate(0,0)"/>
<path d="" fill="#2EA999" transform="translate(0,0)"/>
<path d="" fill="#000000" transform="translate(0,0)"/>
<path d="" fill="#353231" transform="translate(0,0)"/>
<path d="" fill="#3BDDCA" transform="translate(0,0)"/>
<path d="" fill="#3EE1CC" transform="translate(0,0)"/>
<path d="" fill="#57FFFF" transform="translate(0,0)"/>
<path d="" fill="#49FDE7" transform="translate(0,0)"/>
<path d="" fill="#2A2727" transform="translate(0,0)"/>
<path d="" fill="#45ECD8" transform="translate(0,0)"/>
<path d="" fill="#4DFFF5" transform="translate(0,0)"/>
<path d="" fill="#221D20" transform="translate(0,0)"/>
<path d="" fill="#53FFF5" transform="translate(0,0)"/>
<path d="" fill="#5CFFFF" transform="translate(0,0)"/>
<path d="" fill="#463F40" transform="translate(0,0)"/>
<path d="" fill="#59FFFF" transform="translate(0,0)"/>
<path d="" fill="#292627" transform="translate(0,0)"/>
<path d="" fill="#49FFEB" transform="translate(0,0)"/>
<path d="" fill="#10BEAD" transform="translate(0,0)"/>
<path d="" fill="#53FFF8" transform="translate(0,0)"/>
<path d="" fill="#151210" transform="translate(0,0)"/>
<path d="" fill="#59FFFF" transform="translate(0,0)"/>
<path d="" fill="#0DD3C2" transform="translate(0,0)"/>
<path d="" fill="#423739" transform="translate(0,0)"/>
<path d="" fill="#44DBCA" transform="translate(0,0)"/>
<path d="" fill="#36FFFF" transform="translate(0,0)"/>
<path d="" fill="#41393A" transform="translate(0,0)"/>
<path d="" fill="#41D3C1" transform="translate(0,0)"/>
<path d="" fill="#00DED0" transform="translate(0,0)"/>
<path d="" fill="#1E1B1A" transform="translate(0,0)"/>
<path d="" fill="#56FFFF" transform="translate(0,0)"/>
<path d="" fill="#34FFFF" transform="translate(0,0)"/>
<path d="" fill="#45FFF1" transform="translate(0,0)"/>
<path d="" fill="#02E8D4" transform="translate(0,0)"/>
<path d="" fill="#2C2626" transform="translate(0,0)"/>
<path d="" fill="#000103" transform="translate(0,0)"/>
<path d="" fill="#52FFFB" transform="translate(0,0)"/>
<path d="" fill="#42D4BE" transform="translate(0,0)"/>
<path d="" fill="#5C4D4D" transform="translate(0,0)"/>
<path d="" fill="#49DBCA" transform="translate(0,0)"/>
<path d="" fill="#00FFF2" transform="translate(0,0)"/>
<path d="" fill="#2E2629" transform="translate(0,0)"/>
<path d="" fill="#58FFFE" transform="translate(0,0)"/>
<path d="" fill="#15DBC9" transform="translate(0,0)"/>
<path d="" fill="#000000" transform="translate(0,0)"/>
<path d="" fill="#45CEBD" transform="translate(0,0)"/>
<path d="" fill="#008377" transform="translate(0,0)"/>
<path d="" fill="#483B3E" transform="translate(0,0)"/>
<path d="" fill="#5AFFFF" transform="translate(0,0)"/>
<path d="" fill="#4CFFFF" transform="translate(0,0)"/>
<path d="" fill="#3B3231" transform="translate(0,0)"/>
<path d="" fill="#49FFEA" transform="translate(0,0)"/>
<path d="" fill="#03FFE9" transform="translate(0,0)"/>
<path d="" fill="#201B1E" transform="translate(0,0)"/>
<path d="" fill="#61FFFF" transform="translate(0,0)"/>
<path d="" fill="#0FF0DD" transform="translate(0,0)"/>
<path d="" fill="#59FFFF" transform="translate(0,0)"/>
<path d="" fill="#4CFFF0" transform="translate(0,0)"/>
<path d="" fill="#31292A" transform="translate(0,0)"/>
<path d="" fill="#45F8E1" transform="translate(0,0)"/>
<path d="" fill="#14C8BA" transform="translate(0,0)"/>
<path d="" fill="#262021" transform="translate(0,0)"/>
<path d="" fill="#59FFFF" transform="translate(0,0)"/>
<path d="" fill="#00B1A1" transform="translate(0,0)"/>
<path d="" fill="#51474A" transform="translate(0,0)"/>
<path d="" fill="#53F9E5" transform="translate(0,0)"/>
<path d="" fill="#008777" transform="translate(0,0)"/>
<path d="" fill="#59FFFF" transform="translate(0,0)"/>
<path d="" fill="#3C3639" transform="translate(0,0)"/>
<path d="" fill="#6FFFFF" transform="translate(0,0)"/>
<path d="" fill="#41393A" transform="translate(0,0)"/>
<path d="" fill="#4BE9D8" transform="translate(0,0)"/>
<path d="" fill="#68FFFF" transform="translate(0,0)"/>
<path d="" fill="#352629" transform="translate(0,0)"/>
<path d="" fill="#57FFFF" transform="translate(0,0)"/>
<path d="" fill="#16F2DF" transform="translate(0,0)"/>
<path d="" fill="#211C1D" transform="translate(0,0)"/>
<path d="" fill="#45DECA" transform="translate(0,0)"/>
<path d="" fill="#0CFFE6" transform="translate(0,0)"/>
<path d="" fill="#30292A" transform="translate(0,0)"/>
<path d="" fill="#4FFFEF" transform="translate(0,0)"/>
<path d="" fill="#16FFF9" transform="translate(0,0)"/>
<path d="" fill="#453E3F" transform="translate(0,0)"/>
<path d="" fill="#57FFEE" transform="translate(0,0)"/>
<path d="" fill="#19F8DF" transform="translate(0,0)"/>
<path d="" fill="#3D3738" transform="translate(0,0)"/>
<path d="" fill="#49E7D4" transform="translate(0,0)"/>
<path d="" fill="#16EAD8" transform="translate(0,0)"/>
<path d="" fill="#3C3838" transform="translate(0,0)"/>
<path d="" fill="#00D4C3" transform="translate(0,0)"/>
<path d="" fill="#302D2E" transform="translate(0,0)"/>
<path d="" fill="#272223" transform="translate(0,0)"/>
<path d="" fill="#4CEFDA" transform="translate(0,0)"/>
<path d="" fill="#1BFFFD" transform="translate(0,0)"/>
<path d="" fill="#53FFF9" transform="translate(0,0)"/>
<path d="" fill="#40FFFF" transform="translate(0,0)"/>
<path d="" fill="#252121" transform="translate(0,0)"/>
<path d="" fill="#38C9B6" transform="translate(0,0)"/>
<path d="" fill="#2DFFFF" transform="translate(0,0)"/>
<path d="" fill="#2E2929" transform="translate(0,0)"/>
<path d="" fill="#3DE7D5" transform="translate(0,0)"/>
<path d="" fill="#34FFFF" transform="translate(0,0)"/>
<path d="" fill="#302C2B" transform="translate(0,0)"/>
<path d="" fill="#23FFFF" transform="translate(0,0)"/>
<path d="" fill="#332C2D" transform="translate(0,0)"/>
<path d="" fill="#4CFFFC" transform="translate(0,0)"/>
<path d="" fill="#19FFF0" transform="translate(0,0)"/>
<path d="" fill="#0DE3D0" transform="translate(0,0)"/>
<path d="" fill="#221E20" transform="translate(0,0)"/>
<path d="" fill="#31B3A1" transform="translate(0,0)"/>
<path d="" fill="#11D4C1" transform="translate(0,0)"/>
<path d="" fill="#4FFDE6" transform="translate(0,0)"/>
<path d="" fill="#259E8D" transform="translate(0,0)"/>
<path d="" fill="#00FFF5" transform="translate(0,0)"/>
<path d="" fill="#312E2E" transform="translate(0,0)"/>
<path d="" fill="#35C0AF" transform="translate(0,0)"/>
<path d="" fill="#00F1DC" transform="translate(0,0)"/>
<path d="" fill="#3C3638" transform="translate(0,0)"/>
<path d="" fill="#1DEAD6" transform="translate(0,0)"/>
<path d="" fill="#3E3838" transform="translate(0,0)"/>
<path d="" fill="#0DECD5" transform="translate(0,0)"/>
<path d="" fill="#403839" transform="translate(0,0)"/>
<path d="" fill="#52FFF7" transform="translate(0,0)"/>
<path d="" fill="#0DFFEE" transform="translate(0,0)"/>
<path d="" fill="#362C2F" transform="translate(0,0)"/>
<path d="" fill="#3AC7B6" transform="translate(0,0)"/>
<path d="" fill="#15F0D9" transform="translate(0,0)"/>
<path d="" fill="#39353A" transform="translate(0,0)"/>
<path d="" fill="#48E2D3" transform="translate(0,0)"/>
<path d="" fill="#1DFFEA" transform="translate(0,0)"/>
<path d="" fill="#25231F" transform="translate(0,0)"/>
<path d="" fill="#4CFFFF" transform="translate(0,0)"/>
<path d="" fill="#2CFFFF" transform="translate(0,0)"/>
<path d="" fill="#4FFFFC" transform="translate(0,0)"/>
<path d="" fill="#2FFFFF" transform="translate(0,0)"/>
<path d="" fill="#3AFFFF" transform="translate(0,0)"/>
<path d="" fill="#393635" transform="translate(0,0)"/>
<path d="" fill="#40FFFF" transform="translate(0,0)"/>
<path d="" fill="#342E2E" transform="translate(0,0)"/>
<path d="" fill="#272A26" transform="translate(0,0)"/>
<path d="" fill="#3B3033" transform="translate(0,0)"/>
<path d="" fill="#3ABEAF" transform="translate(0,0)"/>
<path d="" fill="#3E3A39" transform="translate(0,0)"/>
<path d="" fill="#328A7F" transform="translate(0,0)"/>
<path d="" fill="#0BEED9" transform="translate(0,0)"/>
<path d="" fill="#4CDAC9" transform="translate(0,0)"/>
<path d="" fill="#1AFFFF" transform="translate(0,0)"/>
<path d="" fill="#4DFFF1" transform="translate(0,0)"/>
<path d="" fill="#29FFFF" transform="translate(0,0)"/>
<path d="" fill="#58FFFC" transform="translate(0,0)"/>
<path d="" fill="#44FFFF" transform="translate(0,0)"/>
<path d="" fill="#261F22" transform="translate(0,0)"/>
<path d="" fill="#4EF3E0" transform="translate(0,0)"/>
<path d="" fill="#3A3939" transform="translate(0,0)"/>
<path d="" fill="#4EFFEC" transform="translate(0,0)"/>
<path d="" fill="#00998A" transform="translate(0,0)"/>
<path d="" fill="#38BEAB" transform="translate(0,0)"/>
<path d="" fill="#0E2A2A" transform="translate(0,0)"/>
<path d="" fill="#59FFFF" transform="translate(0,0)"/>
<path d="" fill="#563D41" transform="translate(0,0)"/>
<path d="" fill="#68FFFF" transform="translate(0,0)"/>
<path d="" fill="#4CFFFD" transform="translate(0,0)"/>
<path d="" fill="#03EDDB" transform="translate(0,0)"/>
<path d="" fill="#16E3CD" transform="translate(0,0)"/>
<path d="" fill="#5FFFFF" transform="translate(0,0)"/>
<path d="" fill="#0EFEE7" transform="translate(0,0)"/>
<path d="" fill="#12FFE9" transform="translate(0,0)"/>
<path d="" fill="#5DFFFF" transform="translate(0,0)"/>
<path d="" fill="#413A3E" transform="translate(0,0)"/>
<path d="" fill="#45FFFB" transform="translate(0,0)"/>
<path d="" fill="#4BE8D7" transform="translate(0,0)"/>
<path d="" fill="#008679" transform="translate(0,0)"/>
<path d="" fill="#332B2D" transform="translate(0,0)"/>
<path d="" fill="#41C6B8" transform="translate(0,0)"/>
<path d="" fill="#393234" transform="translate(0,0)"/>
<path d="" fill="#204E47" transform="translate(0,0)"/>
<path d="" fill="#4EFFFF" transform="translate(0,0)"/>
<path d="" fill="#28FFFF" transform="translate(0,0)"/>
<path d="" fill="#2B2625" transform="translate(0,0)"/>
<path d="" fill="#30B2A1" transform="translate(0,0)"/>
<path d="" fill="#00AC9C" transform="translate(0,0)"/>
<path d="" fill="#10E1CF" transform="translate(0,0)"/>
<path d="" fill="#51FFFF" transform="translate(0,0)"/>
<path d="" fill="#1FB19E" transform="translate(0,0)"/>
<path d="" fill="#1DFFFF" transform="translate(0,0)"/>
<path d="" fill="#286059" transform="translate(0,0)"/>
<path d="" fill="#433C40" transform="translate(0,0)"/>
<path d="" fill="#49CDBD" transform="translate(0,0)"/>
<path d="" fill="#53FFF6" transform="translate(0,0)"/>
<path d="" fill="#372F31" transform="translate(0,0)"/>
<path d="" fill="#58FFFF" transform="translate(0,0)"/>
<path d="" fill="#40D6C3" transform="translate(0,0)"/>
<path d="" fill="#52FFFF" transform="translate(0,0)"/>
<path d="" fill="#272224" transform="translate(0,0)"/>
<path d="" fill="#69FFFF" transform="translate(0,0)"/>
<path d="" fill="#14E3CD" transform="translate(0,0)"/>
<path d="" fill="#4DFFF7" transform="translate(0,0)"/>
<path d="" fill="#1DFFFF" transform="translate(0,0)"/>
<path d="" fill="#221F20" transform="translate(0,0)"/>
<path d="" fill="#47FFF0" transform="translate(0,0)"/>
<path d="" fill="#60FFFF" transform="translate(0,0)"/>
<path d="" fill="#00B7A6" transform="translate(0,0)"/>
<path d="" fill="#59FFFF" transform="translate(0,0)"/>
<path d="" fill="#4CEFDD" transform="translate(0,0)"/>
<path d="" fill="#1BFFFB" transform="translate(0,0)"/>
<path d="" fill="#5FFFF4" transform="translate(0,0)"/>
<path d="" fill="#3B3537" transform="translate(0,0)"/>
<path d="" fill="#3ED0BC" transform="translate(0,0)"/>
<path d="" fill="#00BBAC" transform="translate(0,0)"/>
<path d="" fill="#52FFFF" transform="translate(0,0)"/>
<path d="" fill="#292628" transform="translate(0,0)"/>
<path d="" fill="#42FBE2" transform="translate(0,0)"/>
<path d="" fill="#5BFFFF" transform="translate(0,0)"/>
<path d="" fill="#46E5D1" transform="translate(0,0)"/>
<path d="" fill="#64FFFF" transform="translate(0,0)"/>
<path d="" fill="#00FCE2" transform="translate(0,0)"/>
<path d="" fill="#3E3737" transform="translate(0,0)"/>
<path d="" fill="#57FFF8" transform="translate(0,0)"/>
<path d="" fill="#53FFFF" transform="translate(0,0)"/>
<path d="" fill="#007E73" transform="translate(0,0)"/>
<path d="" fill="#221F1E" transform="translate(0,0)"/>
<path d="" fill="#47EDD9" transform="translate(0,0)"/>
<path d="" fill="#00B9A8" transform="translate(0,0)"/>
<path d="" fill="#4EEEDA" transform="translate(0,0)"/>
<path d="" fill="#4FFBE6" transform="translate(0,0)"/>
<path d="" fill="#47DCC9" transform="translate(0,0)"/>
<path d="" fill="#4DFEEB" transform="translate(0,0)"/>
<path d="" fill="#5AFFFF" transform="translate(0,0)"/>
<path d="" fill="#007167" transform="translate(0,0)"/>
<path d="" fill="#46E8D8" transform="translate(0,0)"/>
<path d="" fill="#38302F" transform="translate(0,0)"/>
<path d="" fill="#5BFFFF" transform="translate(0,0)"/>
<path d="" fill="#52FFF7" transform="translate(0,0)"/>
<path d="" fill="#44D9C9" transform="translate(0,0)"/>
<path d="" fill="#4BFFED" transform="translate(0,0)"/>
<path d="" fill="#231E1E" transform="translate(0,0)"/>
<path d="" fill="#4BEFDA" transform="translate(0,0)"/>
<path d="" fill="#53F6E5" transform="translate(0,0)"/>
<path d="" fill="#46D2C1" transform="translate(0,0)"/>
<path d="" fill="#302A2A" transform="translate(0,0)"/>
<path d="" fill="#59FFFF" transform="translate(0,0)"/>
<path d="" fill="#47EBD5" transform="translate(0,0)"/>
<path d="" fill="#55FFFF" transform="translate(0,0)"/>
<path d="" fill="#5DFFFF" transform="translate(0,0)"/>
<path d="" fill="#3BE8D3" transform="translate(0,0)"/>
<path d="" fill="#5DFFFF" transform="translate(0,0)"/>
<path d="" fill="#58FFFF" transform="translate(0,0)"/>
<path d="" fill="#5DFFFF" transform="translate(0,0)"/>
<path d="" fill="#58FFFA" transform="translate(0,0)"/>
<path d="" fill="#4DFFF2" transform="translate(0,0)"/>
<path d="" fill="#51FFF0" transform="translate(0,0)"/>
<path d="" fill="#2EA89C" transform="translate(0,0)"/>
<path d="" fill="#0CEBFF" transform="translate(0,0)"/>
<path d="" fill="#49FFE9" transform="translate(0,0)"/>
<path d="" fill="#56FFF6" transform="translate(0,0)"/>
<path d="" fill="#51FFEF" transform="translate(0,0)"/>
<path d="" fill="#59FFFF" transform="translate(0,0)"/>
<path d="" fill="#06AEED" transform="translate(0,0)"/>
<path d="" fill="#08C0FF" transform="translate(0,0)"/>
<path d="" fill="#08B8FD" transform="translate(0,0)"/>
<path d="" fill="#4AFFF7" transform="translate(0,0)"/>
<path d="" fill="#07A9E4" transform="translate(0,0)"/>
<path d="" fill="#52FFFF" transform="translate(0,0)"/>
<path d="" fill="#0393D3" transform="translate(0,0)"/>
<path d="" fill="#07CCFF" transform="translate(0,0)"/>
<path d="" fill="#07C0FF" transform="translate(0,0)"/>
<path d="" fill="#08BBFF" transform="translate(0,0)"/>
<path d="" fill="#40D7C2" transform="translate(0,0)"/>
<path d="" fill="#03B8FF" transform="translate(0,0)"/>
<path d="" fill="#38C2B0" transform="translate(0,0)"/>
<path d="" fill="#08C7FF" transform="translate(0,0)"/>
<path d="" fill="#4BEED8" transform="translate(0,0)"/>
<path d="" fill="#0893CE" transform="translate(0,0)"/>
<path d="" fill="#53FFF0" transform="translate(0,0)"/>
<path d="" fill="#04C7FF" transform="translate(0,0)"/>
<path d="" fill="#59FFFF" transform="translate(0,0)"/>
<path d="" fill="#57FFFD" transform="translate(0,0)"/>
<path d="" fill="#53FFEB" transform="translate(0,0)"/>
<path d="" fill="#49E3CF" transform="translate(0,0)"/>
<path d="" fill="#0EDCFF" transform="translate(0,0)"/>
<path d="" fill="#47E4CE" transform="translate(0,0)"/>
<path d="" fill="#54FFF4" transform="translate(0,0)"/>
<path d="" fill="#07ACEC" transform="translate(0,0)"/>
<path d="" fill="#5AFFFF" transform="translate(0,0)"/>
<path d="" fill="#59FFFF" transform="translate(0,0)"/>
<path d="" fill="#4FFCE6" transform="translate(0,0)"/>
<path d="" fill="#44E2CD" transform="translate(0,0)"/>
<path d="" fill="#3ECBBA" transform="translate(0,0)"/>
<path d="" fill="#4CF8E6" transform="translate(0,0)"/>
<path d="" fill="#0AB0F8" transform="translate(0,0)"/>
<path d="" fill="#09B3FF" transform="translate(0,0)"/>
<path d="" fill="#34A999" transform="translate(0,0)"/>
<path d="" fill="#298673" transform="translate(0,0)"/>
<path d="" fill="#02291E" transform="translate(0,0)"/>
<path d="" fill="#237B6D" transform="translate(0,0)"/>
<path d="" fill="#34AD9B" transform="translate(0,0)"/>
<path d="" fill="#47DDC9" transform="translate(0,0)"/>
<path d="" fill="#4DFFEA" transform="translate(0,0)"/>
<path d="" fill="#50FFF7" transform="translate(0,0)"/>
<path d="" fill="#4BF7D8" transform="translate(0,0)"/>
<path d="" fill="#58FFFF" transform="translate(0,0)"/>
<path d="" fill="#47FFE4" transform="translate(0,0)"/>
<path d="" fill="#5BFFFF" transform="translate(0,0)"/>
<path d="" fill="#55FFF8" transform="translate(0,0)"/>
<path d="" fill="#50FFFD" transform="translate(0,0)"/>
<path d="" fill="#60FFFF" transform="translate(0,0)"/>
<path d="" fill="#39AE9B" transform="translate(0,0)"/>
<path d="" fill="#51FFFC" transform="translate(0,0)"/>
<path d="" fill="#46F4DB" transform="translate(0,0)"/>
<path d="" fill="#59FFFE" transform="translate(0,0)"/>
<path d="" fill="#53FFF7" transform="translate(0,0)"/>
<path d="" fill="#4EFDE5" transform="translate(0,0)"/>
<path d="" fill="#55FFE7" transform="translate(0,0)"/>
<path d="" fill="#43EED6" transform="translate(0,0)"/>
<path d="" fill="#4CE6CC" transform="translate(0,0)"/>
<path d="" fill="#4FE5CA" transform="translate(0,0)"/>
<path d="" fill="#45FFF5" transform="translate(0,0)"/>
<path d="" fill="#37D1B7" transform="translate(0,0)"/>
<path d="" fill="#96AABB" transform="translate(0,0)"/>
<path d="" fill="#FF4E9E" transform="translate(0,0)"/>
<path d="" fill="#FF4B97" transform="translate(0,0)"/>
<path d="" fill="#FF4D9C" transform="translate(0,0)"/>
<path d="" fill="#FF4993" transform="translate(0,0)"/>
<path d="" fill="#FF50A1" transform="translate(0,0)"/>
<path d="" fill="#DF3F80" transform="translate(0,0)"/>
<path d="" fill="#FF60C3" transform="translate(0,0)"/>
<path d="" fill="#069DDF" transform="translate(0,0)"/>
<path d="" fill="#FF70E2" transform="translate(0,0)"/>
<path d="" fill="#DE3F80" transform="translate(0,0)"/>
<path d="" fill="#09B3FF" transform="translate(0,0)"/>
<path d="" fill="#0AB0F8" transform="translate(0,0)"/>
<path d="" fill="#FF51E4" transform="translate(0,0)"/>
<path d="" fill="#FF338E" transform="translate(0,0)"/>
<path d="" fill="#E14C81" transform="translate(0,0)"/>
<path d="" fill="#FF52A6" transform="translate(0,0)"/>
<path d="" fill="#07ACEC" transform="translate(0,0)"/>
<path d="" fill="#F4478D" transform="translate(0,0)"/>
<path d="" fill="#0EDCFF" transform="translate(0,0)"/>
<path d="" fill="#FF51A5" transform="translate(0,0)"/>
<path d="" fill="#FF54B5" transform="translate(0,0)"/>
<path d="" fill="#FB4E94" transform="translate(0,0)"/>
<path d="" fill="#FA4895" transform="translate(0,0)"/>
<path d="" fill="#04C8FF" transform="translate(0,0)"/>
<path d="" fill="#0798C5" transform="translate(0,0)"/>
<path d="" fill="#09C4FF" transform="translate(0,0)"/>
<path d="" fill="#FF4E9B" transform="translate(0,0)"/>
<path d="" fill="#FF52A3" transform="translate(0,0)"/>
<path d="" fill="#08BBFF" transform="translate(0,0)"/>
<path d="" fill="#FF51A1" transform="translate(0,0)"/>
<path d="" fill="#07C0FF" transform="translate(0,0)"/>
<path d="" fill="#FF4B94" transform="translate(0,0)"/>
<path d="" fill="#09CCFF" transform="translate(0,0)"/>
<path d="" fill="#FF4E99" transform="translate(0,0)"/>
<path d="" fill="#0595D6" transform="translate(0,0)"/>
<path d="" fill="#0BA9E3" transform="translate(0,0)"/>
<path d="" fill="#06B7FD" transform="translate(0,0)"/>
<path d="" fill="#FF4D9A" transform="translate(0,0)"/>
<path d="" fill="#09C7FF" transform="translate(0,0)"/>
<path d="" fill="#DF4282" transform="translate(0,0)"/>
<path d="" fill="#08ADED" transform="translate(0,0)"/>
<path d="" fill="#601530" transform="translate(0,0)"/>
<path d="" fill="#0BE1FF" transform="translate(0,0)"/>
<path d="" fill="#0DF3FF" transform="translate(0,0)"/>
<path d="" fill="#F9468C" transform="translate(0,0)"/>
<path d="" fill="#EB458A" transform="translate(0,0)"/>
<path d="" fill="#FF5AAF" transform="translate(0,0)"/>
<path d="" fill="#FF51A4" transform="translate(0,0)"/>
<path d="" fill="#FB4890" transform="translate(0,0)"/>
<path d="" fill="#FF55A6" transform="translate(0,0)"/>
<path d="" fill="#FD4B96" transform="translate(0,0)"/>
<path d="" fill="#FF58AF" transform="translate(0,0)"/>
<path d="" fill="#FF58AD" transform="translate(0,0)"/>
<path d="" fill="#FF56B1" transform="translate(0,0)"/>
<path d="" fill="#FF49A0" transform="translate(0,0)"/>
<path d="" fill="#FF4DAC" transform="translate(0,0)"/>
<path d="" fill="#FF59C8" transform="translate(0,0)"/>
<path d="" fill="#FF5BBC" transform="translate(0,0)"/>
<path d="" fill="#F4458A" transform="translate(0,0)"/>
<path d="" fill="#FF4D99" transform="translate(0,0)"/>
<path d="" fill="#FF4D9E" transform="translate(0,0)"/>
<path d="" fill="#F5478E" transform="translate(0,0)"/>
<path d="" fill="#FF4B97" transform="translate(0,0)"/>
<path d="" fill="#FF4D9E" transform="translate(0,0)"/>
<path d="" fill="#FF50A7" transform="translate(0,0)"/>
<path d="" fill="#FF52A6" transform="translate(0,0)"/>
<path d="" fill="#F64B92" transform="translate(0,0)"/>
<path d="" fill="#E74386" transform="translate(0,0)"/>
<path d="" fill="#D6498B" transform="translate(0,0)"/>
<path d="" fill="#FFD731" transform="translate(0,0)"/>
<path d="" fill="#F93C8A" transform="translate(0,0)"/>
<path d="" fill="#FFD51A" transform="translate(0,0)"/>
<path d="" fill="#FFFF25" transform="translate(0,0)"/>
<path d="" fill="#FFDE33" transform="translate(0,0)"/>
<path d="" fill="#FF53A5" transform="translate(0,0)"/>
<path d="" fill="#D8992A" transform="translate(0,0)"/>
<path d="" fill="#FF50A8" transform="translate(0,0)"/>
<path d="" fill="#FFC61F" transform="translate(0,0)"/>
<path d="" fill="#FF4B95" transform="translate(0,0)"/>
<path d="" fill="#FFCF1B" transform="translate(0,0)"/>
<path d="" fill="#EBAB29" transform="translate(0,0)"/>
<path d="" fill="#FFCA19" transform="translate(0,0)"/>
<path d="" fill="#FFFF22" transform="translate(0,0)"/>
<path d="" fill="#FF65BB" transform="translate(0,0)"/>
<path d="" fill="#E94184" transform="translate(0,0)"/>
<path d="" fill="#FFE21D" transform="translate(0,0)"/>
<path d="" fill="#DCA529" transform="translate(0,0)"/>
<path d="" fill="#FF4B98" transform="translate(0,0)"/>
<path d="" fill="#FFD61B" transform="translate(0,0)"/>
<path d="" fill="#FFD51D" transform="translate(0,0)"/>
<path d="" fill="#FA4D92" transform="translate(0,0)"/>
<path d="" fill="#F4C01A" transform="translate(0,0)"/>
<path d="" fill="#F2B32D" transform="translate(0,0)"/>
<path d="" fill="#FF50A6" transform="translate(0,0)"/>
<path d="" fill="#FFCB2D" transform="translate(0,0)"/>
<path d="" fill="#FFE11B" transform="translate(0,0)"/>
<path d="" fill="#F9B82C" transform="translate(0,0)"/>
<path d="" fill="#F0B917" transform="translate(0,0)"/>
<path d="" fill="#FF69BD" transform="translate(0,0)"/>
<path d="" fill="#FFFF1B" transform="translate(0,0)"/>
<path d="" fill="#FFD42F" transform="translate(0,0)"/>
<path d="" fill="#FF56AD" transform="translate(0,0)"/>
<path d="" fill="#FFFF2B" transform="translate(0,0)"/>
<path d="" fill="#F9BA29" transform="translate(0,0)"/>
<path d="" fill="#F9498F" transform="translate(0,0)"/>
<path d="" fill="#9A740B" transform="translate(0,0)"/>
<path d="" fill="#FF4694" transform="translate(0,0)"/>
<path d="" fill="#FFCB19" transform="translate(0,0)"/>
<path d="" fill="#F84790" transform="translate(0,0)"/>
<path d="" fill="#FF4B95" transform="translate(0,0)"/>
<path d="" fill="#FFE118" transform="translate(0,0)"/>
<path d="" fill="#FF4D9A" transform="translate(0,0)"/>
<path d="" fill="#FFD91A" transform="translate(0,0)"/>
<path d="" fill="#FFBB2B" transform="translate(0,0)"/>
<path d="" fill="#FF55AB" transform="translate(0,0)"/>
<path d="" fill="#FFD81A" transform="translate(0,0)"/>
<path d="" fill="#FFDB31" transform="translate(0,0)"/>
<path d="" fill="#FF53A9" transform="translate(0,0)"/>
<path d="" fill="#FFD61D" transform="translate(0,0)"/>
<path d="" fill="#FFCF14" transform="translate(0,0)"/>
<path d="" fill="#FFCF2A" transform="translate(0,0)"/>
<path d="" fill="#EF4488" transform="translate(0,0)"/>
<path d="" fill="#FFDE13" transform="translate(0,0)"/>
<path d="" fill="#FFC12D" transform="translate(0,0)"/>
<path d="" fill="#E1B01C" transform="translate(0,0)"/>
<path d="" fill="#E0B620" transform="translate(0,0)"/>
<path d="" fill="#FF56B0" transform="translate(0,0)"/>
<path d="" fill="#FD458E" transform="translate(0,0)"/>
<path d="" fill="#FFD523" transform="translate(0,0)"/>
<path d="" fill="#DC3D7B" transform="translate(0,0)"/>
<path d="" fill="#FFBE2B" transform="translate(0,0)"/>
<path d="" fill="#FF4D9C" transform="translate(0,0)"/>
<path d="" fill="#FFCA1B" transform="translate(0,0)"/>
<path d="" fill="#FFC12E" transform="translate(0,0)"/>
<path d="" fill="#FF5DBA" transform="translate(0,0)"/>
<path d="" fill="#F3B128" transform="translate(0,0)"/>
<path d="" fill="#FFDA18" transform="translate(0,0)"/>
<path d="" fill="#FFDF1B" transform="translate(0,0)"/>
<path d="" fill="#5C3A04" transform="translate(0,0)"/>
<path d="" fill="#FF509B" transform="translate(0,0)"/>
<path d="" fill="#FFDD1E" transform="translate(0,0)"/>
<path d="" fill="#FFCE14" transform="translate(0,0)"/>
<path d="" fill="#FF4890" transform="translate(0,0)"/>
<path d="" fill="#FFD11A" transform="translate(0,0)"/>
<path d="" fill="#FF4D9D" transform="translate(0,0)"/>
<path d="" fill="#FFCF19" transform="translate(0,0)"/>
<path d="" fill="#FF53AC" transform="translate(0,0)"/>
<path d="" fill="#F3B425" transform="translate(0,0)"/>
<path d="" fill="#FFEF19" transform="translate(0,0)"/>
<path d="" fill="#F9B526" transform="translate(0,0)"/>
<path d="" fill="#FFFF1E" transform="translate(0,0)"/>
<path d="" fill="#FFCA2B" transform="translate(0,0)"/>
<path d="" fill="#FFE620" transform="translate(0,0)"/>
<path d="" fill="#FFBC2A" transform="translate(0,0)"/>
<path d="" fill="#C8528B" transform="translate(0,0)"/>
<path d="" fill="#DDAF17" transform="translate(0,0)"/>
<path d="" fill="#FFBD2D" transform="translate(0,0)"/>
<path d="" fill="#FF499F" transform="translate(0,0)"/>
<path d="" fill="#ECBA17" transform="translate(0,0)"/>
<path d="" fill="#FFD61C" transform="translate(0,0)"/>
<path d="" fill="#C81B40" transform="translate(0,0)"/>
<path d="" fill="#FFD624" transform="translate(0,0)"/>
<path d="" fill="#FF397D" transform="translate(0,0)"/>
<path d="" fill="#FFD52D" transform="translate(0,0)"/>
<path d="" fill="#FF69D2" transform="translate(0,0)"/>
<path d="" fill="#FFCC2D" transform="translate(0,0)"/>
<path d="" fill="#FF468D" transform="translate(0,0)"/>
<path d="" fill="#FFDA19" transform="translate(0,0)"/>
<path d="" fill="#FFFF0B" transform="translate(0,0)"/>
<path d="" fill="#FFC82B" transform="translate(0,0)"/>
<path d="" fill="#FFFF0E" transform="translate(0,0)"/>
<path d="" fill="#FFC52C" transform="translate(0,0)"/>
<path d="" fill="#FFD312" transform="translate(0,0)"/>
<path d="" fill="#FFE620" transform="translate(0,0)"/>
<path d="" fill="#FFBF2B" transform="translate(0,0)"/>
<path d="" fill="#FF5099" transform="translate(0,0)"/>
<path d="" fill="#FFFF1E" transform="translate(0,0)"/>
<path d="" fill="#F0B616" transform="translate(0,0)"/>
<path d="" fill="#FFBB24" transform="translate(0,0)"/>
<path d="" fill="#FF509C" transform="translate(0,0)"/>
<path d="" fill="#FFFF32" transform="translate(0,0)"/>
<path d="" fill="#FF4F9A" transform="translate(0,0)"/>
<path d="" fill="#EDBA15" transform="translate(0,0)"/>
<path d="" fill="#FFD831" transform="translate(0,0)"/>
<path d="" fill="#FF4F9D" transform="translate(0,0)"/>
<path d="" fill="#FFF018" transform="translate(0,0)"/>
<path d="" fill="#FFBA2D" transform="translate(0,0)"/>
<path d="" fill="#FF52A0" transform="translate(0,0)"/>
<path d="" fill="#EEB718" transform="translate(0,0)"/>
<path d="" fill="#FFE834" transform="translate(0,0)"/>
<path d="" fill="#E2B019" transform="translate(0,0)"/>
<path d="" fill="#FFFF3B" transform="translate(0,0)"/>
<path d="" fill="#E4B419" transform="translate(0,0)"/>
<path d="" fill="#FFE433" transform="translate(0,0)"/>
<path d="" fill="#FF4A94" transform="translate(0,0)"/>
<path d="" fill="#FFE236" transform="translate(0,0)"/>
<path d="" fill="#FF4B95" transform="translate(0,0)"/>
<path d="" fill="#FFFF20" transform="translate(0,0)"/>
<path d="" fill="#FFC717" transform="translate(0,0)"/>
<path d="" fill="#FFCB2D" transform="translate(0,0)"/>
<path d="" fill="#FF4EA3" transform="translate(0,0)"/>
<path d="" fill="#FFC31E" transform="translate(0,0)"/>
<path d="" fill="#FFC92C" transform="translate(0,0)"/>
<path d="" fill="#FFC717" transform="translate(0,0)"/>
<path d="" fill="#FFC42B" transform="translate(0,0)"/>
<path d="" fill="#FF5097" transform="translate(0,0)"/>
<path d="" fill="#F8C119" transform="translate(0,0)"/>
<path d="" fill="#EEB91D" transform="translate(0,0)"/>
<path d="" fill="#FFC62C" transform="translate(0,0)"/>
<path d="" fill="#FF4E9A" transform="translate(0,0)"/>
<path d="" fill="#FFE81D" transform="translate(0,0)"/>
<path d="" fill="#FFDC0D" transform="translate(0,0)"/>
<path d="" fill="#FFC42B" transform="translate(0,0)"/>
<path d="" fill="#B23667" transform="translate(0,0)"/>
<path d="" fill="#FFE01C" transform="translate(0,0)"/>
<path d="" fill="#E6B41C" transform="translate(0,0)"/>
<path d="" fill="#FFC22C" transform="translate(0,0)"/>
<path d="" fill="#FF4FA0" transform="translate(0,0)"/>
<path d="" fill="#FFCB29" transform="translate(0,0)"/>
<path d="" fill="#F8C01A" transform="translate(0,0)"/>
<path d="" fill="#FFCE32" transform="translate(0,0)"/>
<path d="" fill="#FFE620" transform="translate(0,0)"/>
<path d="" fill="#FFD330" transform="translate(0,0)"/>
<path d="" fill="#FA4991" transform="translate(0,0)"/>
<path d="" fill="#FFDE1A" transform="translate(0,0)"/>
<path d="" fill="#FEB92B" transform="translate(0,0)"/>
<path d="" fill="#F3478E" transform="translate(0,0)"/>
<path d="" fill="#F5BD19" transform="translate(0,0)"/>
<path d="" fill="#F6B628" transform="translate(0,0)"/>
<path d="" fill="#FF50A7" transform="translate(0,0)"/>
<path d="" fill="#C89910" transform="translate(0,0)"/>
<path d="" fill="#FFD01B" transform="translate(0,0)"/>
<path d="" fill="#FFBE29" transform="translate(0,0)"/>
<path d="" fill="#FF52BA" transform="translate(0,0)"/>
<path d="" fill="#7AED3B" transform="translate(0,0)"/>
<path d="" fill="#EE3D83" transform="translate(0,0)"/>
<path d="" fill="#CEA315" transform="translate(0,0)"/>
<path d="" fill="#FFE619" transform="translate(0,0)"/>
<path d="" fill="#FFD929" transform="translate(0,0)"/>
<path d="" fill="#F5BE1A" transform="translate(0,0)"/>
<path d="" fill="#FFFB0C" transform="translate(0,0)"/>
<path d="" fill="#D09C26" transform="translate(0,0)"/>
<path d="" fill="#FF4E9D" transform="translate(0,0)"/>
<path d="" fill="#FFFF05" transform="translate(0,0)"/>
<path d="" fill="#D0962B" transform="translate(0,0)"/>
<path d="" fill="#EB4287" transform="translate(0,0)"/>
<path d="" fill="#EEBB17" transform="translate(0,0)"/>
<path d="" fill="#F2B920" transform="translate(0,0)"/>
<path d="" fill="#EAA92A" transform="translate(0,0)"/>
<path d="" fill="#F7C11A" transform="translate(0,0)"/>
<path d="" fill="#FFCC2A" transform="translate(0,0)"/>
<path d="" fill="#FFC81A" transform="translate(0,0)"/>
<path d="" fill="#FFCF1A" transform="translate(0,0)"/>
<path d="" fill="#FFCB1A" transform="translate(0,0)"/>
<path d="" fill="#FFFF24" transform="translate(0,0)"/>
<path d="" fill="#F54692" transform="translate(0,0)"/>
<path d="" fill="#FCC319" transform="translate(0,0)"/>
<path d="" fill="#FFFF1F" transform="translate(0,0)"/>
<path d="" fill="#E7A92E" transform="translate(0,0)"/>
<path d="" fill="#F2BB1A" transform="translate(0,0)"/>
<path d="" fill="#EFB617" transform="translate(0,0)"/>
<path d="" fill="#FCB82B" transform="translate(0,0)"/>
<path d="" fill="#EAB817" transform="translate(0,0)"/>
<path d="" fill="#FFD81B" transform="translate(0,0)"/>
<path d="" fill="#FFDF25" transform="translate(0,0)"/>
<path d="" fill="#EAB81A" transform="translate(0,0)"/>
<path d="" fill="#FFE720" transform="translate(0,0)"/>
<path d="" fill="#DB3D7D" transform="translate(0,0)"/>
<path d="" fill="#FFFF18" transform="translate(0,0)"/>
<path d="" fill="#FFBE2C" transform="translate(0,0)"/>
<path d="" fill="#FF50A8" transform="translate(0,0)"/>
<path d="" fill="#FF54A8" transform="translate(0,0)"/>
<path d="" fill="#FDDB1F" transform="translate(0,0)"/>
<path d="" fill="#FFC538" transform="translate(0,0)"/>
<path d="" fill="#FF4B99" transform="translate(0,0)"/>
<path d="" fill="#FFD11E" transform="translate(0,0)"/>
<path d="" fill="#FFD02C" transform="translate(0,0)"/>
<path d="" fill="#FF50A2" transform="translate(0,0)"/>
<path d="" fill="#A6810F" transform="translate(0,0)"/>
<path d="" fill="#FFC72B" transform="translate(0,0)"/>
<path d="" fill="#FFD117" transform="translate(0,0)"/>
<path d="" fill="#FFC230" transform="translate(0,0)"/>
<path d="" fill="#F5BE18" transform="translate(0,0)"/>
<path d="" fill="#FFD228" transform="translate(0,0)"/>
<path d="" fill="#FF4C98" transform="translate(0,0)"/>
<path d="" fill="#FFB113" transform="translate(0,0)"/>
<path d="" fill="#FFCB19" transform="translate(0,0)"/>
<path d="" fill="#FEB731" transform="translate(0,0)"/>
<path d="" fill="#F1458A" transform="translate(0,0)"/>
<path d="" fill="#FF4A99" transform="translate(0,0)"/>
<path d="" fill="#FFCE19" transform="translate(0,0)"/>
<path d="" fill="#E1AD22" transform="translate(0,0)"/>
<path d="" fill="#FFBD2D" transform="translate(0,0)"/>
<path d="" fill="#FF499C" transform="translate(0,0)"/>
<path d="" fill="#FFD11A" transform="translate(0,0)"/>
<path d="" fill="#FFFF00" transform="translate(0,0)"/>
<path d="" fill="#FFCF1B" transform="translate(0,0)"/>
<path d="" fill="#FFD51A" transform="translate(0,0)"/>
<path d="" fill="#FFC620" transform="translate(0,0)"/>
<path d="" fill="#FF6BD3" transform="translate(0,0)"/>
<path d="" fill="#FFDF1E" transform="translate(0,0)"/>
<path d="" fill="#FFCD15" transform="translate(0,0)"/>
<path d="" fill="#F9C11A" transform="translate(0,0)"/>
<path d="" fill="#FFFF1F" transform="translate(0,0)"/>
<path d="" fill="#FFC719" transform="translate(0,0)"/>
<path d="" fill="#FFDE1D" transform="translate(0,0)"/>
<path d="" fill="#FFF21F" transform="translate(0,0)"/>
<path d="" fill="#FFE719" transform="translate(0,0)"/>
<path d="" fill="#F3BA1B" transform="translate(0,0)"/>
<path d="" fill="#FFD61C" transform="translate(0,0)"/>
<path d="" fill="#FF58DF" transform="translate(0,0)"/>
<path d="" fill="#D8A414" transform="translate(0,0)"/>
<path d="" fill="#FFFF07" transform="translate(0,0)"/>
<path d="" fill="#FFD319" transform="translate(0,0)"/>
<path d="" fill="#FF4FA7" transform="translate(0,0)"/>
<path d="" fill="#FFE21B" transform="translate(0,0)"/>
<path d="" fill="#FFFF02" transform="translate(0,0)"/>
<path d="" fill="#FB3B8B" transform="translate(0,0)"/>
<path d="" fill="#FFDD16" transform="translate(0,0)"/>
<path d="" fill="#F4C516" transform="translate(0,0)"/>
<path d="" fill="#F9428D" transform="translate(0,0)"/>
<path d="" fill="#FFFF1F" transform="translate(0,0)"/>
<path d="" fill="#FF539F" transform="translate(0,0)"/>
<path d="" fill="#FFFF20" transform="translate(0,0)"/>
<path d="" fill="#F8D612" transform="translate(0,0)"/>
<path d="" fill="#FFCB1E" transform="translate(0,0)"/>
<path d="" fill="#FEC615" transform="translate(0,0)"/>
<path d="" fill="#D7A619" transform="translate(0,0)"/>
<path d="" fill="#FFD51B" transform="translate(0,0)"/>
<path d="" fill="#FFD20C" transform="translate(0,0)"/>
<path d="" fill="#FF4A96" transform="translate(0,0)"/>
<path d="" fill="#FFFF20" transform="translate(0,0)"/>
<path d="" fill="#FF55AF" transform="translate(0,0)"/>
<path d="" fill="#EBB014" transform="translate(0,0)"/>
<path d="" fill="#F5BE18" transform="translate(0,0)"/>
<path d="" fill="#FF4BA5" transform="translate(0,0)"/>
<path d="" fill="#FFF11F" transform="translate(0,0)"/>
<path d="" fill="#FFFF1A" transform="translate(0,0)"/>
<path d="" fill="#D73F7E" transform="translate(0,0)"/>
<path d="" fill="#FFC01C" transform="translate(0,0)"/>
<path d="" fill="#FFEA1D" transform="translate(0,0)"/>
<path d="" fill="#FFFF25" transform="translate(0,0)"/>
<path d="" fill="#FFC919" transform="translate(0,0)"/>
<path d="" fill="#FF54AA" transform="translate(0,0)"/>
<path d="" fill="#FFDA1E" transform="translate(0,0)"/>
<path d="" fill="#FFF11F" transform="translate(0,0)"/>
<path d="" fill="#FFD61F" transform="translate(0,0)"/>
<path d="" fill="#FF58B1" transform="translate(0,0)"/>
<path d="" fill="#FF74E6" transform="translate(0,0)"/>
</svg>
