<?xml version="1.0" encoding="UTF-8"?>
<svg version="1.1" xmlns="http://www.w3.org/2000/svg" width="360" height="152">
<path d="M0 0 C118.8 0 237.6 0 360 0 C360 50.16 360 100.32 360 152 C241.2 152 122.4 152 0 152 C0 101.84 0 51.68 0 0 Z " fill="#F9F9F9" transform="translate(0,0)"/>
<path d="M0 0 C1.80339757 1.63769673 3.51260333 3.33704096 5.21171188 5.08274746 C5.86301071 5.73170986 6.51430954 6.38067226 7.1853447 7.04930019 C9.32506906 9.18741575 11.44645925 11.34277491 13.56791306 13.49900723 C15.05425082 14.99213735 16.54162724 16.48423419 18.02999496 17.97534084 C21.93836799 21.89710848 25.83107105 25.83409094 29.7211113 29.77403164 C32.90297521 32.99132725 36.09600558 36.19741075 39.28965855 39.40299797 C43.09465985 43.22277989 46.89441725 47.04775727 50.69291306 50.87400723 C51.41885981 51.60486475 52.14480656 52.33572227 52.89275169 53.088727 C54.94201889 55.15425708 56.98766066 57.22330287 59.03202438 59.29368496 C59.640336 59.90625652 60.24864761 60.51882809 60.87539291 61.14996243 C67.13172755 67.50300656 67.13172755 67.50300656 67.67338181 71.56541348 C66.88468065 78.26937326 61.50382365 82.83413287 56.90922165 87.38499355 C56.27786804 88.01824551 55.64651443 88.65149746 54.9960289 89.30393887 C52.9219698 91.38168266 50.84083449 93.45217276 48.75931931 95.52244473 C47.31214656 96.96842465 45.86534407 98.41477521 44.41889572 99.86147976 C41.39417973 102.88463508 38.36614349 105.90441061 35.33549118 108.92161465 C31.44522019 112.79484319 27.56161787 116.67467537 23.68023872 120.55681229 C20.69692474 123.53985489 17.71101596 126.52028839 14.72421265 129.49983692 C13.29063621 130.93022601 11.8576692 132.36122614 10.42531586 133.79284 C8.42896694 135.7870291 6.42936546 137.77789556 4.4287529 139.76780605 C3.83442963 140.36258251 3.24010635 140.95735897 2.62777328 141.57015896 C-0.83421734 145.00500187 -2.44389976 146.57943507 -7.32661819 147.25291348 C-17.11494044 147.02045252 -27.1574574 132.46133671 -33.75630569 125.86619473 C-35.10764372 124.51807477 -36.45905486 123.1700281 -37.81053543 121.82205105 C-40.62789062 119.01065354 -43.44320201 116.19722752 -46.25728226 113.38255215 C-49.86356701 109.77616523 -53.47671598 106.17673977 -57.09161568 102.57899094 C-59.87795234 99.80375983 -62.65974534 97.02400882 -65.44026947 94.24295521 C-66.77112538 92.91327884 -68.10360199 91.58522256 -69.43772888 90.25882816 C-71.29723408 88.40910619 -73.15031351 86.55317331 -75.00191116 84.69554043 C-75.5525473 84.1505238 -76.10318344 83.60550716 -76.67050552 83.04397488 C-80.16529592 79.52012548 -82.27085478 76.85886793 -83.26411819 72.00291348 C-81.85621419 63.86835702 -71.92453632 56.84337075 -66.26802444 51.22166348 C-65.39008728 50.34514126 -64.51215012 49.46861904 -63.6076088 48.56553555 C-60.82880323 45.79228552 -58.04652423 43.02255065 -55.26411819 40.25291348 C-53.36841955 38.36280542 -51.47352037 36.47189829 -49.57857132 34.58103848 C-44.95556631 29.96900344 -40.32971162 25.35984206 -35.70161819 20.75291348 C-28.96782517 24.02625953 -23.05783725 29.6658013 -18.70161819 35.75291348 C-17.60728419 39.07035258 -17.20810995 41.71736013 -17.17036819 45.19431973 C-17.01568069 46.03865566 -16.86099319 46.8829916 -16.70161819 47.75291348 C-15.88064651 48.27103603 -15.05967484 48.78915859 -14.21382523 49.32298183 C-10.98328889 52.44771732 -11.08959234 54.16382017 -11.00688553 58.50706387 C-11.01700668 59.39256924 -11.02712784 60.27807461 -11.03755569 61.19041348 C-11.03277206 62.10750088 -11.02798843 63.02458828 -11.02305984 63.96946621 C-11.01966132 65.9060885 -11.02886048 67.84276819 -11.04976273 69.77928066 C-11.07652999 72.74314731 -11.05001443 75.70322708 -11.01802444 78.66697598 C-11.02132855 80.54979683 -11.02773481 82.43261533 -11.03755569 84.31541348 C-11.02237396 85.64367153 -11.02237396 85.64367153 -11.00688553 86.99876308 C-11.12457673 93.17916809 -11.12457673 93.17916809 -14.1806221 96.21775723 C-15.01255081 96.72435879 -15.84447952 97.23096035 -16.70161819 97.75291348 C-18.2985086 100.94669429 -18.07510776 104.27812663 -17.70161819 107.75291348 C-16.03091243 111.59553673 -14.5605961 113.22597977 -10.70161819 114.75291348 C-6.46978795 114.97642564 -2.80721694 114.44391269 0.79838181 112.19041348 C2.86794362 108.82737552 3.5004978 105.64551788 3.29838181 101.75291348 C1.79555383 97.69527795 0.9167944 96.16518854 -2.70161819 93.75291348 C-2.9681052 90.70216263 -3.04918965 87.85665169 -2.99458694 84.80760098 C-2.9903421 83.92258907 -2.98609726 83.03757717 -2.98172379 82.12574673 C-2.96490079 79.29282903 -2.92724244 76.46061695 -2.88911819 73.62791348 C-2.87407602 71.70995498 -2.8603868 69.79198536 -2.84810257 67.87400723 C-2.81498547 63.16670317 -2.76317875 58.45992804 -2.70161819 53.75291348 C-2.04161819 53.75291348 -1.38161819 53.75291348 -0.70161819 53.75291348 C-0.70161819 54.41291348 -0.70161819 55.07291348 -0.70161819 55.75291348 C-0.14989944 55.98881191 0.40181931 56.22471035 0.97025681 56.46775723 C5.91597255 59.1978587 9.90900903 63.27432828 13.29838181 67.75291348 C13.78479285 70.27340705 13.65061132 72.17339224 13.34525681 74.70603848 C13.28729821 77.23689729 13.85117896 78.2463464 15.36088181 80.25291348 C18.86228714 83.23283291 20.73376914 83.75291348 25.29838181 83.75291348 C28.82553976 82.7909613 30.96117764 81.54081817 33.29838181 78.75291348 C34.25042957 75.75994894 34.49038556 72.88364143 34.29838181 69.75291348 C32.10366031 65.46028729 32.10366031 65.46028729 28.29838181 62.75291348 C26.93398588 62.71433893 25.56934179 62.68428084 24.20463181 62.65916348 C18.06661093 62.0197863 14.91906051 58.56018895 10.79838181 54.25291348 C10.08424118 53.56971035 9.37010056 52.88650723 8.63431931 52.18260098 C4.38533206 47.86899035 2.4651555 44.84853337 2.44877243 38.7158041 C2.43447646 36.42674602 2.43447646 36.42674602 0.29838181 33.75291348 C-2.84679338 31.65613002 -3.34366404 31.61656946 -6.85396194 31.63181973 C-13.11568716 31.05449754 -16.2057704 27.14432657 -20.26411819 22.69041348 C-20.98663773 21.93180019 -21.70915726 21.17318691 -22.45357132 20.39158535 C-24.2225265 18.52891069 -25.97004732 16.65027644 -27.70161819 14.75291348 C-25.68890001 10.32841403 -22.73639074 7.45640974 -19.32661819 4.06541348 C-18.74911819 3.47180019 -18.17161819 2.87818691 -17.57661819 2.26658535 C-17.01200882 1.70133144 -16.44739944 1.13607754 -15.86568069 0.55369473 C-15.35472855 0.03976162 -14.8437764 -0.47417149 -14.31734085 -1.00367832 C-9.78093391 -4.49475124 -4.40090298 -3.22534562 0 0 Z " fill="#DE4C36" transform="translate(82.70161819458008,4.247086524963379)"/>
<path d="M0 0 C24.75 0 49.5 0 75 0 C75 4.29 75 8.58 75 13 C76.32 13.33 77.64 13.66 79 14 C79 21.59 79 29.18 79 37 C85.93 37 92.86 37 100 37 C100 41.62 100 46.24 100 51 C93.07 51 86.14 51 79 51 C79.0510353 56.76698881 79.11394232 62.53127036 79.20751953 68.29736328 C79.23573553 70.25853747 79.25694694 72.21982551 79.27099609 74.18115234 C79.29241699 77.00156977 79.33906209 79.82061743 79.390625 82.640625 C79.39185364 83.51680481 79.39308228 84.39298462 79.39434814 85.29571533 C79.49337743 90.28446657 79.49337743 90.28446657 81.90600586 94.55834961 C84.30725512 96.21153568 85.43029794 96.46096156 88.3125 96.3125 C89.09109375 96.27769531 89.8696875 96.24289063 90.671875 96.20703125 C93.81299058 95.92770386 96.8907289 95.52923763 100 95 C101.32 98.63 102.64 102.26 104 106 C97.7927521 112.2072479 88.69128144 113.26725413 80.1875 113.4375 C73.68490397 113.22342276 68.32126275 112.95555067 63.26171875 108.453125 C54.65816442 99.17196377 55.85004889 86.86279899 56 75 C52.37 75 48.74 75 45 75 C45 79.95 45 84.9 45 90 C43.02 90 41.04 90 39 90 C39 93.63 39 97.26 39 101 C41.64 101 44.28 101 47 101 C47 104.96 47 108.92 47 113 C33.8 113 20.6 113 7 113 C7 109.04 7 105.08 7 101 C9.64 100.67 12.28 100.34 15 100 C15.33 84.49 15.66 68.98 16 53 C13.03 52.01 10.06 51.02 7 50 C7.33 46.04 7.66 42.08 8 38 C15.26 37.67 22.52 37.34 30 37 C30 34.69 30 32.38 30 30 C34.95 30 39.9 30 45 30 C45 25.05 45 20.1 45 15 C43.35 15 41.7 15 40 15 C39.505 13.515 39.505 13.515 39 12 C38.91363281 12.59167969 38.82726562 13.18335938 38.73828125 13.79296875 C37.75513293 19.32205056 36.60183823 22.40832138 32 26 C26.79691428 27.73436191 22.66794144 27.76981912 17.75 25.5 C14.2221284 22.292844 12.8886843 19.35850222 11 15 C7.37 15 3.74 15 0 15 C0 10.05 0 5.1 0 0 Z " fill="#FFFFFF" transform="translate(255,0)"/>
<path d="M0 0 C1.93746094 -0.00386719 1.93746094 -0.00386719 3.9140625 -0.0078125 C7.375 0.125 7.375 0.125 9.17041016 0.61352539 C12.15928803 1.3069583 15.04351577 1.34727899 18.109375 1.44140625 C19.40488281 1.48330078 20.70039063 1.52519531 22.03515625 1.56835938 C23.39843476 1.60816671 24.76171606 1.64787906 26.125 1.6875 C27.50391875 1.73072274 28.88282526 1.77433821 30.26171875 1.81835938 C33.6327119 1.92443958 37.00377826 2.0264985 40.375 2.125 C40.375 6.085 40.375 10.045 40.375 14.125 C36.745 14.455 33.115 14.785 29.375 15.125 C29.22340761 17.37785136 29.22340761 17.37785136 30.875 20.0625 C33.65732763 26.46584733 33.3328537 33.49538905 30.8125 39.9375 C27.51962256 46.44180562 22.03110678 50.37573851 15.375 53.125 C12.02955249 53.92500579 8.94669843 54.24481741 5.51171875 54.22265625 C4.18237305 54.21782227 4.18237305 54.21782227 2.82617188 54.21289062 C1.4581543 54.20032227 1.4581543 54.20032227 0.0625 54.1875 C-0.86884766 54.18298828 -1.80019531 54.17847656 -2.75976562 54.17382812 C-5.04824373 54.16209234 -7.33658808 54.14567363 -9.625 54.125 C-10.945 56.435 -12.265 58.745 -13.625 61.125 C-13.00238281 61.10179687 -12.37976563 61.07859375 -11.73828125 61.0546875 C24.13567159 60.3542198 24.13567159 60.3542198 34.45703125 68.8359375 C38.80636304 73.66400136 39.74189479 77.96145667 39.6484375 84.36328125 C39.03396151 90.5694887 36.86291592 96.14647708 32.3125 100.5 C27.82602161 103.90088512 22.71923763 105.53472614 17.375 107.125 C16.69050781 107.351875 16.00601563 107.57875 15.30078125 107.8125 C1.61075819 111.68551242 -17.17481709 110.39399213 -29.5546875 103.52734375 C-32.70934779 101.39050782 -34.15895064 99.65684618 -35.625 96.125 C-36.58448264 90.58235758 -36.20368939 86.45025881 -33.125 81.6875 C-32.42890625 80.76130859 -32.42890625 80.76130859 -31.71875 79.81640625 C-30.35349499 78.04084279 -30.35349499 78.04084279 -30.625 75.125 C-31.099375 74.7125 -31.57375 74.3 -32.0625 73.875 C-34.55245032 71.08625564 -34.56368837 68.80369755 -34.625 65.125 C-32.011041 58.87422849 -27.5238846 54.70284119 -22.625 50.125 C-23.73875 49.073125 -23.73875 49.073125 -24.875 48 C-30.50733668 42.11164802 -33.64647095 36.49927383 -33.9375 28.3125 C-33.71602853 20.10575154 -31.377112 13.92398434 -25.71875 7.91796875 C-18.05322656 1.35364923 -9.83104308 -0.01970149 0 0 Z " fill="#2F2709" transform="translate(214.625,37.875)"/>
<path d="M0 0 C4.62 0 9.24 0 14 0 C14 7.26 14 14.52 14 22 C20.93 22 27.86 22 35 22 C35 26.62 35 31.24 35 36 C28.07 36 21.14 36 14 36 C14.0510353 41.76698881 14.11394232 47.53127036 14.20751953 53.29736328 C14.23573553 55.25853747 14.25694694 57.21982551 14.27099609 59.18115234 C14.29241699 62.00156977 14.33906209 64.82061743 14.390625 67.640625 C14.39185364 68.51680481 14.39308228 69.39298462 14.39434814 70.29571533 C14.49337743 75.28446657 14.49337743 75.28446657 16.90600586 79.55834961 C19.30725512 81.21153568 20.43029794 81.46096156 23.3125 81.3125 C24.09109375 81.27769531 24.8696875 81.24289063 25.671875 81.20703125 C28.81299058 80.92770386 31.8907289 80.52923763 35 80 C36.32 83.63 37.64 87.26 39 91 C32.7927521 97.2072479 23.69128144 98.26725413 15.1875 98.4375 C8.68490397 98.22342276 3.32126275 97.95555067 -1.73828125 93.453125 C-7.9209017 86.78356786 -8.28786488 80.09546029 -8.1953125 71.3515625 C-8.1924826 70.33903412 -8.18965271 69.32650574 -8.18673706 68.28329468 C-8.17558254 65.06374062 -8.15048646 61.84446935 -8.125 58.625 C-8.1149641 56.43620195 -8.10583931 54.24739951 -8.09765625 52.05859375 C-8.07565865 46.70562096 -8.04116122 41.35285835 -8 36 C-11.63 36 -15.26 36 -19 36 C-19 31.71 -19 27.42 -19 23 C-17.2675 22.443125 -15.535 21.88625 -13.75 21.3125 C-9.14399499 19.61182123 -6.38852537 18.47848507 -4 14 C-2.1563737 9.37830668 -0.97749161 4.88745807 0 0 Z " fill="#2F2708" transform="translate(320,15)"/>
<path d="M0 0 C9.9 0 19.8 0 30 0 C30.33 20.46 30.66 40.92 31 62 C33.64 62.33 36.28 62.66 39 63 C39 66.96 39 70.92 39 75 C25.8 75 12.6 75 -1 75 C-1 71.04 -1 67.08 -1 63 C1.64 62.67 4.28 62.34 7 62 C7.33 46.49 7.66 30.98 8 15 C5.03 14.01 2.06 13.02 -1 12 C-0.67 8.04 -0.34 4.08 0 0 Z " fill="#302809" transform="translate(263,38)"/>
<path d="M0 0 C1.32 1.65 2.64 3.3 4 5 C5.56526931 6.63201854 7.15523893 8.24060832 8.765625 9.828125 C9.65507812 10.70984375 10.54453125 11.5915625 11.4609375 12.5 C12.38132812 13.4075 13.30171875 14.315 14.25 15.25 C16.09078832 17.06543311 17.92945807 18.88301784 19.765625 20.703125 C20.57805664 21.50395508 21.39048828 22.30478516 22.22753906 23.12988281 C24 25 24 25 24 26 C21.03 26 18.06 26 15 26 C15 30.95 15 35.9 15 41 C19.95 41 24.9 41 30 41 C30 45.95 30 50.9 30 56 C34.95 56 39.9 56 45 56 C45 60.95 45 65.9 45 71 C49.95 71 54.9 71 60 71 C60 71.66 60 72.32 60 73 C40.2 73 20.4 73 0 73 C0 48.91 0 24.82 0 0 Z " fill="#FDFEFE" transform="translate(0,79)"/>
<path d="M0 0 C4.95 0 9.9 0 15 0 C15 2.31 15 4.62 15 7 C12.69 7.33 10.38 7.66 8 8 C7.67 11.96 7.34 15.92 7 20 C9.97 20.99 12.94 21.98 16 23 C15.67 30.26 15.34 37.52 15 45 C10.05 45 5.1 45 0 45 C0 49.95 0 54.9 0 60 C-4.95 60 -9.9 60 -15 60 C-15 63.63 -15 67.26 -15 71 C-28.08263504 71.30075023 -40.97756241 70.15345973 -54 69 C-52.87548273 66.0280615 -51.77706209 63.66559313 -50 61 C-48.07983398 60.70703125 -48.07983398 60.70703125 -45.74609375 60.8125 C-44.89080078 60.83570313 -44.03550781 60.85890625 -43.15429688 60.8828125 C-41.37039154 60.95976025 -39.58653497 61.0378487 -37.80273438 61.1171875 C-29.09140621 61.35104866 -21.93438259 59.48300019 -15 54 C-9.55932336 48.25706355 -8.55871194 42.52652874 -8.6640625 34.8359375 C-9.18389768 30.44756148 -10.87794401 26.83675301 -13 23 C-9.14854957 21.07427479 -4.19956748 21.95116782 0 22 C0 18.04 0 14.08 0 10 C-9.57 10 -19.14 10 -29 10 C-29 9.67 -29 9.34 -29 9 C-19.43 9 -9.86 9 0 9 C0 6.03 0 3.06 0 0 Z " fill="#F0F0EF" transform="translate(255,30)"/>
<path d="M0 0 C4.95 0 9.9 0 15 0 C17.0766292 10.14383877 17.0766292 10.14383877 14.39511108 14.76690674 C11.90914224 17.59370485 9.29935655 20.16255805 6.54296875 22.7265625 C5.55701465 23.68822312 4.5739257 24.6528292 3.59358215 25.62020874 C1.01960458 28.14483865 -1.59092807 30.62800275 -4.21148682 33.10412598 C-6.87595023 35.63521894 -9.50369441 38.20382404 -12.13476562 40.76953125 C-16.75573859 45.26643391 -21.40698565 49.72942595 -26.08235168 54.16983032 C-27.40351965 55.43072969 -28.7086147 56.7086147 -30 58 C-30 48.76 -30 39.52 -30 30 C-25.05 30 -20.1 30 -15 30 C-15 25.05 -15 20.1 -15 15 C-10.05 15 -5.1 15 0 15 C0 10.05 0 5.1 0 0 Z " fill="#EEEEEE" transform="translate(30,15)"/>
<path d="M0 0 C3.63 0 7.26 0 11 0 C11.12117188 1.48371094 11.24234375 2.96742187 11.3671875 4.49609375 C11.53613976 6.4765897 11.70542852 8.45705697 11.875 10.4375 C11.95363281 11.41138672 12.03226562 12.38527344 12.11328125 13.38867188 C12.50828567 17.93122272 12.99385765 22.31281111 14.0625 26.75 C15.52369963 32.82878149 15.12093849 38.77166765 15 45 C10.05 45 5.1 45 0 45 C0 43.02 0 41.04 0 39 C0.99 38.505 0.99 38.505 2 38 C2 34.04 2 30.08 2 26 C-0.64 26 -3.28 26 -6 26 C-6 22.37 -6 18.74 -6 15 C-4.02 15 -2.04 15 0 15 C0 10.05 0 5.1 0 0 Z " fill="#F4F4F3" transform="translate(300,75)"/>
<path d="M0 0 C1.4606285 2.64738916 2 3.89448334 2 7 C3.65 7 5.3 7 7 7 C7 11.95 7 16.9 7 22 C2.05 22 -2.9 22 -8 22 C-8 24.31 -8 26.62 -8 29 C-5.36 29 -2.72 29 0 29 C0 29.33 0 29.66 0 30 C-10.23 30 -20.46 30 -31 30 C-31 29.67 -31 29.34 -31 29 C-28.36 29 -25.72 29 -23 29 C-23 26.69 -23 24.38 -23 22 C-27.95 22 -32.9 22 -38 22 C-38 17.05 -38 12.1 -38 7 C-34.37 7 -30.74 7 -27 7 C-27 5.02 -27 3.04 -27 1 C-26.67 1 -26.34 1 -26 1 C-25.96132813 1.87011719 -25.96132813 1.87011719 -25.921875 2.7578125 C-25.52610364 8.20866355 -24.66178989 11.71047469 -21 16 C-17.48599602 18.76100313 -13.27220531 18.37792585 -9 18 C-5.64612267 17.55051021 -5.64612267 17.55051021 -3 16 C-0.44586048 11.13497234 -0.40624907 5.40952705 0 0 Z " fill="#FDFDFD" transform="translate(293,8)"/>
<path d="M0 0 C4.95 0 9.9 0 15 0 C15 4.95 15 9.9 15 15 C19.95 15 24.9 15 30 15 C30 10.05 30 5.1 30 0 C34.95 0 39.9 0 45 0 C45 4.95 45 9.9 45 15 C49.95 15 54.9 15 60 15 C60 15.66 60 16.32 60 17 C40.2 17 20.4 17 0 17 C0 11.39 0 5.78 0 0 Z " fill="#F0F0F0" transform="translate(0,135)"/>
<path d="M0 0 C2.15650423 1.75638176 3.86926846 3.37916192 5.12109375 5.8828125 C5.55391039 10.11942152 5.56968081 13.79675961 3.93359375 17.7578125 C1.14015157 21.03288264 -1.53035481 22.6837577 -5.81640625 23.31640625 C-14.05649132 23.32691656 -14.05649132 23.32691656 -18.00390625 21.1953125 C-21.20627096 17.24572936 -22.09275898 14.43253065 -21.81640625 9.3828125 C-21.32602477 5.91552701 -20.8520947 4.84780853 -18.62890625 1.9453125 C-12.94245467 -2.31952619 -6.47702242 -3.85120252 0 0 Z " fill="#EEEDED" transform="translate(222.87890625,54.1171875)"/>
<path d="M0 0 C3.60255605 1.91785343 5.60353973 3.46295329 7.05859375 7.24609375 C7.83593177 12.79850817 7.38089355 17.59487404 4.05859375 22.24609375 C0.15979471 24.96618611 -3.31703406 25.79398799 -7.984375 25.59765625 C-12.36630091 24.81048393 -15.0959462 22.28882782 -17.81640625 18.93359375 C-19.60440335 14.66226735 -19.38945141 10.997543 -18.25390625 6.55859375 C-14.52408318 -0.01299927 -7.14433463 -2.77435932 0 0 Z " fill="#30280A" transform="translate(285.94140625,1.75390625)"/>
<path d="M0 0 C0.80679199 0.05647705 1.61358398 0.1129541 2.44482422 0.17114258 C3.79060547 0.25138672 3.79060547 0.25138672 5.16357422 0.33325195 C6.09943359 0.40995117 7.03529297 0.48665039 7.99951172 0.56567383 C8.91216797 0.62303711 9.82482422 0.68040039 10.76513672 0.73950195 C13.47211094 0.91881007 16.17206237 1.14077634 18.87451172 1.37817383 C20.15213379 1.4799292 20.15213379 1.4799292 21.45556641 1.58374023 C22.25124023 1.65641113 23.04691406 1.72908203 23.86669922 1.80395508 C24.56907715 1.86623291 25.27145508 1.92851074 25.99511719 1.99267578 C27.87451172 2.37817383 27.87451172 2.37817383 30.87451172 4.37817383 C31.37451172 7.25317383 31.37451172 7.25317383 30.87451172 10.37817383 C25.48349447 15.76919108 20.35185562 15.61307624 13.18701172 15.69067383 C11.87700195 15.73417969 11.87700195 15.73417969 10.54052734 15.77856445 C4.22321372 15.8398976 0.31817701 14.59114042 -5.12548828 11.37817383 C-5.49111591 5.04062819 -5.49111591 5.04062819 -3.89941406 2.15673828 C-2.12548828 0.37817383 -2.12548828 0.37817383 0 0 Z " fill="#FBFBFA" transform="translate(201.12548828125,117.621826171875)"/>
<path d="M0 0 C0.33 0 0.66 0 1 0 C1 12.21 1 24.42 1 37 C0.67 37 0.34 37 0 37 C0 32.38 0 27.76 0 23 C-3.63 23 -7.26 23 -11 23 C-11 27.95 -11 32.9 -11 38 C-12.98 38 -14.96 38 -17 38 C-17 41.3 -17 44.6 -17 48 C-17.33 48 -17.66 48 -18 48 C-18.10326002 34.61591257 -18.12358449 21.34256584 -17 8 C-11.39 8 -5.78 8 0 8 C0 5.36 0 2.72 0 0 Z " fill="#FEFEFE" transform="translate(311,52)"/>
<path d="M0 0 C14.85 0 29.7 0 45 0 C45 3.96 45 7.92 45 12 C43.9275 11.071875 42.855 10.14375 41.75 9.1875 C40.50086685 8.12398102 39.25093481 7.06139924 38 6 C37.29875 5.401875 36.5975 4.80375 35.875 4.1875 C33.51223091 2.69107958 31.7921421 2.20430308 29 2 C24.76662996 3.10124829 22.71001572 5.22258361 19.90136719 8.49511719 C13.64324476 15.730158 13.64324476 15.730158 8.55078125 16.56640625 C5.25 16.25 5.25 16.25 0 15 C0 10.05 0 5.1 0 0 Z " fill="#EEEEEE" transform="translate(45,0)"/>
<path d="M0 0 C14.85 0 29.7 0 45 0 C45 4.95 45 9.9 45 15 C43.35 15 41.7 15 40 15 C39.773125 14.113125 39.54625 13.22625 39.3125 12.3125 C37.55744768 7.88308225 34.99434213 5.39603949 31.125 2.6875 C26.63428126 1.23462041 23.00488876 1.58287636 18.6875 3.375 C15.05221786 5.57307757 13.7638742 7.21089997 12.375 11.125 C11.92125 12.40375 11.4675 13.6825 11 15 C7.37 15 3.74 15 0 15 C0 10.05 0 5.1 0 0 Z " fill="#EEEEEE" transform="translate(255,0)"/>
<path d="M0 0 C3.3 0 6.6 0 10 0 C10 4.95 10 9.9 10 15 C14.95 15 19.9 15 25 15 C25.1953125 25.7421875 25.1953125 25.7421875 25 29 C24.34 29.66 23.68 30.32 23 31 C22.01 27.37 21.02 23.74 20 20 C19.030625 20.33 18.06125 20.66 17.0625 21 C14.15856386 21.80697617 11.38636812 22.27104247 8.375 22.4375 C7.30378906 22.49744141 7.30378906 22.49744141 6.2109375 22.55859375 C2.58603555 21.64276163 1.18624828 19.98440241 -1 17 C-1.45161192 13.99984992 -1.16220877 11.18895726 -0.8125 8.1875 C-0.70711914 7.00510742 -0.70711914 7.00510742 -0.59960938 5.79882812 C-0.42367591 3.86355996 -0.21506333 1.93131127 0 0 Z " fill="#EEEDED" transform="translate(335,75)"/>
<path d="M0 0 C0.33 0 0.66 0 1 0 C1 12.87 1 25.74 1 39 C-0.32 38.67 -1.64 38.34 -3 38 C-2.01 38 -1.02 38 0 38 C0 35.03 0 32.06 0 29 C-4.95 29 -9.9 29 -15 29 C-15 24.05 -15 19.1 -15 14 C-10.05 14 -5.1 14 0 14 C0 9.38 0 4.76 0 0 Z " fill="#FEFEFE" transform="translate(270,61)"/>
<path d="M0 0 C4.95 0 9.9 0 15 0 C15.84379393 9.38720743 16.11718401 18.58621784 16 28 C15.67 28 15.34 28 15 28 C15 23.71 15 19.42 15 15 C10.05 15 5.1 15 0 15 C0 10.05 0 5.1 0 0 Z " fill="#FEFEFE" transform="translate(165,45)"/>
<path d="M0 0 C4.95 0 9.9 0 15 0 C15.33 4.29 15.66 8.58 16 13 C10.98010898 17.11888494 7.40141012 17.51211281 1 17 C-0.53190797 13.93618406 -0.10243613 10.73034134 -0.0625 7.375 C-0.041875 4.94125 -0.02125 2.5075 0 0 Z " fill="#FEFEFE" transform="translate(210,60)"/>
<path d="M0 0 C4.95 0 9.9 0 15 0 C15 4.95 15 9.9 15 15 C10.05 15 5.1 15 0 15 C0 10.05 0 5.1 0 0 Z " fill="#FEFEFE" transform="translate(345,135)"/>
<path d="M0 0 C4.95 0 9.9 0 15 0 C15 4.95 15 9.9 15 15 C10.05 15 5.1 15 0 15 C0 10.05 0 5.1 0 0 Z " fill="#EFEFEF" transform="translate(330,135)"/>
<path d="M0 0 C4.95 0 9.9 0 15 0 C15 4.95 15 9.9 15 15 C10.05 15 5.1 15 0 15 C0 10.05 0 5.1 0 0 Z " fill="#FEFEFE" transform="translate(315,135)"/>
<path d="M0 0 C4.95 0 9.9 0 15 0 C15 4.95 15 9.9 15 15 C10.05 15 5.1 15 0 15 C0 10.05 0 5.1 0 0 Z " fill="#EFEFEF" transform="translate(300,135)"/>
<path d="M0 0 C4.95 0 9.9 0 15 0 C15 4.95 15 9.9 15 15 C10.05 15 5.1 15 0 15 C0 10.05 0 5.1 0 0 Z " fill="#EFEFEF" transform="translate(270,135)"/>
<path d="M0 0 C4.95 0 9.9 0 15 0 C15 4.95 15 9.9 15 15 C10.05 15 5.1 15 0 15 C0 10.05 0 5.1 0 0 Z " fill="#FEFEFE" transform="translate(255,135)"/>
<path d="M0 0 C4.95 0 9.9 0 15 0 C15 4.95 15 9.9 15 15 C10.05 15 5.1 15 0 15 C0 10.05 0 5.1 0 0 Z " fill="#EFEFEF" transform="translate(150,135)"/>
<path d="M0 0 C4.95 0 9.9 0 15 0 C15 4.95 15 9.9 15 15 C10.05 15 5.1 15 0 15 C0 10.05 0 5.1 0 0 Z " fill="#FEFEFE" transform="translate(135,135)"/>
<path d="M0 0 C4.95 0 9.9 0 15 0 C15 4.95 15 9.9 15 15 C10.05 15 5.1 15 0 15 C0 10.05 0 5.1 0 0 Z " fill="#EFEFEF" transform="translate(120,135)"/>
<path d="M0 0 C4.95 0 9.9 0 15 0 C15 4.95 15 9.9 15 15 C10.05 15 5.1 15 0 15 C0 10.05 0 5.1 0 0 Z " fill="#FEFEFE" transform="translate(105,135)"/>
<path d="M0 0 C4.95 0 9.9 0 15 0 C15 4.95 15 9.9 15 15 C10.05 15 5.1 15 0 15 C0 10.05 0 5.1 0 0 Z " fill="#FEFEFE" transform="translate(15,135)"/>
<path d="M0 0 C4.95 0 9.9 0 15 0 C15 4.95 15 9.9 15 15 C10.05 15 5.1 15 0 15 C0 10.05 0 5.1 0 0 Z " fill="#EFEFEF" transform="translate(345,120)"/>
<path d="M0 0 C4.95 0 9.9 0 15 0 C15 4.95 15 9.9 15 15 C10.05 15 5.1 15 0 15 C0 10.05 0 5.1 0 0 Z " fill="#FFFFFF" transform="translate(330,120)"/>
<path d="M0 0 C4.95 0 9.9 0 15 0 C15 4.95 15 9.9 15 15 C10.05 15 5.1 15 0 15 C0 10.05 0 5.1 0 0 Z " fill="#EFEFEF" transform="translate(315,120)"/>
<path d="M0 0 C4.95 0 9.9 0 15 0 C15 4.95 15 9.9 15 15 C10.05 15 5.1 15 0 15 C0 10.05 0 5.1 0 0 Z " fill="#FEFEFE" transform="translate(300,120)"/>
<path d="M0 0 C4.95 0 9.9 0 15 0 C15 4.95 15 9.9 15 15 C10.05 15 5.1 15 0 15 C0 10.05 0 5.1 0 0 Z " fill="#EFEFEF" transform="translate(285,120)"/>
<path d="M0 0 C4.95 0 9.9 0 15 0 C15 4.95 15 9.9 15 15 C10.05 15 5.1 15 0 15 C0 10.05 0 5.1 0 0 Z " fill="#FEFEFE" transform="translate(150,120)"/>
<path d="M0 0 C4.95 0 9.9 0 15 0 C15 4.95 15 9.9 15 15 C10.05 15 5.1 15 0 15 C0 10.05 0 5.1 0 0 Z " fill="#EFEFEF" transform="translate(135,120)"/>
<path d="M0 0 C4.95 0 9.9 0 15 0 C15 4.95 15 9.9 15 15 C10.05 15 5.1 15 0 15 C0 10.05 0 5.1 0 0 Z " fill="#FEFEFE" transform="translate(120,120)"/>
<path d="M0 0 C4.95 0 9.9 0 15 0 C15 4.95 15 9.9 15 15 C10.05 15 5.1 15 0 15 C0 10.05 0 5.1 0 0 Z " fill="#EFEFEF" transform="translate(15,120)"/>
<path d="M0 0 C4.95 0 9.9 0 15 0 C15 4.95 15 9.9 15 15 C10.05 15 5.1 15 0 15 C0 10.05 0 5.1 0 0 Z " fill="#FEFEFE" transform="translate(0,120)"/>
<path d="M0 0 C4.95 0 9.9 0 15 0 C15 4.95 15 9.9 15 15 C10.05 15 5.1 15 0 15 C0 10.05 0 5.1 0 0 Z " fill="#EFEFEF" transform="translate(150,105)"/>
<path d="M0 0 C4.95 0 9.9 0 15 0 C15 4.95 15 9.9 15 15 C10.05 15 5.1 15 0 15 C0 10.05 0 5.1 0 0 Z " fill="#FEFEFE" transform="translate(135,105)"/>
<path d="M0 0 C4.95 0 9.9 0 15 0 C15 4.95 15 9.9 15 15 C10.05 15 5.1 15 0 15 C0 10.05 0 5.1 0 0 Z " fill="#EFEFEF" transform="translate(0,105)"/>
<path d="M0 0 C4.95 0 9.9 0 15 0 C15 4.95 15 9.9 15 15 C10.05 15 5.1 15 0 15 C0 10.05 0 5.1 0 0 Z " fill="#FEFEFE" transform="translate(150,90)"/>
<path d="M0 0 C4.95 0 9.9 0 15 0 C15 4.95 15 9.9 15 15 C10.05 15 5.1 15 0 15 C0 10.05 0 5.1 0 0 Z " fill="#FEFEFE" transform="translate(345,75)"/>
<path d="M0 0 C4.95 0 9.9 0 15 0 C15 4.95 15 9.9 15 15 C10.05 15 5.1 15 0 15 C0 10.05 0 5.1 0 0 Z " fill="#FEFEFE" transform="translate(165,75)"/>
<path d="M0 0 C4.95 0 9.9 0 15 0 C15 4.95 15 9.9 15 15 C10.05 15 5.1 15 0 15 C0 10.05 0 5.1 0 0 Z " fill="#EFEFEF" transform="translate(345,60)"/>
<path d="M0 0 C4.95 0 9.9 0 15 0 C15 4.95 15 9.9 15 15 C10.05 15 5.1 15 0 15 C0 10.05 0 5.1 0 0 Z " fill="#EFEFEF" transform="translate(150,45)"/>
<path d="M0 0 C4.95 0 9.9 0 15 0 C15 4.95 15 9.9 15 15 C10.05 15 5.1 15 0 15 C0 10.05 0 5.1 0 0 Z " fill="#FEFEFE" transform="translate(150,30)"/>
<path d="M0 0 C4.95 0 9.9 0 15 0 C15 4.95 15 9.9 15 15 C10.05 15 5.1 15 0 15 C0 10.05 0 5.1 0 0 Z " fill="#EFEFEF" transform="translate(135,30)"/>
<path d="M0 0 C4.95 0 9.9 0 15 0 C15 4.95 15 9.9 15 15 C10.05 15 5.1 15 0 15 C0 10.05 0 5.1 0 0 Z " fill="#FEFEFE" transform="translate(0,30)"/>
<path d="M0 0 C4.95 0 9.9 0 15 0 C15 4.95 15 9.9 15 15 C10.05 15 5.1 15 0 15 C0 10.05 0 5.1 0 0 Z " fill="#FEFEFE" transform="translate(345,15)"/>
<path d="M0 0 C4.95 0 9.9 0 15 0 C15 4.95 15 9.9 15 15 C10.05 15 5.1 15 0 15 C0 10.05 0 5.1 0 0 Z " fill="#EFEFEF" transform="translate(300,15)"/>
<path d="M0 0 C4.95 0 9.9 0 15 0 C15 4.95 15 9.9 15 15 C10.05 15 5.1 15 0 15 C0 10.05 0 5.1 0 0 Z " fill="#EFEFEF" transform="translate(240,15)"/>
<path d="M0 0 C4.95 0 9.9 0 15 0 C15 4.95 15 9.9 15 15 C10.05 15 5.1 15 0 15 C0 10.05 0 5.1 0 0 Z " fill="#EFEFEF" transform="translate(210,15)"/>
<path d="M0 0 C4.95 0 9.9 0 15 0 C15 4.95 15 9.9 15 15 C10.05 15 5.1 15 0 15 C0 10.05 0 5.1 0 0 Z " fill="#FEFEFE" transform="translate(195,15)"/>
<path d="M0 0 C4.95 0 9.9 0 15 0 C15 4.95 15 9.9 15 15 C10.05 15 5.1 15 0 15 C0 10.05 0 5.1 0 0 Z " fill="#EFEFEF" transform="translate(180,15)"/>
<path d="M0 0 C4.95 0 9.9 0 15 0 C15 4.95 15 9.9 15 15 C10.05 15 5.1 15 0 15 C0 10.05 0 5.1 0 0 Z " fill="#FEFEFE" transform="translate(165,15)"/>
<path d="M0 0 C4.95 0 9.9 0 15 0 C15 4.95 15 9.9 15 15 C10.05 15 5.1 15 0 15 C0 10.05 0 5.1 0 0 Z " fill="#EFEFEF" transform="translate(150,15)"/>
<path d="M0 0 C4.95 0 9.9 0 15 0 C15 4.95 15 9.9 15 15 C10.05 15 5.1 15 0 15 C0 10.05 0 5.1 0 0 Z " fill="#FEFEFE" transform="translate(135,15)"/>
<path d="M0 0 C4.95 0 9.9 0 15 0 C15 4.95 15 9.9 15 15 C10.05 15 5.1 15 0 15 C0 10.05 0 5.1 0 0 Z " fill="#EFEFEF" transform="translate(120,15)"/>
<path d="M0 0 C4.95 0 9.9 0 15 0 C15 4.95 15 9.9 15 15 C10.05 15 5.1 15 0 15 C0 10.05 0 5.1 0 0 Z " fill="#FEFEFE" transform="translate(15,15)"/>
<path d="M0 0 C4.95 0 9.9 0 15 0 C15 4.95 15 9.9 15 15 C10.05 15 5.1 15 0 15 C0 10.05 0 5.1 0 0 Z " fill="#EFEFEF" transform="translate(0,15)"/>
<path d="M0 0 C4.95 0 9.9 0 15 0 C15 4.95 15 9.9 15 15 C10.05 15 5.1 15 0 15 C0 10.05 0 5.1 0 0 Z " fill="#EFEFEF" transform="translate(345,0)"/>
<path d="M0 0 C4.95 0 9.9 0 15 0 C15 4.95 15 9.9 15 15 C10.05 15 5.1 15 0 15 C0 10.05 0 5.1 0 0 Z " fill="#FFFFFF" transform="translate(300,0)"/>
<path d="M0 0 C4.95 0 9.9 0 15 0 C15 4.95 15 9.9 15 15 C10.05 15 5.1 15 0 15 C0 10.05 0 5.1 0 0 Z " fill="#FFFFFF" transform="translate(240,0)"/>
<path d="M0 0 C4.95 0 9.9 0 15 0 C15 4.95 15 9.9 15 15 C10.05 15 5.1 15 0 15 C0 10.05 0 5.1 0 0 Z " fill="#EFEFEF" transform="translate(225,0)"/>
<path d="M0 0 C4.95 0 9.9 0 15 0 C15 4.95 15 9.9 15 15 C10.05 15 5.1 15 0 15 C0 10.05 0 5.1 0 0 Z " fill="#FFFFFF" transform="translate(210,0)"/>
<path d="M0 0 C4.95 0 9.9 0 15 0 C15 4.95 15 9.9 15 15 C10.05 15 5.1 15 0 15 C0 10.05 0 5.1 0 0 Z " fill="#EFEFEF" transform="translate(195,0)"/>
<path d="M0 0 C4.95 0 9.9 0 15 0 C15 4.95 15 9.9 15 15 C10.05 15 5.1 15 0 15 C0 10.05 0 5.1 0 0 Z " fill="#FFFFFF" transform="translate(180,0)"/>
<path d="M0 0 C4.95 0 9.9 0 15 0 C15 4.95 15 9.9 15 15 C10.05 15 5.1 15 0 15 C0 10.05 0 5.1 0 0 Z " fill="#EFEFEF" transform="translate(165,0)"/>
<path d="M0 0 C4.95 0 9.9 0 15 0 C15 4.95 15 9.9 15 15 C10.05 15 5.1 15 0 15 C0 10.05 0 5.1 0 0 Z " fill="#FFFFFF" transform="translate(150,0)"/>
<path d="M0 0 C4.95 0 9.9 0 15 0 C15 4.95 15 9.9 15 15 C10.05 15 5.1 15 0 15 C0 10.05 0 5.1 0 0 Z " fill="#EFEFEF" transform="translate(135,0)"/>
<path d="M0 0 C4.95 0 9.9 0 15 0 C15 4.95 15 9.9 15 15 C10.05 15 5.1 15 0 15 C0 10.05 0 5.1 0 0 Z " fill="#FFFFFF" transform="translate(120,0)"/>
<path d="M0 0 C4.95 0 9.9 0 15 0 C15 4.95 15 9.9 15 15 C10.05 15 5.1 15 0 15 C0 10.05 0 5.1 0 0 Z " fill="#EFEFEF" transform="translate(105,0)"/>
<path d="M0 0 C4.95 0 9.9 0 15 0 C15 4.95 15 9.9 15 15 C10.05 15 5.1 15 0 15 C0 10.05 0 5.1 0 0 Z " fill="#FFFFFF" transform="translate(30,0)"/>
<path d="M0 0 C4.95 0 9.9 0 15 0 C15 4.95 15 9.9 15 15 C10.05 15 5.1 15 0 15 C0 10.05 0 5.1 0 0 Z " fill="#FFFFFF" transform="translate(0,0)"/>
<path d="M0 0 C4.95 0 9.9 0 15 0 C15 4.95 15 9.9 15 15 C5.0390625 15.1953125 5.0390625 15.1953125 2 15 C0 13 0 13 -0.1953125 9.9609375 C-0.13020833 6.640625 -0.06510417 3.3203125 0 0 Z " fill="#FFFFFF" transform="translate(90,0)"/>
<path d="M0 0 C4.95 0 9.9 0 15 0 C15 4.29 15 8.58 15 13 C16.32 13.66 17.64 14.32 19 15 C12.73 15 6.46 15 0 15 C0 10.05 0 5.1 0 0 Z " fill="#EEEEEE" transform="translate(315,0)"/>
<path d="M0 0 C4.62 0 9.24 0 14 0 C15.38044817 5.5217927 14.12624723 9.4350137 13 15 C8.71 15 4.42 15 0 15 C0 10.05 0 5.1 0 0 Z " fill="#EEEEEE" transform="translate(165,120)"/>
<path d="M0 0 C0.33 0 0.66 0 1 0 C1 12.21 1 24.42 1 37 C0.67 37 0.34 37 0 37 C0 32.38 0 27.76 0 23 C-3.63 23 -7.26 23 -11 23 C-11 18.05 -11 13.1 -11 8 C-7.37 8 -3.74 8 0 8 C0 5.36 0 2.72 0 0 Z " fill="#FFFFFF" transform="translate(311,52)"/>
<path d="M0 0 C4.95 0 9.9 0 15 0 C15 3.63 15 7.26 15 11 C12.36 11 9.72 11 7 11 C7 14.96 7 18.92 7 23 C6.67 23 6.34 23 6 23 C5.67 20.36 5.34 17.72 5 15 C3.35 15 1.7 15 0 15 C0 10.05 0 5.1 0 0 Z " fill="#EAE9E8" transform="translate(255,90)"/>
<path d="M0 0 C0.33 0 0.66 0 1 0 C1 2.97 1 5.94 1 9 C4.3 9 7.6 9 11 9 C11 13.95 11 18.9 11 24 C7.7 24 4.4 24 1 24 C1 28.29 1 32.58 1 37 C0.67 37 0.34 37 0 37 C0 24.79 0 12.58 0 0 Z " fill="#FFFFFF" transform="translate(334,51)"/>
<path d="M0 0 C0.763125 0.0825 1.52625 0.165 2.3125 0.25 C2.3125 0.58 2.3125 0.91 2.3125 1.25 C5.2825 1.745 5.2825 1.745 8.3125 2.25 C8.3125 6.54 8.3125 10.83 8.3125 15.25 C-2.37860512 14.45215633 -2.37860512 14.45215633 -5.6875 11.25 C-6.22950544 7.52371262 -6.1555335 5.21070034 -4.5 1.8125 C-2.6875 0.25 -2.6875 0.25 0 0 Z " fill="#EEEDED" transform="translate(201.6875,117.75)"/>
<path d="M0 0 C9.9 0 19.8 0 30 0 C30 3.96 30 7.92 30 12 C28.9275 11.071875 27.855 10.14375 26.75 9.1875 C25.50086685 8.12398102 24.25093481 7.06139924 23 6 C22.29875 5.401875 21.5975 4.80375 20.875 4.1875 C17.73669347 2.19990586 15.25997394 1.73474233 11.625 2.5 C8.3459624 4.37373577 6.09647657 6.77322945 3.55078125 9.5390625 C2 11 2 11 0 11 C0 7.37 0 3.74 0 0 Z " fill="#FBF9F8" transform="translate(60,0)"/>
<path d="M0 0 C3.63 0 7.26 0 11 0 C11 4.95 11 9.9 11 15 C7.37 15 3.74 15 0 15 C0 10.05 0 5.1 0 0 Z " fill="#EFEFEF" transform="translate(300,75)"/>
<path d="M0 0 C1.33333333 1.33333333 2.66666667 2.66666667 4 4 C4.99 4.33 5.98 4.66 7 5 C7 7.97 7 10.94 7 14 C4.03 14.33 1.06 14.66 -2 15 C-2.37125 13.88625 -2.37125 13.88625 -2.75 12.75 C-3.81793565 9.90311195 -3.81793565 9.90311195 -6.125 8.125 C-8 6 -8 6 -8.25 2.25 C-8.1675 1.1775 -8.085 0.105 -8 -1 C-4.57646347 -2.22269162 -3.03389631 -1.99099446 0 0 Z " fill="#FDFDFD" transform="translate(98,61)"/>
<path d="M0 0 C4.95 0 9.9 0 15 0 C15 2.31 15 4.62 15 7 C12.69 7.33 10.38 7.66 8 8 C8 9.98 8 11.96 8 14 C5.69 14.33 3.38 14.66 1 15 C-0.04225175 9.91902274 -0.07822869 5.16309352 0 0 Z " fill="#EDEDED" transform="translate(255,30)"/>
<path d="M0 0 C-0.33042958 8.06248167 -1.49538456 14.58524649 -7.4375 20.375 C-11.51497237 22.96071419 -14.12678778 24 -19 24 C-19 25.32 -19 26.64 -19 28 C-19.66 27.67 -20.32 27.34 -21 27 C-20.67 23.37 -20.34 19.74 -20 16 C-15.05 16 -10.1 16 -5 16 C-5 11.05 -5 6.1 -5 1 C-1 0 -1 0 0 0 Z " fill="#FCFBFB" transform="translate(320,14)"/>
<path d="M0 0 C4.95 0 9.9 0 15 0 C15 4.95 15 9.9 15 15 C13.02 15 11.04 15 9 15 C8.67 12.69 8.34 10.38 8 8 C5.36 7.67 2.72 7.34 0 7 C0 4.69 0 2.38 0 0 Z " fill="#EFEFEF" transform="translate(285,30)"/>
<path d="M0 0 C3.3 0 6.6 0 10 0 C10 4.95 10 9.9 10 15 C6.7 15 3.4 15 0 15 C0 10.05 0 5.1 0 0 Z " fill="#EFEFEF" transform="translate(335,15)"/>
<path d="M0 0 C4.95 0 9.9 0 15 0 C15 4.95 15 9.9 15 15 C14.01 15 13.02 15 12 15 C11.67 16.98 11.34 18.96 11 21 C10.67 21 10.34 21 10 21 C10 16.38 10 11.76 10 7 C3.07 7 -3.86 7 -11 7 C-11 6.67 -11 6.34 -11 6 C-5.555 5.505 -5.555 5.505 0 5 C0 3.35 0 1.7 0 0 Z " fill="#EAE5E3" transform="translate(345,30)"/>
<path d="M0 0 C4.95 0 9.9 0 15 0 C15 2.31 15 4.62 15 7 C12.04808566 8.96794289 10.34507977 9.52003592 6.9375 10.1875 C5.62072266 10.45626953 5.62072266 10.45626953 4.27734375 10.73046875 C2 11 2 11 0 10 C0 6.7 0 3.4 0 0 Z " fill="#EEEEEE" transform="translate(195,30)"/>
<path d="M0 0 C0.66 0.33 1.32 0.66 2 1 C3.98 1 5.96 1 8 1 C8 5.95 8 10.9 8 16 C10.64 16 13.28 16 16 16 C16 16.33 16 16.66 16 17 C7.09176682 18.59137369 7.09176682 18.59137369 3 16.375 C0.27687911 13.14129395 -1.09457909 11.00642794 -0.890625 6.6796875 C-0.65190605 4.43994208 -0.35846421 2.22344691 0 0 Z " fill="#EBEAE9" transform="translate(202,59)"/>
<path d="M0 0 C0.99 0.495 0.99 0.495 2 1 C5.00474497 1.13559318 7.99068847 1.04299016 11 1 C11 5.29 11 9.58 11 14 C9.35 14.33 7.7 14.66 6 15 C3.43588292 12.84381063 1.50450187 11.00900373 0 8 C-0.13415472 5.3276379 -0.04318541 2.67749512 0 0 Z " fill="#EEEEEE" transform="translate(64,104)"/>
<path d="M0 0 C0.33 0.66 0.66 1.32 1 2 C3.64 2 6.28 2 9 2 C9 6.95 9 11.9 9 17 C6.36 17 3.72 17 1 17 C0.67 17.99 0.34 18.98 0 20 C0 13.4 0 6.8 0 0 Z " fill="#FEFDFD" transform="translate(246,58)"/>
<path d="M0 0 C4.95 0 9.9 0 15 0 C15 2.64 15 5.28 15 8 C10.05 8 5.1 8 0 8 C0 5.36 0 2.72 0 0 Z " fill="#EFEFEF" transform="translate(225,30)"/>
<path d="M0 0 C3.63 0 7.26 0 11 0 C11 4.95 11 9.9 11 15 C10.01 15 9.02 15 8 15 C8 13.68 8 12.36 8 11 C7.1028125 10.8453125 7.1028125 10.8453125 6.1875 10.6875 C3.53860567 9.85499035 2.59676594 9.2810942 1 7 C0.3125 3.3125 0.3125 3.3125 0 0 Z " fill="#EFF0F0" transform="translate(64,45)"/>
<path d="M0 0 C1.485 0.99 1.485 0.99 3 2 C5.55462917 2.82808077 8.1304113 3.51834901 10.72265625 4.21875 C13 5 13 5 15 7 C15 8.32 15 9.64 15 11 C10.05 11 5.1 11 0 11 C0 7.37 0 3.74 0 0 Z " fill="#EFEFEE" transform="translate(180,139)"/>
<path d="M0 0 C5.94 0 11.88 0 18 0 C17.01 0.33 16.02 0.66 15 1 C15 2.98 15 4.96 15 7 C10.05 7 5.1 7 0 7 C0 4.69 0 2.38 0 0 Z " fill="#FFFFFF" transform="translate(285,113)"/>
<path d="M0 0 C0.99 0.495 0.99 0.495 2 1 C3.37342831 1.0689472 4.75002102 1.08467708 6.125 1.0625 C7.40375 1.041875 8.6825 1.02125 10 1 C10 4.96 10 8.92 10 13 C8.68 13.33 7.36 13.66 6 14 C0.11816193 8.24070022 0.11816193 8.24070022 -0.375 3.0625 C-0.25125 2.051875 -0.1275 1.04125 0 0 Z " fill="#EEEEEE" transform="translate(95,74)"/>
<path d="M0 0 C1.65 0 3.3 0 5 0 C5.061875 1.216875 5.12375 2.43375 5.1875 3.6875 C5.71163126 8.15849852 7.50586395 10.13301658 11 13 C10.67 13.66 10.34 14.32 10 15 C6.7 15 3.4 15 0 15 C0 10.05 0 5.1 0 0 Z " fill="#EEEFEF" transform="translate(75,90)"/>
<path d="M0 0 C3.96 0.33 7.92 0.66 12 1 C11.67 3.97 11.34 6.94 11 10 C7.37 10 3.74 10 0 10 C0 6.7 0 3.4 0 0 Z " fill="#EFF0F0" transform="translate(300,50)"/>
<path d="M0 0 C1.63001953 0.15275391 1.63001953 0.15275391 3.29296875 0.30859375 C4.54013672 0.43427734 4.54013672 0.43427734 5.8125 0.5625 C5.8125 2.5425 5.8125 4.5225 5.8125 6.5625 C0.8625 6.5625 -4.0875 6.5625 -9.1875 6.5625 C-9.1875 4.5825 -9.1875 2.6025 -9.1875 0.5625 C-5.76060364 -0.57979879 -3.57647782 -0.34611076 0 0 Z " fill="#EFEFEF" transform="translate(339.1875,113.4375)"/>
<path d="M0 0 C3.65114875 -0.33964174 5.55333235 -0.26393998 8.75 1.625 C11 4 11 4 13 10 C8.71 9.67 4.42 9.34 0 9 C0 6.03 0 3.06 0 0 Z " fill="#EEEEEE" transform="translate(105,66)"/>
<path d="M0 0 C7.28266812 1.33515582 7.28266812 1.33515582 10.5625 4.375 C12 7 12 7 11 11 C7.7 11 4.4 11 1 11 C0.67 7.37 0.34 3.74 0 0 Z " fill="#EEEDED" transform="translate(74,34)"/>
<path d="M0 0 C4.95 0 9.9 0 15 0 C15 1.98 15 3.96 15 6 C10.05 6 5.1 6 0 6 C0 4.02 0 2.04 0 0 Z " fill="#EFEFEF" transform="translate(270,114)"/>
<path d="M0 0 C1.98 0 3.96 0 6 0 C6 4.95 6 9.9 6 15 C4.02 15 2.04 15 0 15 C0 10.05 0 5.1 0 0 Z " fill="#EFEFEF" transform="translate(294,60)"/>
<path d="M0 0 C3.3 0 6.6 0 10 0 C10 2.97 10 5.94 10 9 C6.7 9 3.4 9 0 9 C0 6.03 0 3.06 0 0 Z " fill="#EFF0F0" transform="translate(335,51)"/>
<path d="M0 0 C1.19109375 -0.00386719 1.19109375 -0.00386719 2.40625 -0.0078125 C4.5 0.125 4.5 0.125 6.5 1.125 C6.5 3.435 6.5 5.745 6.5 8.125 C-0.95038168 8.49141221 -0.95038168 8.49141221 -3.375 6.875 C-4.57323197 5.01108361 -5.59356523 3.1470468 -6.5 1.125 C-4.13386544 -0.05806728 -2.63219264 -0.00854608 0 0 Z " fill="#ECEAE9" transform="translate(248.5,51.875)"/>
<path d="M0 0 C2.908125 0.0309375 2.908125 0.0309375 5.875 0.0625 C5.875 4.0225 5.875 7.9825 5.875 12.0625 C4.8025 11.134375 3.73 10.20625 2.625 9.25 C-0.83212485 6.28774584 -4.33531943 3.58895371 -8.125 1.0625 C-5.36047967 -0.31976016 -3.0788637 -0.03275387 0 0 Z " fill="#EEEFEE" transform="translate(84.125,-0.0625)"/>
<path d="M0 0 C3.96 0 7.92 0 12 0 C12 3.63 12 7.26 12 11 C11.01 11.495 11.01 11.495 10 12 C8.894019 10.75160501 7.79029799 9.50120766 6.6875 8.25 C6.07261719 7.55390625 5.45773438 6.8578125 4.82421875 6.140625 C3.13587428 4.15944134 1.56179848 2.08239797 0 0 Z " fill="#EFF0F0" transform="translate(138,60)"/>
<path d="M0 0 C3.63 0 7.26 0 11 0 C9.27137013 3.45725973 8.17321076 5.05373372 5.5 7.625 C4.58734375 8.51058594 4.58734375 8.51058594 3.65625 9.4140625 C2.83640625 10.19910156 2.83640625 10.19910156 2 11 C1.34 11.66 0.68 12.32 0 13 C0 8.71 0 4.42 0 0 Z " fill="#FBF9F8" transform="translate(0,60)"/>
<path d="M0 0 C3.96 0 7.92 0 12 0 C12 3.96 12 7.92 12 12 C7.46712884 8.26704728 3.62617712 4.61513452 0 0 Z " fill="#EFF1F1" transform="translate(123,45)"/>
<path d="M0 0 C3.96 0 7.92 0 12 0 C12 3.96 12 7.92 12 12 C7.46712884 8.26704728 3.62617712 4.61513452 0 0 Z " fill="#EFF0F1" transform="translate(108,30)"/>
<path d="M0 0 C3.63 0 7.26 0 11 0 C9.28771067 3.42457867 8.12304686 5.14918235 5.5 7.75 C4.58734375 8.67039062 4.58734375 8.67039062 3.65625 9.609375 C2 11 2 11 0 11 C0 7.37 0 3.74 0 0 Z " fill="#FBF8F8" transform="translate(15,45)"/>
<path d="M0 0 C3.63 0 7.26 0 11 0 C9.28771067 3.42457867 8.12304686 5.14918235 5.5 7.75 C4.58734375 8.67039062 4.58734375 8.67039062 3.65625 9.609375 C2 11 2 11 0 11 C0 7.37 0 3.74 0 0 Z " fill="#FAF8F8" transform="translate(30,30)"/>
<path d="M0 0 C3.96 0 7.92 0 12 0 C12 3.3 12 6.6 12 10 C9 10 9 10 6.73828125 8.06640625 C5.93777344 7.24011719 5.13726562 6.41382813 4.3125 5.5625 C3.50425781 4.73878906 2.69601563 3.91507813 1.86328125 3.06640625 C0 1 0 1 0 0 Z " fill="#EFF0F0" transform="translate(93,15)"/>
<path d="M0 0 C0.79019531 0.06058594 1.58039063 0.12117187 2.39453125 0.18359375 C12.58955952 0.94093871 22.79011492 1.48841727 33 2 C33 2.33 33 2.66 33 3 C28.38 3 23.76 3 19 3 C19 3.66 19 4.32 19 5 C14.05 5 9.1 5 4 5 C4 3.68 4 2.36 4 1 C2.68 0.67 1.36 0.34 0 0 Z " fill="#FEFDFD" transform="translate(191,145)"/>
<path d="M0 0 C3.3 0 6.6 0 10 0 C10 1.65 10 3.3 10 5 C11.65 5 13.3 5 15 5 C12.59549822 7.40450178 11.91766058 7.29609139 8.625 7.3125 C5.66873608 7.24109266 4.13117523 7.06398792 1.4375 5.75 C0 4 0 4 0 0 Z " fill="#F9F7F7" transform="translate(335,90)"/>
<path d="M0 0 C2.31 0 4.62 0 7 0 C7.33 0.99 7.66 1.98 8 3 C7.0390625 4.8671875 7.0390625 4.8671875 5.625 6.875 C3.59613746 9.92110387 2.34854788 12.28215593 2 16 C-0.42130331 12.36804504 -0.21022785 10.61650652 -0.125 6.3125 C-0.09792969 4.54326172 -0.09792969 4.54326172 -0.0703125 2.73828125 C-0.04710937 1.83464844 -0.02390625 0.93101563 0 0 Z " fill="#ECEAE9" transform="translate(180,45)"/>
<path d="M0 0 C1.98 0 3.96 0 6 0 C6.02688151 1.64574566 6.04634123 3.29161413 6.0625 4.9375 C6.07410156 5.85402344 6.08570313 6.77054687 6.09765625 7.71484375 C6 10 6 10 5 11 C3.35 11 1.7 11 0 11 C0 7.37 0 3.74 0 0 Z " fill="#ECEBEB" transform="translate(294,90)"/>
<path d="M0 0 C0.99 0.33 1.98 0.66 3 1 C-1.33333333 5.33333333 -5.66666667 9.66666667 -10 14 C-10 10.37 -10 6.74 -10 3 C-7.68880208 2.8046875 -5.37760417 2.609375 -3.06640625 2.4140625 C-2.38449219 2.27742188 -1.70257813 2.14078125 -1 2 C-0.67 1.34 -0.34 0.68 0 0 Z " fill="#FBFBFB" transform="translate(190,87)"/>
<path d="M0 0 C4.70588235 0.70588235 4.70588235 0.70588235 6 2 C6.3125 4.875 6.3125 4.875 6 8 C4.1875 9.9375 4.1875 9.9375 2 11 C1.01 10.67 0.02 10.34 -1 10 C-1.02689216 8.52093108 -1.04634621 7.04172517 -1.0625 5.5625 C-1.07410156 4.73878906 -1.08570313 3.91507812 -1.09765625 3.06640625 C-1 1 -1 1 0 0 Z " fill="#F0EFEE" transform="translate(226,120)"/>
<path d="M0 0 C1.32 0 2.64 0 4 0 C4 4.95 4 9.9 4 15 C2.68 15 1.36 15 0 15 C0 10.05 0 5.1 0 0 Z " fill="#EFEFEF" transform="translate(75,60)"/>
<path d="M0 0 C0.78375 0.165 1.5675 0.33 2.375 0.5 C6.93966142 1.12960847 11.40072601 1.08180527 16 1 C15.67 2.32 15.34 3.64 15 5 C10.05 5 5.1 5 0 5 C0 3.35 0 1.7 0 0 Z " fill="#F0F0F0" transform="translate(270,25)"/>
<path d="M0 0 C1.65 0.33 3.3 0.66 5 1 C5 2.98 5 4.96 5 7 C0.545 7.495 0.545 7.495 -4 8 C-2.87548273 5.0280615 -1.77706209 2.66559313 0 0 Z " fill="#F0F1F1" transform="translate(205,91)"/>
<path d="M0 0 C0 2.97 0 5.94 0 9 C-4.455 9.495 -4.455 9.495 -9 10 C-7.36154205 6.7230841 -6.42832637 5.17350674 -3.9375 2.75 C-3.41027344 2.22921875 -2.88304688 1.7084375 -2.33984375 1.171875 C-1 0 -1 0 0 0 Z " fill="#FEFEFE" transform="translate(90,141)"/>
<path d="M0 0 C0.33 0 0.66 0 1 0 C1 2.97 1 5.94 1 9 C-1.97 9 -4.94 9 -8 9 C-2.25 2.25 -2.25 2.25 0 0 Z " fill="#FFFFFF" transform="translate(104,126)"/>
<path d="M0 0 C0.33 0 0.66 0 1 0 C1 2.97 1 5.94 1 9 C-1.97 9 -4.94 9 -8 9 C-2.25 2.25 -2.25 2.25 0 0 Z " fill="#FFFFFF" transform="translate(119,111)"/>
<path d="M0 0 C0.33 0 0.66 0 1 0 C1 2.97 1 5.94 1 9 C-1.97 9 -4.94 9 -8 9 C-2.25 2.25 -2.25 2.25 0 0 Z " fill="#FFFFFF" transform="translate(134,96)"/>
<path d="M0 0 C0.99 0 1.98 0 3 0 C3 4.95 3 9.9 3 15 C2.01 15 1.02 15 0 15 C0 10.05 0 5.1 0 0 Z " fill="#EFEFEF" transform="translate(72,75)"/>
<path d="M0 0 C0.33 0 0.66 0 1 0 C1 2.97 1 5.94 1 9 C0.2575 9.268125 -0.485 9.53625 -1.25 9.8125 C-3.86636554 10.94229421 -5.80187111 12.20893202 -8 14 C-6.46205865 10.82010194 -4.743521 7.78518026 -2.9375 4.75 C-2.41027344 3.85796875 -1.88304687 2.9659375 -1.33984375 2.046875 C-0.89769531 1.37140625 -0.45554688 0.6959375 0 0 Z " fill="#F9F8F7" transform="translate(254,126)"/>
<path d="M0 0 C0.33 0 0.66 0 1 0 C1 2.64 1 5.28 1 8 C-1.64 8 -4.28 8 -7 8 C-6.02133662 6.85373678 -5.04205413 5.70800212 -4.0625 4.5625 C-3.51722656 3.92441406 -2.97195312 3.28632812 -2.41015625 2.62890625 C-1.63204305 1.73008851 -0.84063472 0.84063472 0 0 Z " fill="#FFFFFF" transform="translate(149,82)"/>
<path d="M0 0 C0.598125 0.20625 1.19625 0.4125 1.8125 0.625 C1.4825 2.275 1.1525 3.925 0.8125 5.625 C-1.4975 5.955 -3.8075 6.285 -6.1875 6.625 C-5.875 4.25 -5.875 4.25 -5.1875 1.625 C-2.1875 -0.375 -2.1875 -0.375 0 0 Z " fill="#FCFBFA" transform="translate(209.1875,54.375)"/>
<path d="M0 0 C2 3 2 3 2.9375 4.9375 C4.08333147 7.16176109 5.45668628 9.03578254 7 11 C4.69 11 2.38 11 0 11 C0 7.37 0 3.74 0 0 Z " fill="#EDECEB" transform="translate(0,79)"/>
<path d="M0 0 C1.16959987 0.97566112 2.33561177 1.955625 3.5 2.9375 C4.1496875 3.48277344 4.799375 4.02804688 5.46875 4.58984375 C5.9740625 5.05519531 6.479375 5.52054688 7 6 C7 6.33 7 6.66 7 7 C4.69 7 2.38 7 0 7 C0 4.69 0 2.38 0 0 Z " fill="#EFEFEF" transform="translate(60,143)"/>
<path d="M0 0 C1.16959987 0.97566112 2.33561177 1.955625 3.5 2.9375 C4.1496875 3.48277344 4.799375 4.02804688 5.46875 4.58984375 C5.9740625 5.05519531 6.479375 5.52054688 7 6 C7 6.33 7 6.66 7 7 C4.69 7 2.38 7 0 7 C0 4.69 0 2.38 0 0 Z " fill="#EFEFEF" transform="translate(45,128)"/>
<path d="M0 0 C1.16959987 0.97566112 2.33561177 1.955625 3.5 2.9375 C4.1496875 3.48277344 4.799375 4.02804688 5.46875 4.58984375 C5.9740625 5.05519531 6.479375 5.52054687 7 6 C7 6.33 7 6.66 7 7 C4.69 7 2.38 7 0 7 C0 4.69 0 2.38 0 0 Z " fill="#EFEFEF" transform="translate(30,113)"/>
<path d="M0 0 C1.16959987 0.97566112 2.33561177 1.955625 3.5 2.9375 C4.1496875 3.48277344 4.799375 4.02804688 5.46875 4.58984375 C5.9740625 5.05519531 6.479375 5.52054687 7 6 C7 6.33 7 6.66 7 7 C4.69 7 2.38 7 0 7 C0 4.69 0 2.38 0 0 Z " fill="#EFEFEF" transform="translate(15,98)"/>
<path d="M0 0 C4.95 0 9.9 0 15 0 C15 0.33 15 0.66 15 1 C14.25234375 1.13277344 13.5046875 1.26554688 12.734375 1.40234375 C11.25710938 1.66724609 11.25710938 1.66724609 9.75 1.9375 C8.77546875 2.11152344 7.8009375 2.28554688 6.796875 2.46484375 C4.50278205 2.90379729 2.25708029 3.40348592 0 4 C0 2.68 0 1.36 0 0 Z " fill="#F8F7F6" transform="translate(270,0)"/>
<path d="M0 0 C1.98 0 3.96 0 6 0 C6 2.97 6 5.94 6 9 C5.01 8.34 4.02 7.68 3 7 C2.63371323 5.00577205 2.29868656 3.00546689 2 1 C1.34 0.67 0.68 0.34 0 0 Z " fill="#EFEFEE" transform="translate(249,105)"/>
<path d="M0 0 C1.32 1.32 2.64 2.64 4 4 C3.34 5.65 2.68 7.3 2 9 C1.34 8.67 0.68 8.34 0 8 C0 5.36 0 2.72 0 0 Z " fill="#EFEEEE" transform="translate(180,111)"/>
<path d="M0 0 C1.98 0 3.96 0 6 0 C6 1.98 6 3.96 6 6 C3.97945196 4.35830472 1.97956942 2.69088222 0 1 C0 0.67 0 0.34 0 0 Z " fill="#F1F5F5" transform="translate(84,60)"/>
<path d="M0 0 C1.98 0 3.96 0 6 0 C6 1.98 6 3.96 6 6 C3.97945196 4.35830472 1.97956942 2.69088222 0 1 C0 0.67 0 0.34 0 0 Z " fill="#F1F5F5" transform="translate(54,30)"/>
<path d="M0 0 C2.02054804 1.64169528 4.02043058 3.30911778 6 5 C6 5.33 6 5.66 6 6 C4.02 6 2.04 6 0 6 C0 4.02 0 2.04 0 0 Z " fill="#EFF1F2" transform="translate(60,24)"/>
<path d="M0 0 C0.99 0.33 1.98 0.66 3 1 C2.34 1 1.68 1 1 1 C0.67 3.31 0.34 5.62 0 8 C-1.32 8 -2.64 8 -4 8 C-2.87548273 5.0280615 -1.77706209 2.66559313 0 0 Z " fill="#E2DFDB" transform="translate(205,91)"/>
<path d="M0 0 C1.65 1.65 3.3 3.3 5 5 C3.35 5.33 1.7 5.66 0 6 C0 4.02 0 2.04 0 0 Z " fill="#ECE9E8" transform="translate(90,54)"/>
<path d="M0 0 C0.33 0 0.66 0 1 0 C1 3.63 1 7.26 1 11 C-0.32 11 -1.64 11 -3 11 C-3 10.34 -3 9.68 -3 9 C-2.34 8.67 -1.68 8.34 -1 8 C-0.53476937 6.10466658 -0.53476937 6.10466658 -0.375 3.9375 C-0.25125 2.638125 -0.1275 1.33875 0 0 Z " fill="#3B3419" transform="translate(254,41)"/>
<path d="M0 0 C0.66 0.33 1.32 0.66 2 1 C1.67 2.32 1.34 3.64 1 5 C-0.65 5 -2.3 5 -4 5 C-3 2 -3 2 0 0 Z " fill="#FBFAFA" transform="translate(239,85)"/>
<path d="M0 0 C0.99 0.33 1.98 0.66 3 1 C0.03 3.475 0.03 3.475 -3 6 C-3 3 -3 3 -1.5 1.3125 C-0.7575 0.6628125 -0.7575 0.6628125 0 0 Z " fill="#261E03" transform="translate(190,45)"/>
</svg>
