<?xml version="1.0" encoding="UTF-8"?>
<svg version="1.1" xmlns="http://www.w3.org/2000/svg" width="256" height="256">
<path d="M0 0 C1.67542976 0.28604898 3.34385343 0.61781233 5 1 C7.4609375 8.3828125 9.921875 15.765625 12.3828125 23.1484375 C12.64856079 23.94544067 12.91430908 24.74244385 13.18811035 25.56359863 C13.71726126 27.15153809 14.24582955 28.73967182 14.77380371 30.32800293 C15.93021689 33.80493113 17.09521399 37.27781615 18.28320312 40.74414062 C18.83137695 42.34805664 18.83137695 42.34805664 19.390625 43.984375 C19.70547852 44.89413086 20.02033203 45.80388672 20.34472656 46.74121094 C21 49 21 49 21 52 C38.82 52 56.64 52 75 52 C75.99 48.37 76.98 44.74 78 41 C79.01278387 37.72775362 80.03996148 34.46695114 81.1015625 31.2109375 C81.38349457 30.3410318 81.66542664 29.4711261 81.9559021 28.57485962 C82.54450778 26.76123889 83.13441105 24.9480388 83.72558594 23.13525391 C84.63378666 20.3480342 85.53585378 17.55887728 86.4375 14.76953125 C87.01265663 12.99988159 87.58816435 11.23034599 88.1640625 9.4609375 C88.56874252 8.20801407 88.56874252 8.20801407 88.9815979 6.92977905 C90.88517244 1.11482756 90.88517244 1.11482756 92 0 C93.66617115 -0.04063832 95.33388095 -0.042721 97 0 C99.82088238 6.78509423 102.24999285 13.61228388 104.4375 20.625 C106.7411728 27.95679362 109.07957801 35.27288101 111.51393127 42.56225586 C112.71578625 46.16133422 113.90896944 49.76326949 115.10232544 53.36517334 C115.69754992 55.15369996 116.29685317 56.94087467 116.90036011 58.72662354 C117.75700466 61.26347147 118.59858208 63.80490031 119.4375 66.34765625 C119.69648575 67.10203476 119.9554715 67.85641327 120.2223053 68.63365173 C121.84179298 73.60398329 122.4962472 77.76544882 122 83 C120.76098633 84.88061523 120.76098633 84.88061523 119.01953125 86.12109375 C118.37709473 86.5991748 117.7346582 87.07725586 117.07275391 87.56982422 C116.38874512 88.04178223 115.70473633 88.51374023 115 89 C114.34821777 89.4861377 113.69643555 89.97227539 113.02490234 90.47314453 C110.93207373 92.03197952 108.81389186 93.54981523 106.6875 95.0625 C105.087179 96.20955089 103.48692033 97.35668876 101.88671875 98.50390625 C101.07509277 99.08414551 100.2634668 99.66438477 99.42724609 100.26220703 C95.60920288 102.99574471 91.80500921 105.74836436 88 108.5 C86.50919206 109.57693017 85.01830634 110.65375269 83.52734375 111.73046875 C82.78597168 112.26591309 82.04459961 112.80135742 81.28076172 113.35302734 C78.93870504 115.04426202 76.59633737 116.73506524 74.25390625 118.42578125 C73.47426514 118.98894043 72.69462402 119.55209961 71.89135742 120.13232422 C70.35775917 121.2387529 68.8227981 122.34329542 67.28637695 123.44580078 C64.01949039 125.79384152 60.77332297 128.15340911 57.6015625 130.62890625 C56.15910156 131.74072266 56.15910156 131.74072266 54.6875 132.875 C53.88699219 133.51179687 53.08648437 134.14859375 52.26171875 134.8046875 C49.31694234 136.3609942 48.15888015 135.90518824 45 135 C42.91040039 133.76000977 42.91040039 133.76000977 40.84765625 132.19140625 C40.07832764 131.61422852 39.30899902 131.03705078 38.51635742 130.44238281 C37.70658447 129.82202148 36.89681152 129.20166016 36.0625 128.5625 C34.35217365 127.27653052 32.64123192 125.99137911 30.9296875 124.70703125 C30.09018555 124.07361816 29.25068359 123.44020508 28.38574219 122.78759766 C25.18795516 120.39154807 21.9469873 118.06107618 18.6875 115.75 C18.12643555 115.35079346 17.56537109 114.95158691 16.98730469 114.5402832 C15.32585088 113.35879958 13.66315138 112.1790925 12 111 C3.93860768 105.28486947 -4.08298996 99.51654161 -12.0625 93.6875 C-12.87227295 93.1006543 -13.6820459 92.51380859 -14.51635742 91.90917969 C-16.70408943 90.30452213 -18.85580463 88.66216284 -21 87 C-22.02996094 86.22269531 -23.05992188 85.44539063 -24.12109375 84.64453125 C-26 82 -26 82 -26.14453125 78.2421875 C-24.80910925 70.68982419 -22.10790063 63.3851768 -19.6875 56.125 C-19.15275365 54.50113629 -18.61850011 52.87711021 -18.0847168 51.25292969 C-14.23063887 39.56200463 -10.28819608 27.90006865 -6.3125 16.25 C-6.05093109 15.48190002 -5.78936218 14.71380005 -5.51986694 13.92242432 C-4.78368465 11.76476588 -4.04314101 9.6086647 -3.30078125 7.453125 C-2.66910034 5.61476074 -2.66910034 5.61476074 -2.0246582 3.73925781 C-1 1 -1 1 0 0 Z " fill="#E24429" transform="translate(80,60)"/>
<path d="M0 0 C19.8 0.495 19.8 0.495 40 1 C46.38224956 20.14674868 46.38224956 20.14674868 49.04345703 28.91210938 C50.74080802 34.39145988 52.6002799 39.81631817 54.4375 45.25 C58.73712474 58.05902342 62.77292244 70.87462178 66 84 C60.64580402 82.39586589 56.78003496 78.87845364 52.5 75.4375 C46.17154054 70.43033921 39.79245142 65.65727684 33.1171875 61.12109375 C27.33576835 57.18712057 21.66542863 53.09839518 16 49 C15.21125488 48.42991211 14.42250977 47.85982422 13.60986328 47.27246094 C11.04821025 45.41650422 8.49214946 43.55308244 5.9375 41.6875 C5.12780762 41.10073486 4.31811523 40.51396973 3.48388672 39.90942383 C1.2960942 38.30466083 -0.85571665 36.66223104 -3 35 C-4.02996094 34.22269531 -5.05992188 33.44539063 -6.12109375 32.64453125 C-8.16012806 29.77462225 -8.28507163 29.22050472 -8.03515625 25.87890625 C-7.07236352 20.39655756 -5.27812265 15.1772196 -3.4375 9.9375 C-2.303125 6.658125 -1.16875 3.37875 0 0 Z " fill="#FB6C26" transform="translate(62,112)"/>
<path d="M0 0 C13.2 0 26.4 0 40 0 C41.155 3.465 42.31 6.93 43.5 10.5 C44.04817383 12.11358398 44.04817383 12.11358398 44.60742188 13.75976562 C48.02833158 24.27072403 48.02833158 24.27072403 47 30 C45.00847486 32.50355563 42.61971666 34.19242636 40 36 C39.02232666 36.72920654 39.02232666 36.72920654 38.02490234 37.47314453 C35.93207373 39.03197952 33.81389186 40.54981523 31.6875 42.0625 C30.087179 43.20955089 28.48692033 44.35668876 26.88671875 45.50390625 C26.07509277 46.08414551 25.2634668 46.66438477 24.42724609 47.26220703 C20.60920288 49.99574471 16.80500921 52.74836436 13 55.5 C11.50919206 56.57693017 10.01830634 57.65375269 8.52734375 58.73046875 C7.41528564 59.53363525 7.41528564 59.53363525 6.28076172 60.35302734 C3.93870504 62.04426202 1.59633737 63.73506524 -0.74609375 65.42578125 C-1.91603882 66.27039917 -1.91603882 66.27039917 -3.10961914 67.13208008 C-4.64116523 68.23765236 -6.17289838 69.34296557 -7.70483398 70.44799805 C-10.99062352 72.81954453 -14.2729155 75.19520257 -17.5390625 77.59375 C-18.53679687 78.3259375 -19.53453125 79.058125 -20.5625 79.8125 C-21.83287109 80.75029297 -21.83287109 80.75029297 -23.12890625 81.70703125 C-25 83 -25 83 -26 83 C-25.47013524 75.71435962 -23.22971693 69.400869 -20.75 62.5625 C-17.97927097 54.75584943 -15.330107 46.99158035 -13.10571289 39.01220703 C-9.32814294 25.84413077 -4.48852004 12.92477458 0 0 Z " fill="#FB6C26" transform="translate(155,113)"/>
<path d="M0 0 C4 0 4 0 5.44116211 1.30664062 C5.88210205 1.91701172 6.32304199 2.52738281 6.77734375 3.15625 C7.28402588 3.84082275 7.79070801 4.52539551 8.31274414 5.23071289 C8.84891357 5.97957764 9.38508301 6.72844238 9.9375 7.5 C11.09929336 9.07329275 12.26341536 10.64486821 13.4296875 12.21484375 C14.02233398 13.01647949 14.61498047 13.81811523 15.22558594 14.64404297 C17.90416678 18.20049661 20.72709818 21.63073479 23.5625 25.0625 C28.37628723 30.92063185 32.96992902 36.90678128 37.48071289 43.00024414 C41.53828755 48.45317179 45.79919335 53.71610637 50.1159668 58.96484375 C55.98170022 66.13180671 61.50144796 73.54970967 67 81 C63.47716742 81 62.78684141 80.36479785 60.04296875 78.2890625 C59.26719482 77.70866211 58.4914209 77.12826172 57.69213867 76.53027344 C56.45234253 75.58716309 56.45234253 75.58716309 55.1875 74.625 C53.45893619 73.32992414 51.72976538 72.03565806 50 70.7421875 C49.14792969 70.10249023 48.29585937 69.46279297 47.41796875 68.80371094 C44.20581079 66.40756564 40.95561708 64.06897345 37.6875 61.75 C37.12659668 61.35087402 36.56569336 60.95174805 35.98779297 60.54052734 C34.32614477 59.35900726 32.66329787 58.17919635 31 57 C22.93860768 51.28486947 14.91701004 45.51654161 6.9375 39.6875 C6.12772705 39.1006543 5.3179541 38.51380859 4.48364258 37.90917969 C2.29591057 36.30452213 0.14419537 34.66216284 -2 33 C-3.02996094 32.22269531 -4.05992188 31.44539063 -5.12109375 30.64453125 C-7.1755422 27.7529271 -7.2735343 27.18638751 -7.00390625 23.81640625 C-6.10933198 18.72250812 -4.57497001 13.83471308 -2.9375 8.9375 C-2.51500977 7.6390918 -2.51500977 7.6390918 -2.08398438 6.31445312 C-1.39701565 4.20697281 -0.70229934 2.1024105 0 0 Z " fill="#FCA026" transform="translate(61,114)"/>
<path d="M0 0 C0.66 0 1.32 0 2 0 C3.18619341 3.49368211 4.34530595 6.99579335 5.5 10.5 C5.83386719 11.48226562 6.16773438 12.46453125 6.51171875 13.4765625 C10.03169326 24.25199468 10.03169326 24.25199468 9 30 C7.00847486 32.50355563 4.61971666 34.19242636 2 36 C1.34821777 36.4861377 0.69643555 36.97227539 0.02490234 37.47314453 C-2.06792627 39.03197952 -4.18610814 40.54981523 -6.3125 42.0625 C-7.912821 43.20955089 -9.51307967 44.35668876 -11.11328125 45.50390625 C-11.92490723 46.08414551 -12.7365332 46.66438477 -13.57275391 47.26220703 C-17.39079683 49.9957445 -21.19502461 52.748318 -25 55.5 C-29.61524896 58.83472624 -34.23180622 62.16761389 -38.8515625 65.49609375 C-39.65078125 66.07230469 -40.45 66.64851563 -41.2734375 67.2421875 C-42.78601316 68.33264902 -44.29900059 69.42253971 -45.8125 70.51171875 C-46.50601563 71.011875 -47.19953125 71.51203125 -47.9140625 72.02734375 C-48.92194824 72.7541333 -48.92194824 72.7541333 -49.95019531 73.49560547 C-52.78930078 75.57928435 -55.57247608 77.73457365 -58.34912109 79.90063477 C-60 81 -60 81 -62 81 C-60.46059605 76.16187329 -57.686386 72.84204142 -54.5 69 C-53.40652508 67.65838849 -52.31409331 66.31592614 -51.22265625 64.97265625 C-50.67754395 64.30379395 -50.13243164 63.63493164 -49.57080078 62.94580078 C-47.3109632 60.14646824 -45.11916361 57.29792303 -42.9375 54.4375 C-37.68896535 47.57435505 -32.34769486 40.78600116 -27 34 C-25.22833747 31.7506515 -23.45756605 29.50060501 -21.6875 27.25 C-21.24809082 26.69159424 -20.80868164 26.13318848 -20.35595703 25.55786133 C-17.64689067 22.11052858 -14.95191135 18.6526181 -12.265625 15.1875 C-11.63052002 14.36862305 -10.99541504 13.54974609 -10.34106445 12.70605469 C-9.09094328 11.09309855 -7.84204306 9.47919523 -6.59448242 7.86425781 C-6.02576416 7.13045898 -5.4570459 6.39666016 -4.87109375 5.640625 C-4.36505615 4.98610352 -3.85901855 4.33158203 -3.33764648 3.65722656 C-2 2 -2 2 0 0 Z " fill="#FCA026" transform="translate(193,113)"/>
</svg>
