<?xml version="1.0" encoding="UTF-8"?>
<!DOCTYPE svg PUBLIC "-//W3C//DTD SVG 1.1//EN" "http://www.w3.org/Graphics/SVG/1.1/DTD/svg11.dtd">
<svg xmlns="http://www.w3.org/2000/svg" version="1.1" width="512px" height="512px" style="shape-rendering:geometricPrecision; text-rendering:geometricPrecision; image-rendering:optimizeQuality; fill-rule:evenodd; clip-rule:evenodd" xmlns:xlink="http://www.w3.org/1999/xlink">
<g><path style="opacity:0.97" fill="#cfd7db" d="M 252.5,110.5 C 247.728,110.295 243.062,109.628 238.5,108.5C 235.763,101.787 232.93,95.1208 230,88.5C 223.889,94.4498 217.389,99.7831 210.5,104.5C 197.504,103.668 184.837,101.335 172.5,97.5C 164.783,88.6128 157.616,79.2795 151,69.5C 146.966,72.0216 143.299,75.0216 140,78.5C 137.893,81.3707 138.059,84.0373 140.5,86.5C 135.869,83.5358 131.869,79.8692 128.5,75.5C 130.899,70.2646 134.566,66.0979 139.5,63C 154.78,53.6797 171.113,46.6797 188.5,42C 203.561,37.6099 218.728,33.7765 234,30.5C 234.252,58.6032 240.419,85.2699 252.5,110.5 Z M 219.5,45.5 C 220.833,45.5 222.167,45.5 223.5,45.5C 223.885,53.7431 224.885,61.9098 226.5,70C 226.167,70.5 225.833,71 225.5,71.5C 207.475,68.1952 189.475,64.6952 171.5,61C 178.232,57.754 185.232,55.0873 192.5,53C 201.588,50.3529 210.588,47.8529 219.5,45.5 Z M 168.5,73.5 C 185.044,75.6702 201.711,78.6702 218.5,82.5C 210.648,89.8359 201.815,95.8359 192,100.5C 183.555,91.8986 175.722,82.8986 168.5,73.5 Z"/></g>
<g><path style="opacity:0.95" fill="#b71c1c" d="M 128.5,75.5 C 131.869,79.8692 135.869,83.5358 140.5,86.5C 150.426,92.1424 161.092,95.8091 172.5,97.5C 184.837,101.335 197.504,103.668 210.5,104.5C 219.85,105.74 229.183,107.074 238.5,108.5C 243.062,109.628 247.728,110.295 252.5,110.5C 286.455,114.791 319.788,121.958 352.5,132C 390.096,145.635 422.263,167.135 449,196.5C 452.889,200.949 455.722,205.949 457.5,211.5C 405.004,216.933 353.338,226.6 302.5,240.5C 302.265,239.903 301.765,239.57 301,239.5C 297.461,240.32 294.294,241.654 291.5,243.5C 280.896,245.928 270.562,248.928 260.5,252.5C 251.538,253.6 243.204,256.267 235.5,260.5C 225.06,263.888 214.726,267.555 204.5,271.5C 200.387,272.393 196.72,274.06 193.5,276.5C 192.391,276.557 191.391,276.89 190.5,277.5C 185.749,278.71 181.416,280.71 177.5,283.5C 176.833,283.5 176.5,283.833 176.5,284.5C 165.938,288.448 155.938,293.448 146.5,299.5C 125.875,309.812 105.209,320.146 84.5,330.5C 96.6041,319.567 108.604,308.4 120.5,297C 138.249,280.598 153.749,262.431 167,242.5C 182.842,212.843 184.842,182.176 173,150.5C 164.449,132.271 152.449,116.604 137,103.5C 131.507,97.5041 128.007,90.5041 126.5,82.5C 126.772,80.0222 127.438,77.6889 128.5,75.5 Z M 157.5,107.5 C 157.735,106.903 158.235,106.57 159,106.5C 175.855,110.278 192.688,113.778 209.5,117C 199.618,123.78 190.285,131.28 181.5,139.5C 175.368,127.376 167.368,116.71 157.5,107.5 Z M 226.5,120.5 C 232.526,131.294 234.859,142.96 233.5,155.5C 220.267,151.692 206.934,148.192 193.5,145C 203.837,135.814 214.837,127.647 226.5,120.5 Z M 240.5,120.5 C 255.865,122.672 271.198,125.172 286.5,128C 272.673,135.077 259.34,142.91 246.5,151.5C 245.609,140.917 243.609,130.583 240.5,120.5 Z M 309.5,132.5 C 327.759,136.086 345.426,141.586 362.5,149C 339.985,155.005 317.985,162.505 296.5,171.5C 296.167,171.167 295.833,170.833 295.5,170.5C 301.863,158.445 306.529,145.778 309.5,132.5 Z M 294.5,136.5 C 295.239,136.369 295.906,136.536 296.5,137C 291.894,150.712 286.061,163.878 279,176.5C 270.31,171.072 261.143,166.572 251.5,163C 265.228,153.138 279.561,144.305 294.5,136.5 Z M 187.5,155.5 C 200.304,158.369 212.97,161.869 225.5,166C 214.688,174.645 204.021,183.478 193.5,192.5C 192.221,180.041 190.221,167.707 187.5,155.5 Z M 368.5,159.5 C 369.376,159.369 370.043,159.702 370.5,160.5C 358.953,180.256 345.453,198.589 330,215.5C 319.192,204.032 307.358,193.865 294.5,185C 318.609,174.576 343.276,166.076 368.5,159.5 Z M 344.5,217.5 C 360.377,200.102 373.543,180.769 384,159.5C 403.82,170.507 421.32,184.507 436.5,201.5C 405.719,206.186 375.052,211.519 344.5,217.5 Z M 233.5,201.5 C 237.228,191.984 240.561,182.317 243.5,172.5C 252.073,175.786 260.406,179.619 268.5,184C 256.811,189.844 245.145,195.678 233.5,201.5 Z M 228.5,179.5 C 225.487,191.525 220.321,202.525 213,212.5C 208.032,209.599 202.865,207.099 197.5,205C 207.416,195.91 217.749,187.41 228.5,179.5 Z M 250.5,242.5 C 262.4,226.379 273.567,209.712 284,192.5C 297.336,201.161 309.503,211.327 320.5,223C 297.07,229.191 273.737,235.691 250.5,242.5 Z M 264.5,198.5 C 265.043,198.56 265.376,198.893 265.5,199.5C 256.737,213.361 247.237,226.694 237,239.5C 234.429,232.261 230.263,226.095 224.5,221C 237.734,213.219 251.067,205.719 264.5,198.5 Z M 190.5,215.5 C 194.867,216.517 198.867,218.35 202.5,221C 196.979,224.915 191.312,228.248 185.5,231C 187.667,225.998 189.334,220.831 190.5,215.5 Z M 187.5,265.5 C 197.551,254.119 207.217,242.453 216.5,230.5C 223.32,235.809 226.654,242.809 226.5,251.5C 213.207,255.375 200.207,260.042 187.5,265.5 Z M 188.5,245.5 C 180.107,256.227 170.441,265.561 159.5,273.5C 166.365,261.24 176.031,251.907 188.5,245.5 Z"/></g>
<g><path style="opacity:0.973" fill="#cfd7db" d="M 302.5,240.5 C 317.994,310.885 308.827,377.885 275,441.5C 271.625,447.085 268.125,452.585 264.5,458C 213.804,459.495 164.804,451.162 117.5,433C 98.5393,425.692 82.7059,414.192 70,398.5C 59.6892,378.612 61.3559,359.612 75,341.5C 78.0316,337.641 81.1983,333.974 84.5,330.5C 105.209,320.146 125.875,309.812 146.5,299.5C 142.794,309.169 141.627,319.169 143,329.5C 143.819,333.794 145.319,337.794 147.5,341.5C 160.198,324.109 169.865,305.109 176.5,284.5C 177.167,284.5 177.5,284.167 177.5,283.5C 181.416,280.71 185.749,278.71 190.5,277.5C 185.171,300.16 176.004,321.16 163,340.5C 162.312,341.332 162.479,341.998 163.5,342.5C 183.526,335.716 202.859,327.382 221.5,317.5C 208.931,306.025 199.598,292.359 193.5,276.5C 196.72,274.06 200.387,272.393 204.5,271.5C 208.824,284.823 216.157,296.157 226.5,305.5C 230.652,290.741 233.652,275.741 235.5,260.5C 243.204,256.267 251.538,253.6 260.5,252.5C 271.804,257.493 283.137,262.493 294.5,267.5C 294.833,266.833 295.167,266.167 295.5,265.5C 294.036,258.18 292.702,250.846 291.5,243.5C 294.294,241.654 297.461,240.32 301,239.5C 301.765,239.57 302.265,239.903 302.5,240.5 Z M 247.5,260.5 C 261.718,266.183 275.718,272.35 289.5,279C 272.916,289.544 256.083,299.71 239,309.5C 242.257,293.294 245.09,276.961 247.5,260.5 Z M 295.5,288.5 C 297.117,289.589 297.95,291.256 298,293.5C 298.427,305.839 298.261,318.172 297.5,330.5C 279.318,330.454 261.985,326.621 245.5,319C 262.865,309.764 279.532,299.597 295.5,288.5 Z M 130.5,308.5 C 130.587,314.972 130.753,321.639 131,328.5C 131.767,335.8 133.934,342.634 137.5,349C 119.007,355.147 100.007,357.314 80.5,355.5C 86.2207,346.608 92.8874,338.441 100.5,331C 110.118,322.867 120.118,315.367 130.5,308.5 Z M 233.5,325.5 C 247.731,333.8 263.064,339.133 279.5,341.5C 257.889,354.306 235.555,365.472 212.5,375C 221.278,359.275 228.278,342.775 233.5,325.5 Z M 215.5,333.5 C 216.497,333.47 217.164,333.97 217.5,335C 211.8,350.567 204.633,365.4 196,379.5C 182.455,373.648 169.955,366.148 158.5,357C 172.623,352.069 186.623,346.736 200.5,341C 205.84,338.997 210.84,336.497 215.5,333.5 Z M 293.5,347.5 C 291.912,365.196 287.745,382.529 281,399.5C 259.258,398.182 238.091,394.016 217.5,387C 243.649,375.094 268.983,361.928 293.5,347.5 Z M 127.5,363.5 C 128.978,363.238 130.311,363.571 131.5,364.5C 120.563,379.174 108.563,393.007 95.5,406C 88.525,402.701 83.025,397.534 79,390.5C 75.3057,383.87 74.139,376.87 75.5,369.5C 86.8387,368.722 98.172,367.889 109.5,367C 115.736,366.353 121.736,365.187 127.5,363.5 Z M 147.5,363.5 C 158.666,372.651 170.666,380.651 183.5,387.5C 160.489,397.752 136.489,404.252 111.5,407C 124.105,392.93 136.105,378.43 147.5,363.5 Z M 201.5,394.5 C 219.947,401.362 238.947,406.195 258.5,409C 230.923,419.311 202.589,426.311 173.5,430C 184.191,419.153 193.524,407.32 201.5,394.5 Z M 180.5,402.5 C 172.538,413.237 163.538,423.07 153.5,432C 140.042,429.292 127.042,424.959 114.5,419C 137.114,415.849 159.114,410.349 180.5,402.5 Z M 272.5,415.5 C 273.239,415.369 273.906,415.536 274.5,416C 270.071,426.361 264.738,436.194 258.5,445.5C 234.89,446.977 211.556,445.144 188.5,440C 217.723,435.533 245.723,427.366 272.5,415.5 Z"/></g>
</svg>
